<svg class="main-svg" xmlns="http://www.w3.org/2000/svg" xmlns:xlink="http://www.w3.org/1999/xlink" width="700" height="500" style="" viewBox="0 0 700 500"><rect x="0" y="0" width="700" height="500" style="fill: rgb(255, 255, 255); fill-opacity: 1;"/><defs id="defs-4686af"><g class="clips"><clipPath id="clip4686afxyplot" class="plotclip"><rect width="540" height="320"/></clipPath><clipPath class="axesclip" id="clip4686afx"><rect x="80" y="0" width="540" height="500"/></clipPath><clipPath class="axesclip" id="clip4686afy"><rect x="0" y="100" width="700" height="320"/></clipPath><clipPath class="axesclip" id="clip4686afxy"><rect x="80" y="100" width="540" height="320"/></clipPath></g><g class="gradients"/></defs><g class="bglayer"><rect class="bg" x="80" y="100" width="540" height="320" style="fill: rgb(0, 0, 0); fill-opacity: 0; stroke-width: 0;"/></g><g class="layer-below"><g class="imagelayer"/><g class="shapelayer"/></g><g class="cartesianlayer"><g class="subplot xy"><g class="layer-subplot"><g class="shapelayer"/><g class="imagelayer"/></g><g class="gridlayer"><g class="x"><path class="xgrid crisp" transform="translate(147.13,0)" d="M0,100v320" style="stroke: rgb(255, 255, 255); stroke-opacity: 1; stroke-width: 1px;"/><path class="xgrid crisp" transform="translate(281.38,0)" d="M0,100v320" style="stroke: rgb(255, 255, 255); stroke-opacity: 1; stroke-width: 1px;"/><path class="xgrid crisp" transform="translate(415.63,0)" d="M0,100v320" style="stroke: rgb(255, 255, 255); stroke-opacity: 1; stroke-width: 1px;"/><path class="xgrid crisp" transform="translate(549.88,0)" d="M0,100v320" style="stroke: rgb(255, 255, 255); stroke-opacity: 1; stroke-width: 1px;"/></g><g class="y"><path class="ygrid crisp" transform="translate(0,384.44)" d="M80,0h540" style="stroke: rgb(255, 255, 255); stroke-opacity: 1; stroke-width: 1px;"/><path class="ygrid crisp" transform="translate(0,313.33000000000004)" d="M80,0h540" style="stroke: rgb(255, 255, 255); stroke-opacity: 1; stroke-width: 1px;"/><path class="ygrid crisp" transform="translate(0,242.22)" d="M80,0h540" style="stroke: rgb(255, 255, 255); stroke-opacity: 1; stroke-width: 1px;"/><path class="ygrid crisp" transform="translate(0,171.11)" d="M80,0h540" style="stroke: rgb(255, 255, 255); stroke-opacity: 1; stroke-width: 1px;"/></g></g><g class="zerolinelayer"/><path class="xlines-below"/><path class="ylines-below"/><g class="overlines-below"/><g class="xaxislayer-below"/><g class="yaxislayer-below"/><g class="overaxes-below"/><g class="plot" transform="translate(80, 100)" clip-path="url('#clip4686afxyplot')"><g class="violinlayer mlayer"><g class="trace violins" style="opacity: 1;"><path class="violin" d="M67.55,278.51Q67.77,274.35 67.95,272.28C68.13,270.2 68.35,268.12 68.62,266.05C68.9,263.97 69.21,261.89 69.6,259.82C69.99,257.74 70.44,255.66 70.95,253.59C71.46,251.51 72.04,249.43 72.67,247.36C73.31,245.27 74.02,243.19 74.77,241.12C75.53,239.03 76.35,236.96 77.2,234.89C78.06,232.81 78.98,230.73 79.9,228.66C80.82,226.58 81.79,224.51 82.71,222.43C83.62,220.36 84.56,218.29 85.4,216.2C86.23,214.13 87.04,212.06 87.72,209.97C88.39,207.91 88.99,205.83 89.45,203.74C89.9,201.67 90.25,199.59 90.47,197.5C90.69,195.43 90.77,193.35 90.75,191.27C90.73,189.19 90.58,187.11 90.36,185.04C90.14,182.96 89.79,180.88 89.43,178.81C89.07,176.73 88.61,174.66 88.2,172.58C87.79,170.5 87.34,168.43 86.97,166.35C86.6,164.28 86.25,162.2 85.96,160.12C85.67,158.05 85.45,155.97 85.25,153.89C85.05,151.81 84.91,149.73 84.74,147.65C84.57,145.57 84.43,143.49 84.21,141.42C83.99,139.34 83.75,137.26 83.42,135.19C83.09,133.11 82.69,131.03 82.23,128.96C81.76,126.88 81.21,124.8 80.62,122.73C80.03,120.65 79.37,118.57 78.7,116.5C78.03,114.42 77.3,112.35 76.6,110.27C75.9,108.19 75.19,106.12 74.52,104.04C73.85,101.96 73.2,99.89 72.6,97.8C72.01,95.73 71.45,93.65 70.96,91.57C70.47,89.5 70.04,87.42 69.66,85.34C69.28,83.27 68.97,81.19 68.7,79.11C68.43,77.04 68.21,74.96 68.03,72.88C67.85,70.81 67.72,68.73 67.61,66.65Q67.5,64.57 67.37,60.42L66.88,60.42Q66.75,64.57 66.64,66.65C66.53,68.73 66.4,70.81 66.22,72.88C66.04,74.96 65.82,77.04 65.55,79.11C65.28,81.19 64.97,83.27 64.59,85.34C64.21,87.42 63.78,89.5 63.29,91.57C62.8,93.65 62.24,95.73 61.65,97.8C61.05,99.89 60.4,101.96 59.73,104.04C59.06,106.12 58.35,108.19 57.65,110.27C56.95,112.35 56.22,114.42 55.55,116.5C54.88,118.57 54.22,120.65 53.63,122.73C53.04,124.8 52.49,126.88 52.02,128.96C51.56,131.03 51.16,133.11 50.83,135.19C50.5,137.26 50.26,139.34 50.04,141.42C49.82,143.49 49.68,145.57 49.51,147.65C49.34,149.73 49.2,151.81 49,153.89C48.8,155.97 48.58,158.05 48.29,160.12C48,162.2 47.65,164.28 47.28,166.35C46.91,168.43 46.46,170.5 46.05,172.58C45.64,174.66 45.18,176.73 44.82,178.81C44.46,180.88 44.11,182.96 43.89,185.04C43.67,187.11 43.52,189.19 43.5,191.27C43.48,193.35 43.56,195.43 43.78,197.5C44,199.59 44.35,201.67 44.8,203.74C45.26,205.83 45.86,207.91 46.53,209.97C47.21,212.06 48.02,214.13 48.85,216.2C49.69,218.29 50.63,220.36 51.54,222.43C52.46,224.51 53.43,226.58 54.35,228.66C55.27,230.73 56.19,232.81 57.05,234.89C57.9,236.96 58.72,239.03 59.48,241.12C60.23,243.19 60.94,245.27 61.58,247.36C62.21,249.43 62.79,251.51 63.3,253.59C63.81,255.66 64.26,257.74 64.65,259.82C65.04,261.89 65.35,263.97 65.63,266.05C65.9,268.12 66.12,270.2 66.3,272.28Q66.48,274.35 66.7,278.51Z" style="vector-effect: non-scaling-stroke; stroke-width: 2px; stroke: rgb(0, 128, 0); stroke-opacity: 1; fill: rgb(0, 128, 0); fill-opacity: 0.5;"/><path class="box" d="M60.41,181.43H73.84M60.41,206.23H73.84V143.52H60.41ZM67.13,206.23V240.83M67.13,143.52V98.1" style="vector-effect: non-scaling-stroke; stroke-width: 2px; stroke: rgb(0, 128, 0); stroke-opacity: 1; fill: rgb(0, 128, 0); fill-opacity: 0.5;"/><path class="mean" d="M60.41,174.91H73.84" style="fill: none; vector-effect: non-scaling-stroke; stroke-width: 2px; stroke-dasharray: 4px, 2px; stroke: rgb(0, 128, 0); stroke-opacity: 1;"/><g class="points"><path class="point" transform="translate(105.13,240.83)" d="M3,0A3,3 0 1,1 0,-3A3,3 0 0,1 3,0Z" style="opacity: 1; stroke-width: 0px; fill: rgb(0, 128, 0); fill-opacity: 1;"/><path class="point" transform="translate(104.16,239.02)" d="M3,0A3,3 0 1,1 0,-3A3,3 0 0,1 3,0Z" style="opacity: 1; stroke-width: 0px; fill: rgb(0, 128, 0); fill-opacity: 1;"/><path class="point" transform="translate(105.41,231.08)" d="M3,0A3,3 0 1,1 0,-3A3,3 0 0,1 3,0Z" style="opacity: 1; stroke-width: 0px; fill: rgb(0, 128, 0); fill-opacity: 1;"/><path class="point" transform="translate(103.93,217.55)" d="M3,0A3,3 0 1,1 0,-3A3,3 0 0,1 3,0Z" style="opacity: 1; stroke-width: 0px; fill: rgb(0, 128, 0); fill-opacity: 1;"/><path class="point" transform="translate(104.48,216.26)" d="M3,0A3,3 0 1,1 0,-3A3,3 0 0,1 3,0Z" style="opacity: 1; stroke-width: 0px; fill: rgb(0, 128, 0); fill-opacity: 1;"/><path class="point" transform="translate(105.25,213.01)" d="M3,0A3,3 0 1,1 0,-3A3,3 0 0,1 3,0Z" style="opacity: 1; stroke-width: 0px; fill: rgb(0, 128, 0); fill-opacity: 1;"/><path class="point" transform="translate(104.68,212.68)" d="M3,0A3,3 0 1,1 0,-3A3,3 0 0,1 3,0Z" style="opacity: 1; stroke-width: 0px; fill: rgb(0, 128, 0); fill-opacity: 1;"/><path class="point" transform="translate(105.04,209.44)" d="M3,0A3,3 0 1,1 0,-3A3,3 0 0,1 3,0Z" style="opacity: 1; stroke-width: 0px; fill: rgb(0, 128, 0); fill-opacity: 1;"/><path class="point" transform="translate(104.34,207.05)" d="M3,0A3,3 0 1,1 0,-3A3,3 0 0,1 3,0Z" style="opacity: 1; stroke-width: 0px; fill: rgb(0, 128, 0); fill-opacity: 1;"/><path class="point" transform="translate(103.85,206.5)" d="M3,0A3,3 0 1,1 0,-3A3,3 0 0,1 3,0Z" style="opacity: 1; stroke-width: 0px; fill: rgb(0, 128, 0); fill-opacity: 1;"/><path class="point" transform="translate(105.03,205.96)" d="M3,0A3,3 0 1,1 0,-3A3,3 0 0,1 3,0Z" style="opacity: 1; stroke-width: 0px; fill: rgb(0, 128, 0); fill-opacity: 1;"/><path class="point" transform="translate(104.33,203.79)" d="M3,0A3,3 0 1,1 0,-3A3,3 0 0,1 3,0Z" style="opacity: 1; stroke-width: 0px; fill: rgb(0, 128, 0); fill-opacity: 1;"/><path class="point" transform="translate(105.5,201.86)" d="M3,0A3,3 0 1,1 0,-3A3,3 0 0,1 3,0Z" style="opacity: 1; stroke-width: 0px; fill: rgb(0, 128, 0); fill-opacity: 1;"/><path class="point" transform="translate(103.47,191.04)" d="M3,0A3,3 0 1,1 0,-3A3,3 0 0,1 3,0Z" style="opacity: 1; stroke-width: 0px; fill: rgb(0, 128, 0); fill-opacity: 1;"/><path class="point" transform="translate(104,190.5)" d="M3,0A3,3 0 1,1 0,-3A3,3 0 0,1 3,0Z" style="opacity: 1; stroke-width: 0px; fill: rgb(0, 128, 0); fill-opacity: 1;"/><path class="point" transform="translate(105.75,186.99)" d="M3,0A3,3 0 1,1 0,-3A3,3 0 0,1 3,0Z" style="opacity: 1; stroke-width: 0px; fill: rgb(0, 128, 0); fill-opacity: 1;"/><path class="point" transform="translate(104.44,186.71)" d="M3,0A3,3 0 1,1 0,-3A3,3 0 0,1 3,0Z" style="opacity: 1; stroke-width: 0px; fill: rgb(0, 128, 0); fill-opacity: 1;"/><path class="point" transform="translate(103.77,186.17)" d="M3,0A3,3 0 1,1 0,-3A3,3 0 0,1 3,0Z" style="opacity: 1; stroke-width: 0px; fill: rgb(0, 128, 0); fill-opacity: 1;"/><path class="point" transform="translate(104.27,185.08)" d="M3,0A3,3 0 1,1 0,-3A3,3 0 0,1 3,0Z" style="opacity: 1; stroke-width: 0px; fill: rgb(0, 128, 0); fill-opacity: 1;"/><path class="point" transform="translate(104.69,183.2)" d="M3,0A3,3 0 1,1 0,-3A3,3 0 0,1 3,0Z" style="opacity: 1; stroke-width: 0px; fill: rgb(0, 128, 0); fill-opacity: 1;"/><path class="point" transform="translate(105.31,179.67)" d="M3,0A3,3 0 1,1 0,-3A3,3 0 0,1 3,0Z" style="opacity: 1; stroke-width: 0px; fill: rgb(0, 128, 0); fill-opacity: 1;"/><path class="point" transform="translate(104.83,174.53)" d="M3,0A3,3 0 1,1 0,-3A3,3 0 0,1 3,0Z" style="opacity: 1; stroke-width: 0px; fill: rgb(0, 128, 0); fill-opacity: 1;"/><path class="point" transform="translate(104.44,172.36)" d="M3,0A3,3 0 1,1 0,-3A3,3 0 0,1 3,0Z" style="opacity: 1; stroke-width: 0px; fill: rgb(0, 128, 0); fill-opacity: 1;"/><path class="point" transform="translate(103.9,171.01)" d="M3,0A3,3 0 1,1 0,-3A3,3 0 0,1 3,0Z" style="opacity: 1; stroke-width: 0px; fill: rgb(0, 128, 0); fill-opacity: 1;"/><path class="point" transform="translate(104.71,169.65)" d="M3,0A3,3 0 1,1 0,-3A3,3 0 0,1 3,0Z" style="opacity: 1; stroke-width: 0px; fill: rgb(0, 128, 0); fill-opacity: 1;"/><path class="point" transform="translate(104.42,166.68)" d="M3,0A3,3 0 1,1 0,-3A3,3 0 0,1 3,0Z" style="opacity: 1; stroke-width: 0px; fill: rgb(0, 128, 0); fill-opacity: 1;"/><path class="point" transform="translate(105.21,150.68)" d="M3,0A3,3 0 1,1 0,-3A3,3 0 0,1 3,0Z" style="opacity: 1; stroke-width: 0px; fill: rgb(0, 128, 0); fill-opacity: 1;"/><path class="point" transform="translate(104.62,148.82)" d="M3,0A3,3 0 1,1 0,-3A3,3 0 0,1 3,0Z" style="opacity: 1; stroke-width: 0px; fill: rgb(0, 128, 0); fill-opacity: 1;"/><path class="point" transform="translate(104.09,146.88)" d="M3,0A3,3 0 1,1 0,-3A3,3 0 0,1 3,0Z" style="opacity: 1; stroke-width: 0px; fill: rgb(0, 128, 0); fill-opacity: 1;"/><path class="point" transform="translate(103.82,143.63)" d="M3,0A3,3 0 1,1 0,-3A3,3 0 0,1 3,0Z" style="opacity: 1; stroke-width: 0px; fill: rgb(0, 128, 0); fill-opacity: 1;"/><path class="point" transform="translate(105.22,143.41)" d="M3,0A3,3 0 1,1 0,-3A3,3 0 0,1 3,0Z" style="opacity: 1; stroke-width: 0px; fill: rgb(0, 128, 0); fill-opacity: 1;"/><path class="point" transform="translate(103.8,142.01)" d="M3,0A3,3 0 1,1 0,-3A3,3 0 0,1 3,0Z" style="opacity: 1; stroke-width: 0px; fill: rgb(0, 128, 0); fill-opacity: 1;"/><path class="point" transform="translate(105.35,139.3)" d="M3,0A3,3 0 1,1 0,-3A3,3 0 0,1 3,0Z" style="opacity: 1; stroke-width: 0px; fill: rgb(0, 128, 0); fill-opacity: 1;"/><path class="point" transform="translate(104.95,131.71)" d="M3,0A3,3 0 1,1 0,-3A3,3 0 0,1 3,0Z" style="opacity: 1; stroke-width: 0px; fill: rgb(0, 128, 0); fill-opacity: 1;"/><path class="point" transform="translate(104.45,130.62)" d="M3,0A3,3 0 1,1 0,-3A3,3 0 0,1 3,0Z" style="opacity: 1; stroke-width: 0px; fill: rgb(0, 128, 0); fill-opacity: 1;"/><path class="point" transform="translate(104.21,121.41)" d="M3,0A3,3 0 1,1 0,-3A3,3 0 0,1 3,0Z" style="opacity: 1; stroke-width: 0px; fill: rgb(0, 128, 0); fill-opacity: 1;"/><path class="point" transform="translate(105.08,119.24)" d="M3,0A3,3 0 1,1 0,-3A3,3 0 0,1 3,0Z" style="opacity: 1; stroke-width: 0px; fill: rgb(0, 128, 0); fill-opacity: 1;"/><path class="point" transform="translate(104.63,117.07)" d="M3,0A3,3 0 1,1 0,-3A3,3 0 0,1 3,0Z" style="opacity: 1; stroke-width: 0px; fill: rgb(0, 128, 0); fill-opacity: 1;"/><path class="point" transform="translate(105.27,114.91)" d="M3,0A3,3 0 1,1 0,-3A3,3 0 0,1 3,0Z" style="opacity: 1; stroke-width: 0px; fill: rgb(0, 128, 0); fill-opacity: 1;"/><path class="point" transform="translate(104.09,98.1)" d="M3,0A3,3 0 1,1 0,-3A3,3 0 0,1 3,0Z" style="opacity: 1; stroke-width: 0px; fill: rgb(0, 128, 0); fill-opacity: 1;"/></g></g><g class="trace violins" style="opacity: 1;"><path class="violin" d="M201.99,258.6Q202.33,254.86 202.6,253C202.87,251.13 203.19,249.27 203.61,247.41C204.03,245.53 204.54,243.66 205.13,241.81C205.72,239.93 206.41,238.06 207.16,236.21C207.92,234.33 208.78,232.47 209.65,230.61C210.52,228.74 211.47,226.88 212.38,225.01C213.29,223.14 214.24,221.28 215.11,219.41C215.98,217.55 216.82,215.69 217.6,213.81C218.37,211.95 219.08,210.09 219.74,208.21C220.39,206.35 220.97,204.48 221.52,202.61C222.07,200.75 222.56,198.88 223.06,197.01C223.55,195.15 224.02,193.28 224.49,191.41C224.95,189.54 225.42,187.68 225.85,185.81C226.28,183.95 226.72,182.08 227.07,180.21C227.42,178.35 227.76,176.48 227.95,174.61C228.14,172.75 228.27,170.87 228.23,169.01C228.19,167.14 228.01,165.27 227.71,163.42C227.4,161.54 226.93,159.67 226.38,157.82C225.82,155.94 225.09,154.08 224.36,152.22C223.62,150.34 222.76,148.48 221.95,146.62C221.13,144.75 220.27,142.89 219.47,141.02C218.67,139.16 217.89,137.29 217.16,135.42C216.44,133.56 215.77,131.69 215.13,129.82C214.5,127.96 213.91,126.09 213.35,124.22C212.79,122.36 212.27,120.49 211.77,118.62C211.27,116.76 210.79,114.89 210.34,113.02C209.89,111.16 209.47,109.29 209.08,107.42C208.69,105.56 208.33,103.69 207.99,101.82C207.66,99.96 207.36,98.09 207.07,96.22C206.78,94.35 206.51,92.49 206.24,90.62C205.97,88.75 205.71,86.89 205.44,85.02C205.17,83.15 204.9,81.29 204.63,79.42C204.36,77.56 204.08,75.69 203.82,73.83C203.56,71.96 203.31,70.1 203.08,68.23C202.85,66.36 202.64,64.5 202.46,62.63C202.28,60.76 202.14,58.9 202.01,57.03Q201.89,55.16 201.71,51.43L201.04,51.43Q200.86,55.16 200.74,57.03C200.61,58.9 200.47,60.76 200.29,62.63C200.11,64.5 199.9,66.36 199.67,68.23C199.44,70.1 199.19,71.96 198.93,73.83C198.67,75.69 198.39,77.56 198.12,79.42C197.85,81.29 197.58,83.15 197.31,85.02C197.04,86.89 196.78,88.75 196.51,90.62C196.24,92.49 195.97,94.35 195.68,96.22C195.39,98.09 195.09,99.96 194.76,101.82C194.42,103.69 194.06,105.56 193.67,107.42C193.28,109.29 192.86,111.16 192.41,113.02C191.96,114.89 191.48,116.76 190.98,118.62C190.48,120.49 189.96,122.36 189.4,124.22C188.84,126.09 188.25,127.96 187.62,129.82C186.98,131.69 186.31,133.56 185.59,135.42C184.86,137.29 184.08,139.16 183.28,141.02C182.48,142.89 181.62,144.75 180.8,146.62C179.99,148.48 179.13,150.34 178.39,152.22C177.66,154.08 176.93,155.94 176.37,157.82C175.82,159.67 175.35,161.54 175.04,163.42C174.74,165.27 174.57,167.14 174.53,169.01C174.49,170.87 174.61,172.75 174.8,174.61C174.99,176.48 175.33,178.35 175.68,180.21C176.03,182.08 176.47,183.95 176.9,185.81C177.33,187.68 177.8,189.54 178.26,191.41C178.73,193.28 179.2,195.15 179.69,197.01C180.19,198.88 180.68,200.75 181.23,202.61C181.78,204.48 182.36,206.35 183.01,208.21C183.67,210.09 184.38,211.95 185.15,213.81C185.93,215.69 186.77,217.55 187.64,219.41C188.51,221.28 189.46,223.14 190.37,225.01C191.28,226.88 192.23,228.74 193.1,230.61C193.97,232.47 194.83,234.33 195.59,236.21C196.34,238.06 197.03,239.93 197.62,241.81C198.21,243.66 198.72,245.53 199.14,247.41C199.56,249.27 199.88,251.13 200.15,253Q200.42,254.86 200.76,258.6Z" style="vector-effect: non-scaling-stroke; stroke-width: 2px; stroke: rgb(0, 128, 128); stroke-opacity: 1; fill: rgb(0, 128, 128); fill-opacity: 0.5;"/><path class="box" d="M194.66,167.75H208.09M194.66,194.94H208.09V149.02H194.66ZM201.38,194.94V224.13M201.38,149.02V85.9" style="vector-effect: non-scaling-stroke; stroke-width: 2px; stroke: rgb(0, 128, 128); stroke-opacity: 1; fill: rgb(0, 128, 128); fill-opacity: 0.5;"/><path class="mean" d="M194.66,168H208.09" style="fill: none; vector-effect: non-scaling-stroke; stroke-width: 2px; stroke-dasharray: 4px, 2px; stroke: rgb(0, 128, 128); stroke-opacity: 1;"/><g class="points"><path class="point" transform="translate(239.47,224.13)" d="M3,0A3,3 0 1,1 0,-3A3,3 0 0,1 3,0Z" style="opacity: 1; stroke-width: 0px; fill: rgb(0, 128, 128); fill-opacity: 1;"/><path class="point" transform="translate(238.29,222.43)" d="M3,0A3,3 0 1,1 0,-3A3,3 0 0,1 3,0Z" style="opacity: 1; stroke-width: 0px; fill: rgb(0, 128, 128); fill-opacity: 1;"/><path class="point" transform="translate(239.72,219.12)" d="M3,0A3,3 0 1,1 0,-3A3,3 0 0,1 3,0Z" style="opacity: 1; stroke-width: 0px; fill: rgb(0, 128, 128); fill-opacity: 1;"/><path class="point" transform="translate(238.1,212.31)" d="M3,0A3,3 0 1,1 0,-3A3,3 0 0,1 3,0Z" style="opacity: 1; stroke-width: 0px; fill: rgb(0, 128, 128); fill-opacity: 1;"/><path class="point" transform="translate(238.72,210.89)" d="M3,0A3,3 0 1,1 0,-3A3,3 0 0,1 3,0Z" style="opacity: 1; stroke-width: 0px; fill: rgb(0, 128, 128); fill-opacity: 1;"/><path class="point" transform="translate(239.47,208.67)" d="M3,0A3,3 0 1,1 0,-3A3,3 0 0,1 3,0Z" style="opacity: 1; stroke-width: 0px; fill: rgb(0, 128, 128); fill-opacity: 1;"/><path class="point" transform="translate(238.93,208.3)" d="M3,0A3,3 0 1,1 0,-3A3,3 0 0,1 3,0Z" style="opacity: 1; stroke-width: 0px; fill: rgb(0, 128, 128); fill-opacity: 1;"/><path class="point" transform="translate(239.24,202.38)" d="M3,0A3,3 0 1,1 0,-3A3,3 0 0,1 3,0Z" style="opacity: 1; stroke-width: 0px; fill: rgb(0, 128, 128); fill-opacity: 1;"/><path class="point" transform="translate(238.63,201.35)" d="M3,0A3,3 0 1,1 0,-3A3,3 0 0,1 3,0Z" style="opacity: 1; stroke-width: 0px; fill: rgb(0, 128, 128); fill-opacity: 1;"/><path class="point" transform="translate(238.24,198.06)" d="M3,0A3,3 0 1,1 0,-3A3,3 0 0,1 3,0Z" style="opacity: 1; stroke-width: 0px; fill: rgb(0, 128, 128); fill-opacity: 1;"/><path class="point" transform="translate(239.23,191.82)" d="M3,0A3,3 0 1,1 0,-3A3,3 0 0,1 3,0Z" style="opacity: 1; stroke-width: 0px; fill: rgb(0, 128, 128); fill-opacity: 1;"/><path class="point" transform="translate(238.64,189.76)" d="M3,0A3,3 0 1,1 0,-3A3,3 0 0,1 3,0Z" style="opacity: 1; stroke-width: 0px; fill: rgb(0, 128, 128); fill-opacity: 1;"/><path class="point" transform="translate(239.66,186.33)" d="M3,0A3,3 0 1,1 0,-3A3,3 0 0,1 3,0Z" style="opacity: 1; stroke-width: 0px; fill: rgb(0, 128, 128); fill-opacity: 1;"/><path class="point" transform="translate(238.04,184.97)" d="M3,0A3,3 0 1,1 0,-3A3,3 0 0,1 3,0Z" style="opacity: 1; stroke-width: 0px; fill: rgb(0, 128, 128); fill-opacity: 1;"/><path class="point" transform="translate(238.39,180.18)" d="M3,0A3,3 0 1,1 0,-3A3,3 0 0,1 3,0Z" style="opacity: 1; stroke-width: 0px; fill: rgb(0, 128, 128); fill-opacity: 1;"/><path class="point" transform="translate(239.94,178.84)" d="M3,0A3,3 0 1,1 0,-3A3,3 0 0,1 3,0Z" style="opacity: 1; stroke-width: 0px; fill: rgb(0, 128, 128); fill-opacity: 1;"/><path class="point" transform="translate(238.68,178.18)" d="M3,0A3,3 0 1,1 0,-3A3,3 0 0,1 3,0Z" style="opacity: 1; stroke-width: 0px; fill: rgb(0, 128, 128); fill-opacity: 1;"/><path class="point" transform="translate(237.94,177.8)" d="M3,0A3,3 0 1,1 0,-3A3,3 0 0,1 3,0Z" style="opacity: 1; stroke-width: 0px; fill: rgb(0, 128, 128); fill-opacity: 1;"/><path class="point" transform="translate(238.58,168.28)" d="M3,0A3,3 0 1,1 0,-3A3,3 0 0,1 3,0Z" style="opacity: 1; stroke-width: 0px; fill: rgb(0, 128, 128); fill-opacity: 1;"/><path class="point" transform="translate(238.94,168.11)" d="M3,0A3,3 0 1,1 0,-3A3,3 0 0,1 3,0Z" style="opacity: 1; stroke-width: 0px; fill: rgb(0, 128, 128); fill-opacity: 1;"/><path class="point" transform="translate(239.55,167.39)" d="M3,0A3,3 0 1,1 0,-3A3,3 0 0,1 3,0Z" style="opacity: 1; stroke-width: 0px; fill: rgb(0, 128, 128); fill-opacity: 1;"/><path class="point" transform="translate(239.1,167.24)" d="M3,0A3,3 0 1,1 0,-3A3,3 0 0,1 3,0Z" style="opacity: 1; stroke-width: 0px; fill: rgb(0, 128, 128); fill-opacity: 1;"/><path class="point" transform="translate(238.64,165.58)" d="M3,0A3,3 0 1,1 0,-3A3,3 0 0,1 3,0Z" style="opacity: 1; stroke-width: 0px; fill: rgb(0, 128, 128); fill-opacity: 1;"/><path class="point" transform="translate(237.84,162.81)" d="M3,0A3,3 0 1,1 0,-3A3,3 0 0,1 3,0Z" style="opacity: 1; stroke-width: 0px; fill: rgb(0, 128, 128); fill-opacity: 1;"/><path class="point" transform="translate(238.96,161.68)" d="M3,0A3,3 0 1,1 0,-3A3,3 0 0,1 3,0Z" style="opacity: 1; stroke-width: 0px; fill: rgb(0, 128, 128); fill-opacity: 1;"/><path class="point" transform="translate(238.59,161.06)" d="M3,0A3,3 0 1,1 0,-3A3,3 0 0,1 3,0Z" style="opacity: 1; stroke-width: 0px; fill: rgb(0, 128, 128); fill-opacity: 1;"/><path class="point" transform="translate(239.49,156.64)" d="M3,0A3,3 0 1,1 0,-3A3,3 0 0,1 3,0Z" style="opacity: 1; stroke-width: 0px; fill: rgb(0, 128, 128); fill-opacity: 1;"/><path class="point" transform="translate(238.87,155.35)" d="M3,0A3,3 0 1,1 0,-3A3,3 0 0,1 3,0Z" style="opacity: 1; stroke-width: 0px; fill: rgb(0, 128, 128); fill-opacity: 1;"/><path class="point" transform="translate(238.35,151.74)" d="M3,0A3,3 0 1,1 0,-3A3,3 0 0,1 3,0Z" style="opacity: 1; stroke-width: 0px; fill: rgb(0, 128, 128); fill-opacity: 1;"/><path class="point" transform="translate(238.15,149.1)" d="M3,0A3,3 0 1,1 0,-3A3,3 0 0,1 3,0Z" style="opacity: 1; stroke-width: 0px; fill: rgb(0, 128, 128); fill-opacity: 1;"/><path class="point" transform="translate(239.46,148.93)" d="M3,0A3,3 0 1,1 0,-3A3,3 0 0,1 3,0Z" style="opacity: 1; stroke-width: 0px; fill: rgb(0, 128, 128); fill-opacity: 1;"/><path class="point" transform="translate(238.17,143.56)" d="M3,0A3,3 0 1,1 0,-3A3,3 0 0,1 3,0Z" style="opacity: 1; stroke-width: 0px; fill: rgb(0, 128, 128); fill-opacity: 1;"/><path class="point" transform="translate(239.44,136.87)" d="M3,0A3,3 0 1,1 0,-3A3,3 0 0,1 3,0Z" style="opacity: 1; stroke-width: 0px; fill: rgb(0, 128, 128); fill-opacity: 1;"/><path class="point" transform="translate(239.12,129.51)" d="M3,0A3,3 0 1,1 0,-3A3,3 0 0,1 3,0Z" style="opacity: 1; stroke-width: 0px; fill: rgb(0, 128, 128); fill-opacity: 1;"/><path class="point" transform="translate(238.76,122.69)" d="M3,0A3,3 0 1,1 0,-3A3,3 0 0,1 3,0Z" style="opacity: 1; stroke-width: 0px; fill: rgb(0, 128, 128); fill-opacity: 1;"/><path class="point" transform="translate(238.58,121.9)" d="M3,0A3,3 0 1,1 0,-3A3,3 0 0,1 3,0Z" style="opacity: 1; stroke-width: 0px; fill: rgb(0, 128, 128); fill-opacity: 1;"/><path class="point" transform="translate(239.26,121.86)" d="M3,0A3,3 0 1,1 0,-3A3,3 0 0,1 3,0Z" style="opacity: 1; stroke-width: 0px; fill: rgb(0, 128, 128); fill-opacity: 1;"/><path class="point" transform="translate(238.9,108.24)" d="M3,0A3,3 0 1,1 0,-3A3,3 0 0,1 3,0Z" style="opacity: 1; stroke-width: 0px; fill: rgb(0, 128, 128); fill-opacity: 1;"/><path class="point" transform="translate(239.4,89.88)" d="M3,0A3,3 0 1,1 0,-3A3,3 0 0,1 3,0Z" style="opacity: 1; stroke-width: 0px; fill: rgb(0, 128, 128); fill-opacity: 1;"/><path class="point" transform="translate(238.43,85.9)" d="M3,0A3,3 0 1,1 0,-3A3,3 0 0,1 3,0Z" style="opacity: 1; stroke-width: 0px; fill: rgb(0, 128, 128); fill-opacity: 1;"/></g></g><g class="trace violins" style="opacity: 1;"><path class="violin" d="M335.84,313.68Q335.96,308.87 336.05,306.47C336.14,304.06 336.25,301.65 336.4,299.25C336.55,296.84 336.71,294.44 336.93,292.04C337.15,289.63 337.4,287.23 337.7,284.83C338.01,282.42 338.35,280.01 338.76,277.61C339.17,275.2 339.63,272.8 340.16,270.4C340.69,267.99 341.29,265.59 341.95,263.19C342.62,260.78 343.36,258.37 344.14,255.97C344.93,253.56 345.8,251.16 346.67,248.76C347.54,246.35 348.47,243.96 349.35,241.55C350.22,239.15 351.13,236.75 351.92,234.33C352.7,231.94 353.47,229.54 354.07,227.12C354.67,224.73 355.18,222.32 355.53,219.91C355.88,217.51 356.09,215.1 356.17,212.69C356.25,210.29 356.18,207.88 356.04,205.48C355.9,203.07 355.62,200.67 355.34,198.27C355.06,195.86 354.68,193.46 354.34,191.05C354.01,188.65 353.64,186.25 353.33,183.84C353.02,181.44 352.73,179.04 352.48,176.63C352.23,174.23 352.04,171.82 351.85,169.41C351.66,167.01 351.5,164.6 351.33,162.2C351.15,159.8 351,157.39 350.8,154.99C350.59,152.58 350.37,150.17 350.1,147.77C349.83,145.36 349.52,142.96 349.18,140.56C348.84,138.15 348.45,135.75 348.04,133.35C347.63,130.94 347.19,128.53 346.74,126.13C346.29,123.72 345.81,121.32 345.32,118.92C344.83,116.52 344.32,114.11 343.82,111.71C343.31,109.31 342.79,106.9 342.29,104.5C341.79,102.09 341.28,99.69 340.8,97.28C340.32,94.88 339.84,92.48 339.41,90.07C338.98,87.67 338.58,85.27 338.22,82.86C337.87,80.46 337.55,78.05 337.28,75.64C337.01,73.24 336.79,70.83 336.6,68.43C336.41,66.03 336.27,63.62 336.15,61.22Q336.03,58.81 335.89,54L335.36,54Q335.22,58.81 335.1,61.22C334.98,63.62 334.84,66.03 334.65,68.43C334.46,70.83 334.24,73.24 333.97,75.64C333.7,78.05 333.38,80.46 333.03,82.86C332.67,85.27 332.27,87.67 331.84,90.07C331.41,92.48 330.93,94.88 330.45,97.28C329.97,99.69 329.46,102.09 328.96,104.5C328.46,106.9 327.94,109.31 327.43,111.71C326.93,114.11 326.42,116.52 325.93,118.92C325.44,121.32 324.96,123.72 324.51,126.13C324.06,128.53 323.62,130.94 323.21,133.35C322.8,135.75 322.41,138.15 322.07,140.56C321.73,142.96 321.42,145.36 321.15,147.77C320.88,150.17 320.66,152.58 320.45,154.99C320.25,157.39 320.1,159.8 319.92,162.2C319.75,164.6 319.59,167.01 319.4,169.41C319.21,171.82 319.02,174.23 318.77,176.63C318.52,179.04 318.23,181.44 317.92,183.84C317.61,186.25 317.24,188.65 316.91,191.05C316.57,193.46 316.19,195.86 315.91,198.27C315.63,200.67 315.35,203.07 315.21,205.48C315.07,207.88 315,210.29 315.08,212.69C315.16,215.1 315.37,217.51 315.72,219.91C316.07,222.32 316.58,224.73 317.18,227.12C317.78,229.54 318.55,231.94 319.33,234.33C320.12,236.75 321.03,239.15 321.9,241.55C322.78,243.96 323.71,246.35 324.58,248.76C325.45,251.16 326.32,253.56 327.11,255.97C327.89,258.37 328.63,260.78 329.3,263.19C329.96,265.59 330.56,267.99 331.09,270.4C331.62,272.8 332.08,275.2 332.49,277.61C332.9,280.01 333.24,282.42 333.55,284.83C333.85,287.23 334.1,289.63 334.32,292.04C334.54,294.44 334.7,296.84 334.85,299.25C335,301.65 335.11,304.06 335.2,306.47Q335.29,308.87 335.41,313.68Z" style="vector-effect: non-scaling-stroke; stroke-width: 2px; stroke: rgb(139, 0, 0); stroke-opacity: 1; fill: rgb(139, 0, 0); fill-opacity: 0.5;"/><path class="box" d="M328.91,192.69H342.34M328.91,220.03H342.34V150.88H328.91ZM335.63,220.03V269.56M335.63,150.88V98.12" style="vector-effect: non-scaling-stroke; stroke-width: 2px; stroke: rgb(139, 0, 0); stroke-opacity: 1; fill: rgb(139, 0, 0); fill-opacity: 0.5;"/><path class="mean" d="M328.91,186.36H342.34" style="fill: none; vector-effect: non-scaling-stroke; stroke-width: 2px; stroke-dasharray: 4px, 2px; stroke: rgb(139, 0, 0); stroke-opacity: 1;"/><g class="points"><path class="point" transform="translate(373.61,269.56)" d="M3,0A3,3 0 1,1 0,-3A3,3 0 0,1 3,0Z" style="opacity: 1; stroke-width: 0px; fill: rgb(139, 0, 0); fill-opacity: 1;"/><path class="point" transform="translate(372.72,257.12)" d="M3,0A3,3 0 1,1 0,-3A3,3 0 0,1 3,0Z" style="opacity: 1; stroke-width: 0px; fill: rgb(139, 0, 0); fill-opacity: 1;"/><path class="point" transform="translate(373.85,240.17)" d="M3,0A3,3 0 1,1 0,-3A3,3 0 0,1 3,0Z" style="opacity: 1; stroke-width: 0px; fill: rgb(139, 0, 0); fill-opacity: 1;"/><path class="point" transform="translate(372.49,237.67)" d="M3,0A3,3 0 1,1 0,-3A3,3 0 0,1 3,0Z" style="opacity: 1; stroke-width: 0px; fill: rgb(139, 0, 0); fill-opacity: 1;"/><path class="point" transform="translate(373,234.97)" d="M3,0A3,3 0 1,1 0,-3A3,3 0 0,1 3,0Z" style="opacity: 1; stroke-width: 0px; fill: rgb(139, 0, 0); fill-opacity: 1;"/><path class="point" transform="translate(373.68,233.82)" d="M3,0A3,3 0 1,1 0,-3A3,3 0 0,1 3,0Z" style="opacity: 1; stroke-width: 0px; fill: rgb(139, 0, 0); fill-opacity: 1;"/><path class="point" transform="translate(373.18,229.55)" d="M3,0A3,3 0 1,1 0,-3A3,3 0 0,1 3,0Z" style="opacity: 1; stroke-width: 0px; fill: rgb(139, 0, 0); fill-opacity: 1;"/><path class="point" transform="translate(373.56,227.07)" d="M3,0A3,3 0 1,1 0,-3A3,3 0 0,1 3,0Z" style="opacity: 1; stroke-width: 0px; fill: rgb(139, 0, 0); fill-opacity: 1;"/><path class="point" transform="translate(372.83,225.15)" d="M3,0A3,3 0 1,1 0,-3A3,3 0 0,1 3,0Z" style="opacity: 1; stroke-width: 0px; fill: rgb(139, 0, 0); fill-opacity: 1;"/><path class="point" transform="translate(372.29,222.25)" d="M3,0A3,3 0 1,1 0,-3A3,3 0 0,1 3,0Z" style="opacity: 1; stroke-width: 0px; fill: rgb(139, 0, 0); fill-opacity: 1;"/><path class="point" transform="translate(373.55,217.81)" d="M3,0A3,3 0 1,1 0,-3A3,3 0 0,1 3,0Z" style="opacity: 1; stroke-width: 0px; fill: rgb(139, 0, 0); fill-opacity: 1;"/><path class="point" transform="translate(372.77,217.34)" d="M3,0A3,3 0 1,1 0,-3A3,3 0 0,1 3,0Z" style="opacity: 1; stroke-width: 0px; fill: rgb(139, 0, 0); fill-opacity: 1;"/><path class="point" transform="translate(374.04,212.19)" d="M3,0A3,3 0 1,1 0,-3A3,3 0 0,1 3,0Z" style="opacity: 1; stroke-width: 0px; fill: rgb(139, 0, 0); fill-opacity: 1;"/><path class="point" transform="translate(372,209.41)" d="M3,0A3,3 0 1,1 0,-3A3,3 0 0,1 3,0Z" style="opacity: 1; stroke-width: 0px; fill: rgb(139, 0, 0); fill-opacity: 1;"/><path class="point" transform="translate(372.5,209.17)" d="M3,0A3,3 0 1,1 0,-3A3,3 0 0,1 3,0Z" style="opacity: 1; stroke-width: 0px; fill: rgb(139, 0, 0); fill-opacity: 1;"/><path class="point" transform="translate(374.29,208.53)" d="M3,0A3,3 0 1,1 0,-3A3,3 0 0,1 3,0Z" style="opacity: 1; stroke-width: 0px; fill: rgb(139, 0, 0); fill-opacity: 1;"/><path class="point" transform="translate(372.91,206.94)" d="M3,0A3,3 0 1,1 0,-3A3,3 0 0,1 3,0Z" style="opacity: 1; stroke-width: 0px; fill: rgb(139, 0, 0); fill-opacity: 1;"/><path class="point" transform="translate(372.24,203.01)" d="M3,0A3,3 0 1,1 0,-3A3,3 0 0,1 3,0Z" style="opacity: 1; stroke-width: 0px; fill: rgb(139, 0, 0); fill-opacity: 1;"/><path class="point" transform="translate(372.83,199.09)" d="M3,0A3,3 0 1,1 0,-3A3,3 0 0,1 3,0Z" style="opacity: 1; stroke-width: 0px; fill: rgb(139, 0, 0); fill-opacity: 1;"/><path class="point" transform="translate(373.19,195.23)" d="M3,0A3,3 0 1,1 0,-3A3,3 0 0,1 3,0Z" style="opacity: 1; stroke-width: 0px; fill: rgb(139, 0, 0); fill-opacity: 1;"/><path class="point" transform="translate(373.67,190.15)" d="M3,0A3,3 0 1,1 0,-3A3,3 0 0,1 3,0Z" style="opacity: 1; stroke-width: 0px; fill: rgb(139, 0, 0); fill-opacity: 1;"/><path class="point" transform="translate(373.32,189.75)" d="M3,0A3,3 0 1,1 0,-3A3,3 0 0,1 3,0Z" style="opacity: 1; stroke-width: 0px; fill: rgb(139, 0, 0); fill-opacity: 1;"/><path class="point" transform="translate(372.94,180.66)" d="M3,0A3,3 0 1,1 0,-3A3,3 0 0,1 3,0Z" style="opacity: 1; stroke-width: 0px; fill: rgb(139, 0, 0); fill-opacity: 1;"/><path class="point" transform="translate(372.42,178.81)" d="M3,0A3,3 0 1,1 0,-3A3,3 0 0,1 3,0Z" style="opacity: 1; stroke-width: 0px; fill: rgb(139, 0, 0); fill-opacity: 1;"/><path class="point" transform="translate(373.21,178.01)" d="M3,0A3,3 0 1,1 0,-3A3,3 0 0,1 3,0Z" style="opacity: 1; stroke-width: 0px; fill: rgb(139, 0, 0); fill-opacity: 1;"/><path class="point" transform="translate(372.92,168.6)" d="M3,0A3,3 0 1,1 0,-3A3,3 0 0,1 3,0Z" style="opacity: 1; stroke-width: 0px; fill: rgb(139, 0, 0); fill-opacity: 1;"/><path class="point" transform="translate(373.68,161.77)" d="M3,0A3,3 0 1,1 0,-3A3,3 0 0,1 3,0Z" style="opacity: 1; stroke-width: 0px; fill: rgb(139, 0, 0); fill-opacity: 1;"/><path class="point" transform="translate(373.11,159.22)" d="M3,0A3,3 0 1,1 0,-3A3,3 0 0,1 3,0Z" style="opacity: 1; stroke-width: 0px; fill: rgb(139, 0, 0); fill-opacity: 1;"/><path class="point" transform="translate(372.58,154.52)" d="M3,0A3,3 0 1,1 0,-3A3,3 0 0,1 3,0Z" style="opacity: 1; stroke-width: 0px; fill: rgb(139, 0, 0); fill-opacity: 1;"/><path class="point" transform="translate(372.31,150.92)" d="M3,0A3,3 0 1,1 0,-3A3,3 0 0,1 3,0Z" style="opacity: 1; stroke-width: 0px; fill: rgb(139, 0, 0); fill-opacity: 1;"/><path class="point" transform="translate(373.75,150.84)" d="M3,0A3,3 0 1,1 0,-3A3,3 0 0,1 3,0Z" style="opacity: 1; stroke-width: 0px; fill: rgb(139, 0, 0); fill-opacity: 1;"/><path class="point" transform="translate(372.36,149.59)" d="M3,0A3,3 0 1,1 0,-3A3,3 0 0,1 3,0Z" style="opacity: 1; stroke-width: 0px; fill: rgb(139, 0, 0); fill-opacity: 1;"/><path class="point" transform="translate(373.79,149.08)" d="M3,0A3,3 0 1,1 0,-3A3,3 0 0,1 3,0Z" style="opacity: 1; stroke-width: 0px; fill: rgb(139, 0, 0); fill-opacity: 1;"/><path class="point" transform="translate(373.42,135.63)" d="M3,0A3,3 0 1,1 0,-3A3,3 0 0,1 3,0Z" style="opacity: 1; stroke-width: 0px; fill: rgb(139, 0, 0); fill-opacity: 1;"/><path class="point" transform="translate(372.95,134.78)" d="M3,0A3,3 0 1,1 0,-3A3,3 0 0,1 3,0Z" style="opacity: 1; stroke-width: 0px; fill: rgb(139, 0, 0); fill-opacity: 1;"/><path class="point" transform="translate(372.72,122.71)" d="M3,0A3,3 0 1,1 0,-3A3,3 0 0,1 3,0Z" style="opacity: 1; stroke-width: 0px; fill: rgb(139, 0, 0); fill-opacity: 1;"/><path class="point" transform="translate(373.57,121.48)" d="M3,0A3,3 0 1,1 0,-3A3,3 0 0,1 3,0Z" style="opacity: 1; stroke-width: 0px; fill: rgb(139, 0, 0); fill-opacity: 1;"/><path class="point" transform="translate(373.13,115.77)" d="M3,0A3,3 0 1,1 0,-3A3,3 0 0,1 3,0Z" style="opacity: 1; stroke-width: 0px; fill: rgb(139, 0, 0); fill-opacity: 1;"/><path class="point" transform="translate(373.77,108.05)" d="M3,0A3,3 0 1,1 0,-3A3,3 0 0,1 3,0Z" style="opacity: 1; stroke-width: 0px; fill: rgb(139, 0, 0); fill-opacity: 1;"/><path class="point" transform="translate(372.59,98.12)" d="M3,0A3,3 0 1,1 0,-3A3,3 0 0,1 3,0Z" style="opacity: 1; stroke-width: 0px; fill: rgb(139, 0, 0); fill-opacity: 1;"/></g></g><g class="trace violins" style="opacity: 1;"><path class="violin" d="M470.3,278.51Q470.52,274.35 470.7,272.28C470.88,270.2 471.1,268.12 471.37,266.05C471.65,263.97 471.96,261.89 472.35,259.82C472.74,257.74 473.19,255.66 473.7,253.59C474.21,251.51 474.79,249.43 475.42,247.36C476.06,245.27 476.77,243.19 477.52,241.12C478.28,239.03 479.1,236.96 479.95,234.89C480.81,232.81 481.73,230.73 482.65,228.66C483.57,226.58 484.54,224.51 485.46,222.43C486.37,220.36 487.31,218.29 488.15,216.2C488.98,214.13 489.79,212.06 490.47,209.97C491.14,207.91 491.74,205.83 492.2,203.74C492.65,201.67 493,199.59 493.22,197.5C493.44,195.43 493.52,193.35 493.5,191.27C493.48,189.19 493.33,187.11 493.11,185.04C492.89,182.96 492.54,180.88 492.18,178.81C491.82,176.73 491.36,174.66 490.95,172.58C490.54,170.5 490.09,168.43 489.72,166.35C489.35,164.28 489,162.2 488.71,160.12C488.42,158.05 488.2,155.97 488,153.89C487.8,151.81 487.66,149.73 487.49,147.65C487.32,145.57 487.18,143.49 486.96,141.42C486.74,139.34 486.5,137.26 486.17,135.19C485.84,133.11 485.44,131.03 484.98,128.96C484.51,126.88 483.96,124.8 483.37,122.73C482.78,120.65 482.12,118.57 481.45,116.5C480.78,114.42 480.05,112.35 479.35,110.27C478.65,108.19 477.94,106.12 477.27,104.04C476.6,101.96 475.95,99.89 475.35,97.8C474.76,95.73 474.2,93.65 473.71,91.57C473.22,89.5 472.79,87.42 472.41,85.34C472.03,83.27 471.72,81.19 471.45,79.11C471.18,77.04 470.96,74.96 470.78,72.88C470.6,70.81 470.47,68.73 470.36,66.65Q470.25,64.57 470.12,60.42L469.63,60.42Q469.5,64.57 469.39,66.65C469.28,68.73 469.15,70.81 468.97,72.88C468.79,74.96 468.57,77.04 468.3,79.11C468.03,81.19 467.72,83.27 467.34,85.34C466.96,87.42 466.53,89.5 466.04,91.57C465.55,93.65 464.99,95.73 464.4,97.8C463.8,99.89 463.15,101.96 462.48,104.04C461.81,106.12 461.1,108.19 460.4,110.27C459.7,112.35 458.97,114.42 458.3,116.5C457.63,118.57 456.97,120.65 456.38,122.73C455.79,124.8 455.24,126.88 454.77,128.96C454.31,131.03 453.91,133.11 453.58,135.19C453.25,137.26 453.01,139.34 452.79,141.42C452.57,143.49 452.43,145.57 452.26,147.65C452.09,149.73 451.95,151.81 451.75,153.89C451.55,155.97 451.33,158.05 451.04,160.12C450.75,162.2 450.4,164.28 450.03,166.35C449.66,168.43 449.21,170.5 448.8,172.58C448.39,174.66 447.93,176.73 447.57,178.81C447.21,180.88 446.86,182.96 446.64,185.04C446.42,187.11 446.27,189.19 446.25,191.27C446.23,193.35 446.31,195.43 446.53,197.5C446.75,199.59 447.1,201.67 447.55,203.74C448.01,205.83 448.61,207.91 449.28,209.97C449.96,212.06 450.77,214.13 451.6,216.2C452.44,218.29 453.38,220.36 454.29,222.43C455.21,224.51 456.18,226.58 457.1,228.66C458.02,230.73 458.94,232.81 459.8,234.89C460.65,236.96 461.47,239.03 462.23,241.12C462.98,243.19 463.69,245.27 464.33,247.36C464.96,249.43 465.54,251.51 466.05,253.59C466.56,255.66 467.01,257.74 467.4,259.82C467.79,261.89 468.1,263.97 468.38,266.05C468.65,268.12 468.87,270.2 469.05,272.28Q469.23,274.35 469.45,278.51Z" style="vector-effect: non-scaling-stroke; stroke-width: 2px; stroke: rgb(139, 0, 139); stroke-opacity: 1; fill: rgb(139, 0, 139); fill-opacity: 0.5;"/><path class="box" d="M463.16,181.43H476.59M463.16,206.23H476.59V143.52H463.16ZM469.88,206.23V240.83M469.88,143.52V98.1" style="vector-effect: non-scaling-stroke; stroke-width: 2px; stroke: rgb(139, 0, 139); stroke-opacity: 1; fill: rgb(139, 0, 139); fill-opacity: 0.5;"/><path class="mean" d="M463.16,174.91H476.59" style="fill: none; vector-effect: non-scaling-stroke; stroke-width: 2px; stroke-dasharray: 4px, 2px; stroke: rgb(139, 0, 139); stroke-opacity: 1;"/><g class="points"><path class="point" transform="translate(507.88,240.83)" d="M3,0A3,3 0 1,1 0,-3A3,3 0 0,1 3,0Z" style="opacity: 1; stroke-width: 0px; fill: rgb(139, 0, 139); fill-opacity: 1;"/><path class="point" transform="translate(506.91,239.02)" d="M3,0A3,3 0 1,1 0,-3A3,3 0 0,1 3,0Z" style="opacity: 1; stroke-width: 0px; fill: rgb(139, 0, 139); fill-opacity: 1;"/><path class="point" transform="translate(508.16,231.08)" d="M3,0A3,3 0 1,1 0,-3A3,3 0 0,1 3,0Z" style="opacity: 1; stroke-width: 0px; fill: rgb(139, 0, 139); fill-opacity: 1;"/><path class="point" transform="translate(506.68,217.55)" d="M3,0A3,3 0 1,1 0,-3A3,3 0 0,1 3,0Z" style="opacity: 1; stroke-width: 0px; fill: rgb(139, 0, 139); fill-opacity: 1;"/><path class="point" transform="translate(507.23,216.26)" d="M3,0A3,3 0 1,1 0,-3A3,3 0 0,1 3,0Z" style="opacity: 1; stroke-width: 0px; fill: rgb(139, 0, 139); fill-opacity: 1;"/><path class="point" transform="translate(508,213.01)" d="M3,0A3,3 0 1,1 0,-3A3,3 0 0,1 3,0Z" style="opacity: 1; stroke-width: 0px; fill: rgb(139, 0, 139); fill-opacity: 1;"/><path class="point" transform="translate(507.43,212.68)" d="M3,0A3,3 0 1,1 0,-3A3,3 0 0,1 3,0Z" style="opacity: 1; stroke-width: 0px; fill: rgb(139, 0, 139); fill-opacity: 1;"/><path class="point" transform="translate(507.79,209.44)" d="M3,0A3,3 0 1,1 0,-3A3,3 0 0,1 3,0Z" style="opacity: 1; stroke-width: 0px; fill: rgb(139, 0, 139); fill-opacity: 1;"/><path class="point" transform="translate(507.09,207.05)" d="M3,0A3,3 0 1,1 0,-3A3,3 0 0,1 3,0Z" style="opacity: 1; stroke-width: 0px; fill: rgb(139, 0, 139); fill-opacity: 1;"/><path class="point" transform="translate(506.6,206.5)" d="M3,0A3,3 0 1,1 0,-3A3,3 0 0,1 3,0Z" style="opacity: 1; stroke-width: 0px; fill: rgb(139, 0, 139); fill-opacity: 1;"/><path class="point" transform="translate(507.78,205.96)" d="M3,0A3,3 0 1,1 0,-3A3,3 0 0,1 3,0Z" style="opacity: 1; stroke-width: 0px; fill: rgb(139, 0, 139); fill-opacity: 1;"/><path class="point" transform="translate(507.08,203.79)" d="M3,0A3,3 0 1,1 0,-3A3,3 0 0,1 3,0Z" style="opacity: 1; stroke-width: 0px; fill: rgb(139, 0, 139); fill-opacity: 1;"/><path class="point" transform="translate(508.25,201.86)" d="M3,0A3,3 0 1,1 0,-3A3,3 0 0,1 3,0Z" style="opacity: 1; stroke-width: 0px; fill: rgb(139, 0, 139); fill-opacity: 1;"/><path class="point" transform="translate(506.22,191.04)" d="M3,0A3,3 0 1,1 0,-3A3,3 0 0,1 3,0Z" style="opacity: 1; stroke-width: 0px; fill: rgb(139, 0, 139); fill-opacity: 1;"/><path class="point" transform="translate(506.75,190.5)" d="M3,0A3,3 0 1,1 0,-3A3,3 0 0,1 3,0Z" style="opacity: 1; stroke-width: 0px; fill: rgb(139, 0, 139); fill-opacity: 1;"/><path class="point" transform="translate(508.5,186.99)" d="M3,0A3,3 0 1,1 0,-3A3,3 0 0,1 3,0Z" style="opacity: 1; stroke-width: 0px; fill: rgb(139, 0, 139); fill-opacity: 1;"/><path class="point" transform="translate(507.19,186.71)" d="M3,0A3,3 0 1,1 0,-3A3,3 0 0,1 3,0Z" style="opacity: 1; stroke-width: 0px; fill: rgb(139, 0, 139); fill-opacity: 1;"/><path class="point" transform="translate(506.52,186.17)" d="M3,0A3,3 0 1,1 0,-3A3,3 0 0,1 3,0Z" style="opacity: 1; stroke-width: 0px; fill: rgb(139, 0, 139); fill-opacity: 1;"/><path class="point" transform="translate(507.02,185.08)" d="M3,0A3,3 0 1,1 0,-3A3,3 0 0,1 3,0Z" style="opacity: 1; stroke-width: 0px; fill: rgb(139, 0, 139); fill-opacity: 1;"/><path class="point" transform="translate(507.44,183.2)" d="M3,0A3,3 0 1,1 0,-3A3,3 0 0,1 3,0Z" style="opacity: 1; stroke-width: 0px; fill: rgb(139, 0, 139); fill-opacity: 1;"/><path class="point" transform="translate(508.06,179.67)" d="M3,0A3,3 0 1,1 0,-3A3,3 0 0,1 3,0Z" style="opacity: 1; stroke-width: 0px; fill: rgb(139, 0, 139); fill-opacity: 1;"/><path class="point" transform="translate(507.58,174.53)" d="M3,0A3,3 0 1,1 0,-3A3,3 0 0,1 3,0Z" style="opacity: 1; stroke-width: 0px; fill: rgb(139, 0, 139); fill-opacity: 1;"/><path class="point" transform="translate(507.19,172.36)" d="M3,0A3,3 0 1,1 0,-3A3,3 0 0,1 3,0Z" style="opacity: 1; stroke-width: 0px; fill: rgb(139, 0, 139); fill-opacity: 1;"/><path class="point" transform="translate(506.65,171.01)" d="M3,0A3,3 0 1,1 0,-3A3,3 0 0,1 3,0Z" style="opacity: 1; stroke-width: 0px; fill: rgb(139, 0, 139); fill-opacity: 1;"/><path class="point" transform="translate(507.46,169.65)" d="M3,0A3,3 0 1,1 0,-3A3,3 0 0,1 3,0Z" style="opacity: 1; stroke-width: 0px; fill: rgb(139, 0, 139); fill-opacity: 1;"/><path class="point" transform="translate(507.17,166.68)" d="M3,0A3,3 0 1,1 0,-3A3,3 0 0,1 3,0Z" style="opacity: 1; stroke-width: 0px; fill: rgb(139, 0, 139); fill-opacity: 1;"/><path class="point" transform="translate(507.96,150.68)" d="M3,0A3,3 0 1,1 0,-3A3,3 0 0,1 3,0Z" style="opacity: 1; stroke-width: 0px; fill: rgb(139, 0, 139); fill-opacity: 1;"/><path class="point" transform="translate(507.37,148.82)" d="M3,0A3,3 0 1,1 0,-3A3,3 0 0,1 3,0Z" style="opacity: 1; stroke-width: 0px; fill: rgb(139, 0, 139); fill-opacity: 1;"/><path class="point" transform="translate(506.84,146.88)" d="M3,0A3,3 0 1,1 0,-3A3,3 0 0,1 3,0Z" style="opacity: 1; stroke-width: 0px; fill: rgb(139, 0, 139); fill-opacity: 1;"/><path class="point" transform="translate(506.57,143.63)" d="M3,0A3,3 0 1,1 0,-3A3,3 0 0,1 3,0Z" style="opacity: 1; stroke-width: 0px; fill: rgb(139, 0, 139); fill-opacity: 1;"/><path class="point" transform="translate(507.97,143.41)" d="M3,0A3,3 0 1,1 0,-3A3,3 0 0,1 3,0Z" style="opacity: 1; stroke-width: 0px; fill: rgb(139, 0, 139); fill-opacity: 1;"/><path class="point" transform="translate(506.55,142.01)" d="M3,0A3,3 0 1,1 0,-3A3,3 0 0,1 3,0Z" style="opacity: 1; stroke-width: 0px; fill: rgb(139, 0, 139); fill-opacity: 1;"/><path class="point" transform="translate(508.1,139.3)" d="M3,0A3,3 0 1,1 0,-3A3,3 0 0,1 3,0Z" style="opacity: 1; stroke-width: 0px; fill: rgb(139, 0, 139); fill-opacity: 1;"/><path class="point" transform="translate(507.7,131.71)" d="M3,0A3,3 0 1,1 0,-3A3,3 0 0,1 3,0Z" style="opacity: 1; stroke-width: 0px; fill: rgb(139, 0, 139); fill-opacity: 1;"/><path class="point" transform="translate(507.2,130.62)" d="M3,0A3,3 0 1,1 0,-3A3,3 0 0,1 3,0Z" style="opacity: 1; stroke-width: 0px; fill: rgb(139, 0, 139); fill-opacity: 1;"/><path class="point" transform="translate(506.96,121.41)" d="M3,0A3,3 0 1,1 0,-3A3,3 0 0,1 3,0Z" style="opacity: 1; stroke-width: 0px; fill: rgb(139, 0, 139); fill-opacity: 1;"/><path class="point" transform="translate(507.83,119.24)" d="M3,0A3,3 0 1,1 0,-3A3,3 0 0,1 3,0Z" style="opacity: 1; stroke-width: 0px; fill: rgb(139, 0, 139); fill-opacity: 1;"/><path class="point" transform="translate(507.38,117.07)" d="M3,0A3,3 0 1,1 0,-3A3,3 0 0,1 3,0Z" style="opacity: 1; stroke-width: 0px; fill: rgb(139, 0, 139); fill-opacity: 1;"/><path class="point" transform="translate(508.02,114.91)" d="M3,0A3,3 0 1,1 0,-3A3,3 0 0,1 3,0Z" style="opacity: 1; stroke-width: 0px; fill: rgb(139, 0, 139); fill-opacity: 1;"/><path class="point" transform="translate(506.84,98.1)" d="M3,0A3,3 0 1,1 0,-3A3,3 0 0,1 3,0Z" style="opacity: 1; stroke-width: 0px; fill: rgb(139, 0, 139); fill-opacity: 1;"/></g></g></g><g class="scatterlayer mlayer"><g class="trace scatter tracedc85fc" style="stroke-miterlimit: 2; opacity: 1;"><g class="fills"/><g class="errorbars"/><g class="lines"/><g class="points"><path class="point" transform="translate(67.13,219.91)" d="M5,0A5,5 0 1,1 0,-5A5,5 0 0,1 5,0Z" style="opacity: 1; stroke-width: 0px; fill: rgb(0, 0, 255); fill-opacity: 1;"/></g><g class="text"/></g><g class="trace scatter trace942d0c" style="stroke-miterlimit: 2; opacity: 1;"><g class="fills"/><g class="errorbars"/><g class="lines"/><g class="points"><path class="point" transform="translate(201.38,213.97)" d="M5,0A5,5 0 1,1 0,-5A5,5 0 0,1 5,0Z" style="opacity: 1; stroke-width: 0px; fill: rgb(0, 0, 255); fill-opacity: 1;"/></g><g class="text"/></g><g class="trace scatter traceaaf59a" style="stroke-miterlimit: 2; opacity: 1;"><g class="fills"/><g class="errorbars"/><g class="lines"/><g class="points"><path class="point" transform="translate(335.63,219.91)" d="M5,0A5,5 0 1,1 0,-5A5,5 0 0,1 5,0Z" style="opacity: 1; stroke-width: 0px; fill: rgb(0, 0, 255); fill-opacity: 1;"/></g><g class="text"/></g><g class="trace scatter tracec6060c" style="stroke-miterlimit: 2; opacity: 1;"><g class="fills"/><g class="errorbars"/><g class="lines"/><g class="points"><path class="point" transform="translate(469.88,219.2)" d="M5,0A5,5 0 1,1 0,-5A5,5 0 0,1 5,0Z" style="opacity: 1; stroke-width: 0px; fill: rgb(0, 0, 255); fill-opacity: 1;"/></g><g class="text"/></g><g class="trace scatter trace2202ef" style="stroke-miterlimit: 2; opacity: 1;"><g class="fills"/><g class="errorbars"/><g class="lines"/><g class="points"><path class="point" transform="translate(67.13,207.15)" d="M5,0A5,5 0 1,1 0,-5A5,5 0 0,1 5,0Z" style="opacity: 1; stroke-width: 0px; fill: rgb(255, 215, 0); fill-opacity: 1;"/></g><g class="text"/></g><g class="trace scatter trace8f277a" style="stroke-miterlimit: 2; opacity: 1;"><g class="fills"/><g class="errorbars"/><g class="lines"/><g class="points"><path class="point" transform="translate(201.38,196.87)" d="M5,0A5,5 0 1,1 0,-5A5,5 0 0,1 5,0Z" style="opacity: 1; stroke-width: 0px; fill: rgb(255, 215, 0); fill-opacity: 1;"/></g><g class="text"/></g><g class="trace scatter trace28165f" style="stroke-miterlimit: 2; opacity: 1;"><g class="fills"/><g class="errorbars"/><g class="lines"/><g class="points"><path class="point" transform="translate(335.63,207.15)" d="M5,0A5,5 0 1,1 0,-5A5,5 0 0,1 5,0Z" style="opacity: 1; stroke-width: 0px; fill: rgb(255, 215, 0); fill-opacity: 1;"/></g><g class="text"/></g><g class="trace scatter trace0f5e8e" style="stroke-miterlimit: 2; opacity: 1;"><g class="fills"/><g class="errorbars"/><g class="lines"/><g class="points"><path class="point" transform="translate(469.88,227.84)" d="M5,0A5,5 0 1,1 0,-5A5,5 0 0,1 5,0Z" style="opacity: 1; stroke-width: 0px; fill: rgb(255, 215, 0); fill-opacity: 1;"/></g><g class="text"/></g></g></g><g class="overplot"/><path class="xlines-above crisp" style="fill: none; stroke-width: 1px; stroke: rgb(128, 128, 128); stroke-opacity: 1;" d="M79,420.5H621M79,99.5H621"/><path class="ylines-above crisp" style="fill: none; stroke-width: 1px; stroke: rgb(128, 128, 128); stroke-opacity: 1;" d="M79.5,100V420M620.5,100V420"/><g class="overlines-above"/><g class="xaxislayer-above"><g class="xtick"><text text-anchor="middle" x="0" y="435.4" transform="translate(147.13,0)" style="font-family: 'Open Sans', verdana, arial, sans-serif; font-size: 12px; fill: rgb(42, 63, 95); fill-opacity: 1; white-space: pre;">Accuracy</text></g><g class="xtick"><text text-anchor="middle" x="0" y="435.4" transform="translate(281.38,0)" style="font-family: 'Open Sans', verdana, arial, sans-serif; font-size: 12px; fill: rgb(42, 63, 95); fill-opacity: 1; white-space: pre;">Precision</text></g><g class="xtick"><text text-anchor="middle" x="0" y="435.4" transform="translate(415.63,0)" style="font-family: 'Open Sans', verdana, arial, sans-serif; font-size: 12px; fill: rgb(42, 63, 95); fill-opacity: 1; white-space: pre;">F1 Score</text></g><g class="xtick"><text text-anchor="middle" x="0" y="435.4" transform="translate(549.88,0)" style="font-family: 'Open Sans', verdana, arial, sans-serif; font-size: 12px; fill: rgb(42, 63, 95); fill-opacity: 1; white-space: pre;">Recall</text></g></g><g class="yaxislayer-above"><g class="ytick"><text text-anchor="end" x="76.6" y="4.199999999999999" transform="translate(0,384.44)" style="font-family: 'Open Sans', verdana, arial, sans-serif; font-size: 12px; fill: rgb(42, 63, 95); fill-opacity: 1; white-space: pre;">0.2</text></g><g class="ytick"><text text-anchor="end" x="76.6" y="4.199999999999999" transform="translate(0,313.33000000000004)" style="font-family: 'Open Sans', verdana, arial, sans-serif; font-size: 12px; fill: rgb(42, 63, 95); fill-opacity: 1; white-space: pre;">0.4</text></g><g class="ytick"><text text-anchor="end" x="76.6" y="4.199999999999999" transform="translate(0,242.22)" style="font-family: 'Open Sans', verdana, arial, sans-serif; font-size: 12px; fill: rgb(42, 63, 95); fill-opacity: 1; white-space: pre;">0.6</text></g><g class="ytick"><text text-anchor="end" x="76.6" y="4.199999999999999" transform="translate(0,171.11)" style="font-family: 'Open Sans', verdana, arial, sans-serif; font-size: 12px; fill: rgb(42, 63, 95); fill-opacity: 1; white-space: pre;">0.8</text></g><g class="ytick"><text text-anchor="end" x="76.6" y="4.199999999999999" transform="translate(0,100)" style="font-family: 'Open Sans', verdana, arial, sans-serif; font-size: 12px; fill: rgb(42, 63, 95); fill-opacity: 1; white-space: pre;">1</text></g></g><g class="overaxes-above"/></g></g><g class="polarlayer"/><g class="ternarylayer"/><g class="geolayer"/><g class="funnelarealayer"/><g class="pielayer"/><g class="treemaplayer"/><g class="sunburstlayer"/><g class="glimages"/><defs id="topdefs-4686af"><g class="clips"/><clipPath id="legend4686af"><rect width="141" height="48" x="0" y="0"/></clipPath></defs><g class="layer-above"><g class="imagelayer"/><g class="shapelayer"/></g><g class="infolayer"><g class="legend" pointer-events="all" transform="translate(80, 100)"><rect class="bg" shape-rendering="crispEdges" style="stroke: rgb(68, 68, 68); stroke-opacity: 1; fill: rgb(255, 255, 255); fill-opacity: 1; stroke-width: 0px;" width="141" height="48" x="0" y="0"/><g class="scrollbox" transform="translate(0, 0)" clip-path="url('#legend4686af')"><g class="groups"><g class="traces" style="opacity: 1;" transform="translate(0, 14.5)"><text class="legendtext user-select-none" text-anchor="start" x="40" y="4.680000000000001" style="font-family: 'Open Sans', verdana, arial, sans-serif; font-size: 12px; fill: rgb(42, 63, 95); fill-opacity: 1; white-space: pre;">Lexicon Simple</text><g class="layers" style="opacity: 1;"><g class="legendfill"/><g class="legendlines"/><g class="legendsymbols"><g class="legendpoints"><path class="scatterpts" transform="translate(20,0)" d="M5,0A5,5 0 1,1 0,-5A5,5 0 0,1 5,0Z" style="opacity: 1; stroke-width: 0px; fill: rgb(0, 0, 255); fill-opacity: 1;"/></g></g></g><rect class="legendtoggle" pointer-events="all" x="0" y="-9.5" width="135.078125" height="19" style="cursor: pointer; fill: rgb(0, 0, 0); fill-opacity: 0;"/></g><g class="traces" style="opacity: 1;" transform="translate(0, 33.5)"><text class="legendtext user-select-none" text-anchor="start" x="40" y="4.680000000000001" style="font-family: 'Open Sans', verdana, arial, sans-serif; font-size: 12px; fill: rgb(42, 63, 95); fill-opacity: 1; white-space: pre;">Lexicon polarity</text><g class="layers" style="opacity: 1;"><g class="legendfill"/><g class="legendlines"/><g class="legendsymbols"><g class="legendpoints"><path class="scatterpts" transform="translate(20,0)" d="M5,0A5,5 0 1,1 0,-5A5,5 0 0,1 5,0Z" style="opacity: 1; stroke-width: 0px; fill: rgb(255, 215, 0); fill-opacity: 1;"/></g></g></g><rect class="legendtoggle" pointer-events="all" x="0" y="-9.5" width="135.078125" height="19" style="cursor: pointer; fill: rgb(0, 0, 0); fill-opacity: 0;"/></g></g></g><rect class="scrollbar" rx="20" ry="3" width="0" height="0" style="fill: rgb(128, 139, 164); fill-opacity: 1;" x="0" y="0"/></g><g class="g-gtitle"/><g class="g-xtitle"/><g class="g-ytitle"/></g></svg>