<svg class="main-svg" xmlns="http://www.w3.org/2000/svg" xmlns:xlink="http://www.w3.org/1999/xlink" width="700" height="500" style="" viewBox="0 0 700 500"><rect x="0" y="0" width="700" height="500" style="fill: rgb(255, 255, 255); fill-opacity: 1;"/><defs id="defs-08e5d1"><g class="clips"><clipPath id="clip08e5d1xyplot" class="plotclip"><rect width="485" height="320"/></clipPath><clipPath class="axesclip" id="clip08e5d1x"><rect x="80" y="0" width="485" height="500"/></clipPath><clipPath class="axesclip" id="clip08e5d1y"><rect x="0" y="100" width="700" height="320"/></clipPath><clipPath class="axesclip" id="clip08e5d1xy"><rect x="80" y="100" width="485" height="320"/></clipPath></g><g class="gradients"/></defs><g class="bglayer"><rect class="bg" x="80" y="100" width="485" height="320" style="fill: rgb(229, 236, 246); fill-opacity: 1; stroke-width: 0;"/></g><g class="layer-below"><g class="imagelayer"/><g class="shapelayer"/></g><g class="cartesianlayer"><g class="subplot xy"><g class="layer-subplot"><g class="shapelayer"/><g class="imagelayer"/></g><g class="gridlayer"><g class="x"><path class="xgrid crisp" transform="translate(142.12,0)" d="M0,100v320" style="stroke: rgb(255, 255, 255); stroke-opacity: 1; stroke-width: 1px;"/><path class="xgrid crisp" transform="translate(262.37,0)" d="M0,100v320" style="stroke: rgb(255, 255, 255); stroke-opacity: 1; stroke-width: 1px;"/><path class="xgrid crisp" transform="translate(382.63,0)" d="M0,100v320" style="stroke: rgb(255, 255, 255); stroke-opacity: 1; stroke-width: 1px;"/><path class="xgrid crisp" transform="translate(502.88,0)" d="M0,100v320" style="stroke: rgb(255, 255, 255); stroke-opacity: 1; stroke-width: 1px;"/></g><g class="y"><path class="ygrid crisp" transform="translate(0,407.19)" d="M80,0h485" style="stroke: rgb(255, 255, 255); stroke-opacity: 1; stroke-width: 1px;"/><path class="ygrid crisp" transform="translate(0,339.98)" d="M80,0h485" style="stroke: rgb(255, 255, 255); stroke-opacity: 1; stroke-width: 1px;"/><path class="ygrid crisp" transform="translate(0,272.77)" d="M80,0h485" style="stroke: rgb(255, 255, 255); stroke-opacity: 1; stroke-width: 1px;"/><path class="ygrid crisp" transform="translate(0,205.56)" d="M80,0h485" style="stroke: rgb(255, 255, 255); stroke-opacity: 1; stroke-width: 1px;"/><path class="ygrid crisp" transform="translate(0,138.35)" d="M80,0h485" style="stroke: rgb(255, 255, 255); stroke-opacity: 1; stroke-width: 1px;"/></g></g><g class="zerolinelayer"/><path class="xlines-below"/><path class="ylines-below"/><g class="overlines-below"/><g class="xaxislayer-below"/><g class="yaxislayer-below"/><g class="overaxes-below"/><g class="plot" transform="translate(80, 100)" clip-path="url('#clip08e5d1xyplot')"><g class="violinlayer mlayer"><g class="trace violins" style="opacity: 1;"><path class="violin" d="M62.12,45.16L60.89,45.16Q60.23,49.45 59.74,51.58C59.25,53.73 58.65,55.88 57.94,58C57.22,60.16 56.35,62.3 55.42,64.42C54.47,66.58 53.37,68.71 52.28,70.84C51.18,72.99 49.97,75.11 48.86,77.26C47.76,79.39 46.61,81.52 45.65,83.68C44.71,85.8 43.81,87.93 43.17,90.09C42.55,92.2 42.07,94.36 41.85,96.51C41.63,98.64 41.65,100.8 41.84,102.93C42.03,105.08 42.48,107.23 43.01,109.35C43.54,111.51 44.3,113.64 45.03,115.77C45.77,117.92 46.64,120.05 47.43,122.19C48.22,124.33 49.06,126.46 49.77,128.61C50.47,130.74 51.14,132.87 51.67,135.02C52.19,137.15 52.61,139.29 52.91,141.44C53.21,143.57 53.37,145.72 53.49,147.86C53.61,150 53.59,152.14 53.62,154.28C53.65,156.42 53.6,158.56 53.65,160.7C53.7,162.84 53.76,164.98 53.93,167.12C54.1,169.26 54.36,171.41 54.68,173.54C55,175.68 55.43,177.82 55.87,179.95C56.31,182.09 56.83,184.23 57.31,186.37C57.79,188.51 58.31,190.65 58.76,192.79C59.21,194.93 59.63,197.07 59.99,199.21C60.34,201.35 60.64,203.49 60.89,205.63Q61.14,207.77 61.48,212.05L62.12,212.05" style="vector-effect: non-scaling-stroke; stroke-width: 2px; stroke: rgb(0, 128, 0); stroke-opacity: 1; fill: rgb(0, 128, 0); fill-opacity: 0.5;"/><path class="meanline" d="M45.41957092285156,116.87H62.12" style="fill: none; vector-effect: non-scaling-stroke; stroke-width: 2px; stroke-dasharray: 4px, 2px; stroke: rgb(0, 128, 0); stroke-opacity: 1;"/><g class="points"><path class="point" transform="translate(28.77,172.13)" d="M3,0A3,3 0 1,1 0,-3A3,3 0 0,1 3,0Z" style="opacity: 1; stroke-width: 0px; fill: rgb(0, 128, 0); fill-opacity: 1;"/><path class="point" transform="translate(28.03,164.45)" d="M3,0A3,3 0 1,1 0,-3A3,3 0 0,1 3,0Z" style="opacity: 1; stroke-width: 0px; fill: rgb(0, 128, 0); fill-opacity: 1;"/><path class="point" transform="translate(29,164.45)" d="M3,0A3,3 0 1,1 0,-3A3,3 0 0,1 3,0Z" style="opacity: 1; stroke-width: 0px; fill: rgb(0, 128, 0); fill-opacity: 1;"/><path class="point" transform="translate(27.86,128.61)" d="M3,0A3,3 0 1,1 0,-3A3,3 0 0,1 3,0Z" style="opacity: 1; stroke-width: 0px; fill: rgb(0, 128, 0); fill-opacity: 1;"/><path class="point" transform="translate(28.27,122.2)" d="M3,0A3,3 0 1,1 0,-3A3,3 0 0,1 3,0Z" style="opacity: 1; stroke-width: 0px; fill: rgb(0, 128, 0); fill-opacity: 1;"/><path class="point" transform="translate(28.85,108.12)" d="M3,0A3,3 0 1,1 0,-3A3,3 0 0,1 3,0Z" style="opacity: 1; stroke-width: 0px; fill: rgb(0, 128, 0); fill-opacity: 1;"/><path class="point" transform="translate(28.42,106.84)" d="M3,0A3,3 0 1,1 0,-3A3,3 0 0,1 3,0Z" style="opacity: 1; stroke-width: 0px; fill: rgb(0, 128, 0); fill-opacity: 1;"/><path class="point" transform="translate(28.68,104.28)" d="M3,0A3,3 0 1,1 0,-3A3,3 0 0,1 3,0Z" style="opacity: 1; stroke-width: 0px; fill: rgb(0, 128, 0); fill-opacity: 1;"/><path class="point" transform="translate(28.14,95.32)" d="M3,0A3,3 0 1,1 0,-3A3,3 0 0,1 3,0Z" style="opacity: 1; stroke-width: 0px; fill: rgb(0, 128, 0); fill-opacity: 1;"/><path class="point" transform="translate(27.71,94.57)" d="M3,0A3,3 0 1,1 0,-3A3,3 0 0,1 3,0Z" style="opacity: 1; stroke-width: 0px; fill: rgb(0, 128, 0); fill-opacity: 1;"/><path class="point" transform="translate(28.77,88.18)" d="M3,0A3,3 0 1,1 0,-3A3,3 0 0,1 3,0Z" style="opacity: 1; stroke-width: 0px; fill: rgb(0, 128, 0); fill-opacity: 1;"/><path class="point" transform="translate(28.08,85.08)" d="M3,0A3,3 0 1,1 0,-3A3,3 0 0,1 3,0Z" style="opacity: 1; stroke-width: 0px; fill: rgb(0, 128, 0); fill-opacity: 1;"/><path class="point" transform="translate(29.16,85.08)" d="M3,0A3,3 0 1,1 0,-3A3,3 0 0,1 3,0Z" style="opacity: 1; stroke-width: 0px; fill: rgb(0, 128, 0); fill-opacity: 1;"/></g></g><g class="trace violins" style="opacity: 1;"><path class="violin" d="M62.12,285.31L62.38,285.31Q62.51,278.9 62.59,275.69C62.68,272.48 62.78,269.28 62.89,266.07C63,262.86 63.13,259.66 63.27,256.45C63.4,253.25 63.56,250.04 63.7,246.84C63.85,243.63 64,240.43 64.14,237.22C64.28,234.01 64.41,230.81 64.55,227.6C64.68,224.39 64.81,221.19 64.95,217.98C65.09,214.77 65.23,211.57 65.4,208.36C65.57,205.15 65.75,201.95 65.95,198.74C66.15,195.54 66.38,192.33 66.61,189.13C66.84,185.92 67.09,182.72 67.34,179.51C67.59,176.3 67.85,173.1 68.1,169.89C68.35,166.68 68.59,163.48 68.86,160.27C69.13,157.06 69.39,153.85 69.7,150.65C70.01,147.44 70.34,144.24 70.74,141.04C71.14,137.83 71.6,134.62 72.1,131.42C72.61,128.21 73.19,125 73.77,121.8C74.35,118.59 75,115.39 75.56,112.18C76.11,108.98 76.71,105.77 77.1,102.56C77.49,99.36 77.83,96.16 77.92,92.95C78.01,89.75 77.94,86.53 77.66,83.33C77.38,80.11 76.86,76.9 76.24,73.71C75.61,70.49 74.75,67.29 73.89,64.09C73.03,60.87 72,57.68 71.07,54.47C70.14,51.26 69.17,48.06 68.32,44.85C67.48,41.65 66.67,38.45 66.01,35.24C65.35,32.04 64.8,28.83 64.34,25.62Q63.88,22.42 63.27,16L62.12,16" style="vector-effect: non-scaling-stroke; stroke-width: 2px; stroke: rgb(32, 178, 170); stroke-opacity: 1; fill: rgb(32, 178, 170); fill-opacity: 0.5;"/><path class="meanline" d="M74.87348937988281,115.93H62.12" style="fill: none; vector-effect: non-scaling-stroke; stroke-width: 2px; stroke-dasharray: 4px, 2px; stroke: rgb(32, 178, 170); stroke-opacity: 1;"/><g class="points"><path class="point" transform="translate(95.98,225.9)" d="M3,0A3,3 0 1,1 0,-3A3,3 0 0,1 3,0Z" style="opacity: 1; stroke-width: 0px; fill: rgb(32, 178, 170); fill-opacity: 1;"/><path class="point" transform="translate(95.55,169.57)" d="M3,0A3,3 0 1,1 0,-3A3,3 0 0,1 3,0Z" style="opacity: 1; stroke-width: 0px; fill: rgb(32, 178, 170); fill-opacity: 1;"/><path class="point" transform="translate(96.1,168.29)" d="M3,0A3,3 0 1,1 0,-3A3,3 0 0,1 3,0Z" style="opacity: 1; stroke-width: 0px; fill: rgb(32, 178, 170); fill-opacity: 1;"/><path class="point" transform="translate(95.44,140.13)" d="M3,0A3,3 0 1,1 0,-3A3,3 0 0,1 3,0Z" style="opacity: 1; stroke-width: 0px; fill: rgb(32, 178, 170); fill-opacity: 1;"/><path class="point" transform="translate(95.68,118.36)" d="M3,0A3,3 0 1,1 0,-3A3,3 0 0,1 3,0Z" style="opacity: 1; stroke-width: 0px; fill: rgb(32, 178, 170); fill-opacity: 1;"/><path class="point" transform="translate(96.04,105.56)" d="M3,0A3,3 0 1,1 0,-3A3,3 0 0,1 3,0Z" style="opacity: 1; stroke-width: 0px; fill: rgb(32, 178, 170); fill-opacity: 1;"/><path class="point" transform="translate(95.77,94.04)" d="M3,0A3,3 0 1,1 0,-3A3,3 0 0,1 3,0Z" style="opacity: 1; stroke-width: 0px; fill: rgb(32, 178, 170); fill-opacity: 1;"/><path class="point" transform="translate(95.96,86.36)" d="M3,0A3,3 0 1,1 0,-3A3,3 0 0,1 3,0Z" style="opacity: 1; stroke-width: 0px; fill: rgb(32, 178, 170); fill-opacity: 1;"/><path class="point" transform="translate(95.58,83.07)" d="M3,0A3,3 0 1,1 0,-3A3,3 0 0,1 3,0Z" style="opacity: 1; stroke-width: 0px; fill: rgb(32, 178, 170); fill-opacity: 1;"/><path class="point" transform="translate(95.23,82.52)" d="M3,0A3,3 0 1,1 0,-3A3,3 0 0,1 3,0Z" style="opacity: 1; stroke-width: 0px; fill: rgb(32, 178, 170); fill-opacity: 1;"/><path class="point" transform="translate(96.02,79.24)" d="M3,0A3,3 0 1,1 0,-3A3,3 0 0,1 3,0Z" style="opacity: 1; stroke-width: 0px; fill: rgb(32, 178, 170); fill-opacity: 1;"/><path class="point" transform="translate(95.46,78.68)" d="M3,0A3,3 0 1,1 0,-3A3,3 0 0,1 3,0Z" style="opacity: 1; stroke-width: 0px; fill: rgb(32, 178, 170); fill-opacity: 1;"/><path class="point" transform="translate(96.56,75.41)" d="M3,0A3,3 0 1,1 0,-3A3,3 0 0,1 3,0Z" style="opacity: 1; stroke-width: 0px; fill: rgb(32, 178, 170); fill-opacity: 1;"/></g></g><g class="trace violins" style="opacity: 1;"><path class="violin" d="M182.37,53.91L181.19,53.91Q180.53,57.78 180.02,59.7C179.5,61.65 178.88,63.59 178.11,65.5C177.33,67.46 176.38,69.38 175.35,71.29C174.3,73.25 173.07,75.17 171.85,77.09C170.61,79.04 169.23,80.94 167.97,82.88C166.72,84.8 165.4,86.71 164.33,88.68C163.29,90.58 162.28,92.51 161.62,94.48C160.98,96.38 160.52,98.33 160.37,100.27C160.22,102.19 160.38,104.15 160.69,106.07C161,108.02 161.64,109.94 162.26,111.86C162.89,113.81 163.72,115.73 164.45,117.66C165.18,119.59 165.98,121.51 166.62,123.45C167.26,125.37 167.84,127.31 168.29,129.25C168.74,131.17 169.07,133.1 169.34,135.04C169.61,136.97 169.74,138.91 169.9,140.84C170.06,142.77 170.14,144.7 170.29,146.63C170.44,148.56 170.57,150.5 170.8,152.43C171.03,154.36 171.3,156.3 171.65,158.22C172,160.16 172.44,162.09 172.91,164.02C173.39,165.96 173.94,167.88 174.5,169.81C175.06,171.75 175.68,173.68 176.26,175.61C176.84,177.54 177.43,179.46 177.96,181.4C178.49,183.33 179,185.26 179.44,187.2C179.87,189.12 180.26,191.05 180.58,192.99C180.9,194.92 181.16,196.85 181.37,198.79Q181.58,200.72 181.86,204.58L182.37,204.58" style="vector-effect: non-scaling-stroke; stroke-width: 2px; stroke: rgb(255, 0, 0); stroke-opacity: 1; fill: rgb(255, 0, 0); fill-opacity: 0.5;"/><path class="meanline" d="M165.03990173339844,119.19H182.37" style="fill: none; vector-effect: non-scaling-stroke; stroke-width: 2px; stroke-dasharray: 4px, 2px; stroke: rgb(255, 0, 0); stroke-opacity: 1;"/><g class="points"><path class="point" transform="translate(149.01,169.57)" d="M3,0A3,3 0 1,1 0,-3A3,3 0 0,1 3,0Z" style="opacity: 1; stroke-width: 0px; fill: rgb(255, 0, 0); fill-opacity: 1;"/><path class="point" transform="translate(148.3,158.05)" d="M3,0A3,3 0 1,1 0,-3A3,3 0 0,1 3,0Z" style="opacity: 1; stroke-width: 0px; fill: rgb(255, 0, 0); fill-opacity: 1;"/><path class="point" transform="translate(149.21,151.65)" d="M3,0A3,3 0 1,1 0,-3A3,3 0 0,1 3,0Z" style="opacity: 1; stroke-width: 0px; fill: rgb(255, 0, 0); fill-opacity: 1;"/><path class="point" transform="translate(148.11,140.13)" d="M3,0A3,3 0 1,1 0,-3A3,3 0 0,1 3,0Z" style="opacity: 1; stroke-width: 0px; fill: rgb(255, 0, 0); fill-opacity: 1;"/><path class="point" transform="translate(148.53,131.17)" d="M3,0A3,3 0 1,1 0,-3A3,3 0 0,1 3,0Z" style="opacity: 1; stroke-width: 0px; fill: rgb(255, 0, 0); fill-opacity: 1;"/><path class="point" transform="translate(149.1,111.96)" d="M3,0A3,3 0 1,1 0,-3A3,3 0 0,1 3,0Z" style="opacity: 1; stroke-width: 0px; fill: rgb(255, 0, 0); fill-opacity: 1;"/><path class="point" transform="translate(148.68,108.12)" d="M3,0A3,3 0 1,1 0,-3A3,3 0 0,1 3,0Z" style="opacity: 1; stroke-width: 0px; fill: rgb(255, 0, 0); fill-opacity: 1;"/><path class="point" transform="translate(148.94,103)" d="M3,0A3,3 0 1,1 0,-3A3,3 0 0,1 3,0Z" style="opacity: 1; stroke-width: 0px; fill: rgb(255, 0, 0); fill-opacity: 1;"/><path class="point" transform="translate(148.43,103)" d="M3,0A3,3 0 1,1 0,-3A3,3 0 0,1 3,0Z" style="opacity: 1; stroke-width: 0px; fill: rgb(255, 0, 0); fill-opacity: 1;"/><path class="point" transform="translate(148.06,97.88)" d="M3,0A3,3 0 1,1 0,-3A3,3 0 0,1 3,0Z" style="opacity: 1; stroke-width: 0px; fill: rgb(255, 0, 0); fill-opacity: 1;"/><path class="point" transform="translate(149,96.6)" d="M3,0A3,3 0 1,1 0,-3A3,3 0 0,1 3,0Z" style="opacity: 1; stroke-width: 0px; fill: rgb(255, 0, 0); fill-opacity: 1;"/><path class="point" transform="translate(148.33,89.46)" d="M3,0A3,3 0 1,1 0,-3A3,3 0 0,1 3,0Z" style="opacity: 1; stroke-width: 0px; fill: rgb(255, 0, 0); fill-opacity: 1;"/><path class="point" transform="translate(149.47,88.92)" d="M3,0A3,3 0 1,1 0,-3A3,3 0 0,1 3,0Z" style="opacity: 1; stroke-width: 0px; fill: rgb(255, 0, 0); fill-opacity: 1;"/></g></g><g class="trace violins" style="opacity: 1;"><path class="violin" d="M182.37,204.58L182.93,204.58Q183.24,200.72 183.47,198.79C183.71,196.85 183.99,194.92 184.34,192.99C184.69,191.05 185.11,189.12 185.58,187.2C186.06,185.26 186.62,183.33 187.2,181.4C187.78,179.46 188.43,177.54 189.06,175.61C189.69,173.68 190.37,171.75 190.98,169.81C191.59,167.88 192.2,165.96 192.72,164.02C193.24,162.1 193.71,160.16 194.09,158.22C194.47,156.3 194.77,154.36 195.02,152.43C195.27,150.5 195.42,148.56 195.58,146.63C195.74,144.7 195.83,142.77 196,140.84C196.17,138.91 196.33,136.97 196.62,135.04C196.92,133.1 197.28,131.17 197.77,129.25C198.27,127.3 198.91,125.37 199.6,123.45C200.3,121.5 201.17,119.59 201.96,117.66C202.75,115.73 203.67,113.81 204.36,111.86C205.04,109.95 205.74,108.02 206.08,106.07C206.42,104.16 206.59,102.19 206.42,100.27C206.25,98.33 205.74,96.37 205.05,94.48C204.33,92.5 203.23,90.58 202.1,88.68C200.93,86.71 199.48,84.8 198.12,82.88C196.74,80.94 195.23,79.04 193.88,77.09C192.55,75.17 191.2,73.25 190.05,71.29C188.93,69.39 187.9,67.46 187.04,65.5C186.21,63.59 185.51,61.65 184.95,59.7Q184.4,57.79 183.67,53.91L182.37,53.91" style="vector-effect: non-scaling-stroke; stroke-width: 2px; stroke: rgb(139, 0, 139); stroke-opacity: 1; fill: rgb(139, 0, 139); fill-opacity: 0.5;"/><path class="meanline" d="M201.3206024169922,119.19H182.37" style="fill: none; vector-effect: non-scaling-stroke; stroke-width: 2px; stroke-dasharray: 4px, 2px; stroke: rgb(139, 0, 139); stroke-opacity: 1;"/><g class="points"><path class="point" transform="translate(216.35,169.57)" d="M3,0A3,3 0 1,1 0,-3A3,3 0 0,1 3,0Z" style="opacity: 1; stroke-width: 0px; fill: rgb(139, 0, 139); fill-opacity: 1;"/><path class="point" transform="translate(215.64,158.05)" d="M3,0A3,3 0 1,1 0,-3A3,3 0 0,1 3,0Z" style="opacity: 1; stroke-width: 0px; fill: rgb(139, 0, 139); fill-opacity: 1;"/><path class="point" transform="translate(216.55,151.65)" d="M3,0A3,3 0 1,1 0,-3A3,3 0 0,1 3,0Z" style="opacity: 1; stroke-width: 0px; fill: rgb(139, 0, 139); fill-opacity: 1;"/><path class="point" transform="translate(215.45,140.13)" d="M3,0A3,3 0 1,1 0,-3A3,3 0 0,1 3,0Z" style="opacity: 1; stroke-width: 0px; fill: rgb(139, 0, 139); fill-opacity: 1;"/><path class="point" transform="translate(215.87,131.17)" d="M3,0A3,3 0 1,1 0,-3A3,3 0 0,1 3,0Z" style="opacity: 1; stroke-width: 0px; fill: rgb(139, 0, 139); fill-opacity: 1;"/><path class="point" transform="translate(216.44,111.96)" d="M3,0A3,3 0 1,1 0,-3A3,3 0 0,1 3,0Z" style="opacity: 1; stroke-width: 0px; fill: rgb(139, 0, 139); fill-opacity: 1;"/><path class="point" transform="translate(216.02,108.12)" d="M3,0A3,3 0 1,1 0,-3A3,3 0 0,1 3,0Z" style="opacity: 1; stroke-width: 0px; fill: rgb(139, 0, 139); fill-opacity: 1;"/><path class="point" transform="translate(216.28,103)" d="M3,0A3,3 0 1,1 0,-3A3,3 0 0,1 3,0Z" style="opacity: 1; stroke-width: 0px; fill: rgb(139, 0, 139); fill-opacity: 1;"/><path class="point" transform="translate(215.77,103)" d="M3,0A3,3 0 1,1 0,-3A3,3 0 0,1 3,0Z" style="opacity: 1; stroke-width: 0px; fill: rgb(139, 0, 139); fill-opacity: 1;"/><path class="point" transform="translate(215.4,97.88)" d="M3,0A3,3 0 1,1 0,-3A3,3 0 0,1 3,0Z" style="opacity: 1; stroke-width: 0px; fill: rgb(139, 0, 139); fill-opacity: 1;"/><path class="point" transform="translate(216.34,96.6)" d="M3,0A3,3 0 1,1 0,-3A3,3 0 0,1 3,0Z" style="opacity: 1; stroke-width: 0px; fill: rgb(139, 0, 139); fill-opacity: 1;"/><path class="point" transform="translate(215.67,89.46)" d="M3,0A3,3 0 1,1 0,-3A3,3 0 0,1 3,0Z" style="opacity: 1; stroke-width: 0px; fill: rgb(139, 0, 139); fill-opacity: 1;"/><path class="point" transform="translate(216.81,88.92)" d="M3,0A3,3 0 1,1 0,-3A3,3 0 0,1 3,0Z" style="opacity: 1; stroke-width: 0px; fill: rgb(139, 0, 139); fill-opacity: 1;"/></g></g><g class="trace violins" style="opacity: 1;"><path class="violin" d="M302.63,61.44L301.3,61.44Q300.56,64.9 300.02,66.61C299.46,68.35 298.78,70.08 297.98,71.78C297.15,73.53 296.16,75.24 295.1,76.94C294.01,78.69 292.75,80.4 291.51,82.11C290.25,83.85 288.87,85.55 287.59,87.28C286.33,88.99 285.01,90.69 283.89,92.44C282.8,94.13 281.74,95.85 280.94,97.61C280.17,99.3 279.52,101.03 279.13,102.77C278.75,104.47 278.58,106.22 278.58,107.94C278.58,109.66 278.82,111.4 279.16,113.11C279.5,114.85 280.06,116.56 280.64,118.27C281.24,120.01 281.98,121.72 282.71,123.44C283.44,125.17 284.28,126.88 285.03,128.61C285.78,130.33 286.56,132.04 287.22,133.77C287.87,135.48 288.49,137.2 288.98,138.94C289.46,140.65 289.84,142.37 290.15,144.1C290.46,145.82 290.64,147.55 290.85,149.27C291.06,150.99 291.18,152.72 291.41,154.44C291.64,156.16 291.87,157.89 292.21,159.6C292.55,161.33 292.98,163.06 293.46,164.77C293.95,166.5 294.54,168.22 295.13,169.94C295.72,171.67 296.4,173.38 297.01,175.1C297.62,176.82 298.25,178.54 298.79,180.27C299.33,181.98 299.83,183.7 300.25,185.43C300.66,187.14 301.01,188.87 301.29,190.6Q301.57,192.32 301.94,195.77L302.63,195.77" style="vector-effect: non-scaling-stroke; stroke-width: 2px; stroke: rgb(0, 0, 255); stroke-opacity: 1; fill: rgb(0, 0, 255); fill-opacity: 0.5;"/><path class="meanline" d="M281.4833068847656,120.51H302.63" style="fill: none; vector-effect: non-scaling-stroke; stroke-width: 2px; stroke-dasharray: 4px, 2px; stroke: rgb(0, 0, 255); stroke-opacity: 1;"/><g class="points"><path class="point" transform="translate(269.34,164.45)" d="M3,0A3,3 0 1,1 0,-3A3,3 0 0,1 3,0Z" style="opacity: 1; stroke-width: 0px; fill: rgb(0, 0, 255); fill-opacity: 1;"/><path class="point" transform="translate(268.49,156.77)" d="M3,0A3,3 0 1,1 0,-3A3,3 0 0,1 3,0Z" style="opacity: 1; stroke-width: 0px; fill: rgb(0, 0, 255); fill-opacity: 1;"/><path class="point" transform="translate(269.53,154.21)" d="M3,0A3,3 0 1,1 0,-3A3,3 0 0,1 3,0Z" style="opacity: 1; stroke-width: 0px; fill: rgb(0, 0, 255); fill-opacity: 1;"/><path class="point" transform="translate(268.29,128.61)" d="M3,0A3,3 0 1,1 0,-3A3,3 0 0,1 3,0Z" style="opacity: 1; stroke-width: 0px; fill: rgb(0, 0, 255); fill-opacity: 1;"/><path class="point" transform="translate(268.76,124.77)" d="M3,0A3,3 0 1,1 0,-3A3,3 0 0,1 3,0Z" style="opacity: 1; stroke-width: 0px; fill: rgb(0, 0, 255); fill-opacity: 1;"/><path class="point" transform="translate(269.38,124.77)" d="M3,0A3,3 0 1,1 0,-3A3,3 0 0,1 3,0Z" style="opacity: 1; stroke-width: 0px; fill: rgb(0, 0, 255); fill-opacity: 1;"/><path class="point" transform="translate(268.92,114.52)" d="M3,0A3,3 0 1,1 0,-3A3,3 0 0,1 3,0Z" style="opacity: 1; stroke-width: 0px; fill: rgb(0, 0, 255); fill-opacity: 1;"/><path class="point" transform="translate(269.2,108.12)" d="M3,0A3,3 0 1,1 0,-3A3,3 0 0,1 3,0Z" style="opacity: 1; stroke-width: 0px; fill: rgb(0, 0, 255); fill-opacity: 1;"/><path class="point" transform="translate(268.62,107.35)" d="M3,0A3,3 0 1,1 0,-3A3,3 0 0,1 3,0Z" style="opacity: 1; stroke-width: 0px; fill: rgb(0, 0, 255); fill-opacity: 1;"/><path class="point" transform="translate(268.18,99.16)" d="M3,0A3,3 0 1,1 0,-3A3,3 0 0,1 3,0Z" style="opacity: 1; stroke-width: 0px; fill: rgb(0, 0, 255); fill-opacity: 1;"/><path class="point" transform="translate(269.22,97.13)" d="M3,0A3,3 0 1,1 0,-3A3,3 0 0,1 3,0Z" style="opacity: 1; stroke-width: 0px; fill: rgb(0, 0, 255); fill-opacity: 1;"/><path class="point" transform="translate(268.59,94.04)" d="M3,0A3,3 0 1,1 0,-3A3,3 0 0,1 3,0Z" style="opacity: 1; stroke-width: 0px; fill: rgb(0, 0, 255); fill-opacity: 1;"/><path class="point" transform="translate(269.72,92.76)" d="M3,0A3,3 0 1,1 0,-3A3,3 0 0,1 3,0Z" style="opacity: 1; stroke-width: 0px; fill: rgb(0, 0, 255); fill-opacity: 1;"/></g></g><g class="trace violins" style="opacity: 1;"><path class="violin" d="M302.63,267.23L302.91,267.23Q303.05,261.42 303.14,258.52C303.23,255.61 303.34,252.71 303.47,249.8C303.6,246.9 303.75,243.99 303.91,241.09C304.07,238.19 304.24,235.28 304.41,232.38C304.58,229.47 304.76,226.57 304.94,223.66C305.12,220.76 305.29,217.85 305.47,214.95C305.65,212.05 305.82,209.14 306.01,206.24C306.2,203.34 306.38,200.43 306.59,197.53C306.8,194.62 307.02,191.72 307.25,188.81C307.48,185.91 307.73,183 307.97,180.1C308.21,177.2 308.47,174.29 308.71,171.39C308.96,168.48 309.2,165.58 309.44,162.67C309.68,159.77 309.91,156.86 310.17,153.96C310.43,151.06 310.69,148.15 311.02,145.25C311.35,142.34 311.71,139.44 312.15,136.54C312.59,133.63 313.11,130.72 313.68,127.82C314.25,124.91 314.93,122.01 315.57,119.11C316.21,116.21 316.94,113.31 317.54,110.4C318.14,107.5 318.76,104.6 319.16,101.68C319.55,98.79 319.86,95.88 319.91,92.97C319.96,90.07 319.82,87.15 319.47,84.26C319.11,81.34 318.49,78.43 317.77,75.54C317.04,72.62 316.08,69.72 315.13,66.83C314.18,63.92 313.07,61.03 312.07,58.12C311.07,55.22 310.03,52.33 309.13,49.41C308.24,46.52 307.4,43.61 306.7,40.69C306.01,37.8 305.42,34.89 304.94,31.98Q304.46,29.09 303.82,23.27L302.63,23.27" style="vector-effect: non-scaling-stroke; stroke-width: 2px; stroke: rgb(0, 0, 139); stroke-opacity: 1; fill: rgb(0, 0, 139); fill-opacity: 0.5;"/><path class="meanline" d="M316.4442443847656,115.3H302.63" style="fill: none; vector-effect: non-scaling-stroke; stroke-width: 2px; stroke-dasharray: 4px, 2px; stroke: rgb(0, 0, 139); stroke-opacity: 1;"/><g class="points"><path class="point" transform="translate(336.52,213.1)" d="M3,0A3,3 0 1,1 0,-3A3,3 0 0,1 3,0Z" style="opacity: 1; stroke-width: 0px; fill: rgb(0, 0, 139); fill-opacity: 1;"/><path class="point" transform="translate(336.01,165.73)" d="M3,0A3,3 0 1,1 0,-3A3,3 0 0,1 3,0Z" style="opacity: 1; stroke-width: 0px; fill: rgb(0, 0, 139); fill-opacity: 1;"/><path class="point" transform="translate(336.67,164.45)" d="M3,0A3,3 0 1,1 0,-3A3,3 0 0,1 3,0Z" style="opacity: 1; stroke-width: 0px; fill: rgb(0, 0, 139); fill-opacity: 1;"/><path class="point" transform="translate(335.87,138.85)" d="M3,0A3,3 0 1,1 0,-3A3,3 0 0,1 3,0Z" style="opacity: 1; stroke-width: 0px; fill: rgb(0, 0, 139); fill-opacity: 1;"/><path class="point" transform="translate(336.17,117.08)" d="M3,0A3,3 0 1,1 0,-3A3,3 0 0,1 3,0Z" style="opacity: 1; stroke-width: 0px; fill: rgb(0, 0, 139); fill-opacity: 1;"/><path class="point" transform="translate(336.59,104.28)" d="M3,0A3,3 0 1,1 0,-3A3,3 0 0,1 3,0Z" style="opacity: 1; stroke-width: 0px; fill: rgb(0, 0, 139); fill-opacity: 1;"/><path class="point" transform="translate(336.27,94.04)" d="M3,0A3,3 0 1,1 0,-3A3,3 0 0,1 3,0Z" style="opacity: 1; stroke-width: 0px; fill: rgb(0, 0, 139); fill-opacity: 1;"/><path class="point" transform="translate(336.49,92.76)" d="M3,0A3,3 0 1,1 0,-3A3,3 0 0,1 3,0Z" style="opacity: 1; stroke-width: 0px; fill: rgb(0, 0, 139); fill-opacity: 1;"/><path class="point" transform="translate(336.05,86.91)" d="M3,0A3,3 0 1,1 0,-3A3,3 0 0,1 3,0Z" style="opacity: 1; stroke-width: 0px; fill: rgb(0, 0, 139); fill-opacity: 1;"/><path class="point" transform="translate(335.64,83.8)" d="M3,0A3,3 0 1,1 0,-3A3,3 0 0,1 3,0Z" style="opacity: 1; stroke-width: 0px; fill: rgb(0, 0, 139); fill-opacity: 1;"/><path class="point" transform="translate(336.57,82.52)" d="M3,0A3,3 0 1,1 0,-3A3,3 0 0,1 3,0Z" style="opacity: 1; stroke-width: 0px; fill: rgb(0, 0, 139); fill-opacity: 1;"/><path class="point" transform="translate(335.9,77.96)" d="M3,0A3,3 0 1,1 0,-3A3,3 0 0,1 3,0Z" style="opacity: 1; stroke-width: 0px; fill: rgb(0, 0, 139); fill-opacity: 1;"/><path class="point" transform="translate(337.02,77.4)" d="M3,0A3,3 0 1,1 0,-3A3,3 0 0,1 3,0Z" style="opacity: 1; stroke-width: 0px; fill: rgb(0, 0, 139); fill-opacity: 1;"/></g></g><g class="trace violins" style="opacity: 1;"><path class="violin" d="M422.88,48.85L421.59,48.85Q420.85,52.74 420.3,54.66C419.74,56.62 419.05,58.56 418.24,60.48C417.4,62.45 416.39,64.38 415.33,66.3C414.24,68.26 412.97,70.19 411.76,72.12C410.54,74.06 409.2,75.97 408.02,77.93C406.86,79.85 405.68,81.77 404.76,83.75C403.88,85.66 403.08,87.6 402.58,89.57C402.09,91.48 401.82,93.45 401.76,95.39C401.7,97.32 401.91,99.27 402.2,101.2C402.49,103.15 403.01,105.09 403.51,107.02C404.01,108.97 404.64,110.9 405.2,112.84C405.76,114.78 406.36,116.72 406.87,118.66C407.38,120.59 407.87,122.53 408.28,124.47C408.69,126.4 409.03,128.35 409.33,130.29C409.63,132.23 409.84,134.17 410.06,136.11C410.28,138.05 410.44,139.99 410.64,141.93C410.84,143.87 411.02,145.81 411.28,147.74C411.54,149.68 411.83,151.63 412.2,153.56C412.57,155.51 413.02,157.45 413.51,159.38C414.01,161.33 414.59,163.27 415.17,165.2C415.75,167.14 416.41,169.07 417.01,171.01C417.61,172.95 418.23,174.88 418.77,176.83C419.31,178.76 419.83,180.7 420.26,182.65C420.69,184.58 421.06,186.52 421.37,188.46Q421.67,190.39 422.09,194.28L422.88,194.28" style="vector-effect: non-scaling-stroke; stroke-width: 2px; stroke: rgb(0, 0, 0); stroke-opacity: 1; fill: rgb(0, 0, 0); fill-opacity: 0.5;"/><path class="meanline" d="M405.4742736816406,113.78H422.88" style="fill: none; vector-effect: non-scaling-stroke; stroke-width: 2px; stroke-dasharray: 4px, 2px; stroke: rgb(0, 0, 0); stroke-opacity: 1;"/><g class="points"><path class="point" transform="translate(389.48,159.33)" d="M3,0A3,3 0 1,1 0,-3A3,3 0 0,1 3,0Z" style="opacity: 1; stroke-width: 0px; fill: rgb(0, 0, 0); fill-opacity: 1;"/><path class="point" transform="translate(388.84,158.05)" d="M3,0A3,3 0 1,1 0,-3A3,3 0 0,1 3,0Z" style="opacity: 1; stroke-width: 0px; fill: rgb(0, 0, 0); fill-opacity: 1;"/><path class="point" transform="translate(389.61,143.97)" d="M3,0A3,3 0 1,1 0,-3A3,3 0 0,1 3,0Z" style="opacity: 1; stroke-width: 0px; fill: rgb(0, 0, 0); fill-opacity: 1;"/><path class="point" transform="translate(388.73,136.29)" d="M3,0A3,3 0 1,1 0,-3A3,3 0 0,1 3,0Z" style="opacity: 1; stroke-width: 0px; fill: rgb(0, 0, 0); fill-opacity: 1;"/><path class="point" transform="translate(389.06,119.64)" d="M3,0A3,3 0 1,1 0,-3A3,3 0 0,1 3,0Z" style="opacity: 1; stroke-width: 0px; fill: rgb(0, 0, 0); fill-opacity: 1;"/><path class="point" transform="translate(389.53,113.24)" d="M3,0A3,3 0 1,1 0,-3A3,3 0 0,1 3,0Z" style="opacity: 1; stroke-width: 0px; fill: rgb(0, 0, 0); fill-opacity: 1;"/><path class="point" transform="translate(389.18,111.96)" d="M3,0A3,3 0 1,1 0,-3A3,3 0 0,1 3,0Z" style="opacity: 1; stroke-width: 0px; fill: rgb(0, 0, 0); fill-opacity: 1;"/><path class="point" transform="translate(389.4,92.76)" d="M3,0A3,3 0 1,1 0,-3A3,3 0 0,1 3,0Z" style="opacity: 1; stroke-width: 0px; fill: rgb(0, 0, 0); fill-opacity: 1;"/><path class="point" transform="translate(388.99,92.76)" d="M3,0A3,3 0 1,1 0,-3A3,3 0 0,1 3,0Z" style="opacity: 1; stroke-width: 0px; fill: rgb(0, 0, 0); fill-opacity: 1;"/><path class="point" transform="translate(388.65,92.02)" d="M3,0A3,3 0 1,1 0,-3A3,3 0 0,1 3,0Z" style="opacity: 1; stroke-width: 0px; fill: rgb(0, 0, 0); fill-opacity: 1;"/><path class="point" transform="translate(389.42,88.92)" d="M3,0A3,3 0 1,1 0,-3A3,3 0 0,1 3,0Z" style="opacity: 1; stroke-width: 0px; fill: rgb(0, 0, 0); fill-opacity: 1;"/><path class="point" transform="translate(388.96,86.36)" d="M3,0A3,3 0 1,1 0,-3A3,3 0 0,1 3,0Z" style="opacity: 1; stroke-width: 0px; fill: rgb(0, 0, 0); fill-opacity: 1;"/><path class="point" transform="translate(389.97,83.8)" d="M3,0A3,3 0 1,1 0,-3A3,3 0 0,1 3,0Z" style="opacity: 1; stroke-width: 0px; fill: rgb(0, 0, 0); fill-opacity: 1;"/></g></g><g class="trace violins" style="opacity: 1;"><path class="violin" d="M422.88,304L423.28,304Q423.48,298.05 423.61,295.08C423.74,292.11 423.9,289.13 424.07,286.16C424.24,283.19 424.45,280.21 424.65,277.24C424.85,274.27 425.06,271.29 425.25,268.32C425.44,265.35 425.62,262.37 425.77,259.4C425.92,256.43 426.03,253.45 426.13,250.48C426.23,247.51 426.29,244.54 426.36,241.57C426.43,238.6 426.46,235.62 426.55,232.65C426.64,229.68 426.72,226.7 426.88,223.73C427.04,220.76 427.26,217.78 427.53,214.81C427.81,211.83 428.15,208.86 428.53,205.89C428.92,202.91 429.38,199.94 429.84,196.97C430.31,193.99 430.81,191.02 431.32,188.05C431.83,185.08 432.35,182.1 432.88,179.13C433.41,176.16 433.93,173.18 434.5,170.21C435.07,167.23 435.64,164.26 436.28,161.29C436.92,158.31 437.6,155.34 438.32,152.37C439.04,149.39 439.83,146.42 440.61,143.45C441.39,140.48 442.25,137.52 443.02,134.54C443.78,131.57 444.59,128.61 445.2,125.62C445.8,122.66 446.37,119.68 446.66,116.7C446.95,113.74 447.09,110.75 446.93,107.78C446.77,104.8 446.34,101.81 445.7,98.86C445.05,95.86 444.07,92.89 443.01,89.94C441.93,86.94 440.58,83.98 439.27,81.02C437.95,78.03 436.47,75.08 435.13,72.1C433.8,69.14 432.44,66.17 431.26,63.18C430.1,60.23 429.01,57.25 428.1,54.26C427.2,51.31 426.46,48.33 425.84,45.34Q425.23,42.38 424.4,36.42L422.88,36.42" style="vector-effect: non-scaling-stroke; stroke-width: 2px; stroke: rgb(128, 128, 128); stroke-opacity: 1; fill: rgb(128, 128, 128); fill-opacity: 0.5;"/><path class="meanline" d="M443.0561828613281,134.4H422.88" style="fill: none; vector-effect: non-scaling-stroke; stroke-width: 2px; stroke-dasharray: 4px, 2px; stroke: rgb(128, 128, 128); stroke-opacity: 1;"/><g class="points"><path class="point" transform="translate(456.78,248.95)" d="M3,0A3,3 0 1,1 0,-3A3,3 0 0,1 3,0Z" style="opacity: 1; stroke-width: 0px; fill: rgb(128, 128, 128); fill-opacity: 1;"/><path class="point" transform="translate(456.25,183.65)" d="M3,0A3,3 0 1,1 0,-3A3,3 0 0,1 3,0Z" style="opacity: 1; stroke-width: 0px; fill: rgb(128, 128, 128); fill-opacity: 1;"/><path class="point" transform="translate(456.93,181.09)" d="M3,0A3,3 0 1,1 0,-3A3,3 0 0,1 3,0Z" style="opacity: 1; stroke-width: 0px; fill: rgb(128, 128, 128); fill-opacity: 1;"/><path class="point" transform="translate(456.11,150.37)" d="M3,0A3,3 0 1,1 0,-3A3,3 0 0,1 3,0Z" style="opacity: 1; stroke-width: 0px; fill: rgb(128, 128, 128); fill-opacity: 1;"/><path class="point" transform="translate(456.41,137.57)" d="M3,0A3,3 0 1,1 0,-3A3,3 0 0,1 3,0Z" style="opacity: 1; stroke-width: 0px; fill: rgb(128, 128, 128); fill-opacity: 1;"/><path class="point" transform="translate(456.84,133.73)" d="M3,0A3,3 0 1,1 0,-3A3,3 0 0,1 3,0Z" style="opacity: 1; stroke-width: 0px; fill: rgb(128, 128, 128); fill-opacity: 1;"/><path class="point" transform="translate(456.52,115.8)" d="M3,0A3,3 0 1,1 0,-3A3,3 0 0,1 3,0Z" style="opacity: 1; stroke-width: 0px; fill: rgb(128, 128, 128); fill-opacity: 1;"/><path class="point" transform="translate(456.76,108.12)" d="M3,0A3,3 0 1,1 0,-3A3,3 0 0,1 3,0Z" style="opacity: 1; stroke-width: 0px; fill: rgb(128, 128, 128); fill-opacity: 1;"/><path class="point" transform="translate(456.27,107.35)" d="M3,0A3,3 0 1,1 0,-3A3,3 0 0,1 3,0Z" style="opacity: 1; stroke-width: 0px; fill: rgb(128, 128, 128); fill-opacity: 1;"/><path class="point" transform="translate(455.88,100.44)" d="M3,0A3,3 0 1,1 0,-3A3,3 0 0,1 3,0Z" style="opacity: 1; stroke-width: 0px; fill: rgb(128, 128, 128); fill-opacity: 1;"/><path class="point" transform="translate(456.79,96.6)" d="M3,0A3,3 0 1,1 0,-3A3,3 0 0,1 3,0Z" style="opacity: 1; stroke-width: 0px; fill: rgb(128, 128, 128); fill-opacity: 1;"/><path class="point" transform="translate(456.19,92.02)" d="M3,0A3,3 0 1,1 0,-3A3,3 0 0,1 3,0Z" style="opacity: 1; stroke-width: 0px; fill: rgb(128, 128, 128); fill-opacity: 1;"/><path class="point" transform="translate(457.31,91.48)" d="M3,0A3,3 0 1,1 0,-3A3,3 0 0,1 3,0Z" style="opacity: 1; stroke-width: 0px; fill: rgb(128, 128, 128); fill-opacity: 1;"/></g></g></g></g><g class="overplot"/><path class="xlines-above crisp" d="M79,420.5H565" style="fill: none; stroke-width: 1px; stroke: rgb(255, 255, 255); stroke-opacity: 1;"/><path class="ylines-above crisp" d="M79.5,100V420" style="fill: none; stroke-width: 1px; stroke: rgb(255, 255, 255); stroke-opacity: 1;"/><g class="overlines-above"/><g class="xaxislayer-above"><g class="xtick"><text text-anchor="middle" x="0" y="435.4" transform="translate(142.12,0)" style="font-family: 'Open Sans', verdana, arial, sans-serif; font-size: 12px; fill: rgb(42, 63, 95); fill-opacity: 1; white-space: pre;">SGD Classifier</text></g><g class="xtick"><text text-anchor="middle" x="0" y="435.4" transform="translate(262.37,0)" style="font-family: 'Open Sans', verdana, arial, sans-serif; font-size: 12px; fill: rgb(42, 63, 95); fill-opacity: 1; white-space: pre;">Bernoulli NB</text></g><g class="xtick"><text text-anchor="middle" x="0" y="435.4" transform="translate(382.63,0)" style="font-family: 'Open Sans', verdana, arial, sans-serif; font-size: 12px; fill: rgb(42, 63, 95); fill-opacity: 1; white-space: pre;">Logistic Regresion</text></g><g class="xtick"><text text-anchor="middle" x="0" y="435.4" transform="translate(502.88,0)" style="font-family: 'Open Sans', verdana, arial, sans-serif; font-size: 12px; fill: rgb(42, 63, 95); fill-opacity: 1; white-space: pre;">Multinomial NB</text></g></g><g class="yaxislayer-above"><g class="ytick"><text text-anchor="end" x="76.6" y="4.199999999999999" transform="translate(0,407.19)" style="font-family: 'Open Sans', verdana, arial, sans-serif; font-size: 12px; fill: rgb(42, 63, 95); fill-opacity: 1; white-space: pre;">0.1</text></g><g class="ytick"><text text-anchor="end" x="76.6" y="4.199999999999999" transform="translate(0,339.98)" style="font-family: 'Open Sans', verdana, arial, sans-serif; font-size: 12px; fill: rgb(42, 63, 95); fill-opacity: 1; white-space: pre;">0.2</text></g><g class="ytick"><text text-anchor="end" x="76.6" y="4.199999999999999" transform="translate(0,272.77)" style="font-family: 'Open Sans', verdana, arial, sans-serif; font-size: 12px; fill: rgb(42, 63, 95); fill-opacity: 1; white-space: pre;">0.3</text></g><g class="ytick"><text text-anchor="end" x="76.6" y="4.199999999999999" transform="translate(0,205.56)" style="font-family: 'Open Sans', verdana, arial, sans-serif; font-size: 12px; fill: rgb(42, 63, 95); fill-opacity: 1; white-space: pre;">0.4</text></g><g class="ytick"><text text-anchor="end" x="76.6" y="4.199999999999999" transform="translate(0,138.35)" style="font-family: 'Open Sans', verdana, arial, sans-serif; font-size: 12px; fill: rgb(42, 63, 95); fill-opacity: 1; white-space: pre;">0.5</text></g></g><g class="overaxes-above"/></g></g><g class="polarlayer"/><g class="ternarylayer"/><g class="geolayer"/><g class="funnelarealayer"/><g class="pielayer"/><g class="treemaplayer"/><g class="sunburstlayer"/><g class="glimages"/><defs id="topdefs-08e5d1"><g class="clips"/><clipPath id="legend08e5d1"><rect width="113" height="162" x="0" y="0"/></clipPath></defs><g class="layer-above"><g class="imagelayer"/><g class="shapelayer"/></g><g class="infolayer"><g class="legend" pointer-events="all" transform="translate(574.7, 100)"><rect class="bg" shape-rendering="crispEdges" width="113" height="162" x="0" y="0" style="stroke: rgb(68, 68, 68); stroke-opacity: 1; fill: rgb(255, 255, 255); fill-opacity: 1; stroke-width: 0px;"/><g class="scrollbox" transform="translate(0, 0)" clip-path="url('#legend08e5d1')"><g class="groups"><g class="traces" transform="translate(0, 14.5)" style="opacity: 1;"><text class="legendtext user-select-none" text-anchor="start" x="40" y="4.680000000000001" style="font-family: 'Open Sans', verdana, arial, sans-serif; font-size: 12px; fill: rgb(42, 63, 95); fill-opacity: 1; white-space: pre;">BOW SGD</text><g class="layers" style="opacity: 1;"><g class="legendfill"/><g class="legendlines"/><g class="legendsymbols"><g class="legendpoints"><path class="legendbox" d="M6,6H-6V-6H6Z" transform="translate(20,0)" style="stroke-width: 2px; fill: rgb(0, 128, 0); fill-opacity: 0.5; stroke: rgb(0, 128, 0); stroke-opacity: 1;"/></g></g></g><rect class="legendtoggle" pointer-events="all" x="0" y="-9.5" width="107.03125" height="19" style="cursor: pointer; fill: rgb(0, 0, 0); fill-opacity: 0;"/></g><g class="traces" transform="translate(0, 33.5)" style="opacity: 1;"><text class="legendtext user-select-none" text-anchor="start" x="40" y="4.680000000000001" style="font-family: 'Open Sans', verdana, arial, sans-serif; font-size: 12px; fill: rgb(42, 63, 95); fill-opacity: 1; white-space: pre;">TFIDF SGD</text><g class="layers" style="opacity: 1;"><g class="legendfill"/><g class="legendlines"/><g class="legendsymbols"><g class="legendpoints"><path class="legendbox" d="M6,6H-6V-6H6Z" transform="translate(20,0)" style="stroke-width: 2px; fill: rgb(32, 178, 170); fill-opacity: 0.5; stroke: rgb(32, 178, 170); stroke-opacity: 1;"/></g></g></g><rect class="legendtoggle" pointer-events="all" x="0" y="-9.5" width="107.03125" height="19" style="cursor: pointer; fill: rgb(0, 0, 0); fill-opacity: 0;"/></g><g class="traces" transform="translate(0, 52.5)" style="opacity: 1;"><text class="legendtext user-select-none" text-anchor="start" x="40" y="4.680000000000001" style="font-family: 'Open Sans', verdana, arial, sans-serif; font-size: 12px; fill: rgb(42, 63, 95); fill-opacity: 1; white-space: pre;">BOW BNB</text><g class="layers" style="opacity: 1;"><g class="legendfill"/><g class="legendlines"/><g class="legendsymbols"><g class="legendpoints"><path class="legendbox" d="M6,6H-6V-6H6Z" transform="translate(20,0)" style="stroke-width: 2px; fill: rgb(255, 0, 0); fill-opacity: 0.5; stroke: rgb(255, 0, 0); stroke-opacity: 1;"/></g></g></g><rect class="legendtoggle" pointer-events="all" x="0" y="-9.5" width="107.03125" height="19" style="cursor: pointer; fill: rgb(0, 0, 0); fill-opacity: 0;"/></g><g class="traces" transform="translate(0, 71.5)" style="opacity: 1;"><text class="legendtext user-select-none" text-anchor="start" x="40" y="4.680000000000001" style="font-family: 'Open Sans', verdana, arial, sans-serif; font-size: 12px; fill: rgb(42, 63, 95); fill-opacity: 1; white-space: pre;">TFIDF BNB</text><g class="layers" style="opacity: 1;"><g class="legendfill"/><g class="legendlines"/><g class="legendsymbols"><g class="legendpoints"><path class="legendbox" d="M6,6H-6V-6H6Z" transform="translate(20,0)" style="stroke-width: 2px; fill: rgb(139, 0, 139); fill-opacity: 0.5; stroke: rgb(139, 0, 139); stroke-opacity: 1;"/></g></g></g><rect class="legendtoggle" pointer-events="all" x="0" y="-9.5" width="107.03125" height="19" style="cursor: pointer; fill: rgb(0, 0, 0); fill-opacity: 0;"/></g><g class="traces" transform="translate(0, 90.5)" style="opacity: 1;"><text class="legendtext user-select-none" text-anchor="start" x="40" y="4.680000000000001" style="font-family: 'Open Sans', verdana, arial, sans-serif; font-size: 12px; fill: rgb(42, 63, 95); fill-opacity: 1; white-space: pre;">BOW LR</text><g class="layers" style="opacity: 1;"><g class="legendfill"/><g class="legendlines"/><g class="legendsymbols"><g class="legendpoints"><path class="legendbox" d="M6,6H-6V-6H6Z" transform="translate(20,0)" style="stroke-width: 2px; fill: rgb(0, 0, 255); fill-opacity: 0.5; stroke: rgb(0, 0, 255); stroke-opacity: 1;"/></g></g></g><rect class="legendtoggle" pointer-events="all" x="0" y="-9.5" width="107.03125" height="19" style="cursor: pointer; fill: rgb(0, 0, 0); fill-opacity: 0;"/></g><g class="traces" transform="translate(0, 109.5)" style="opacity: 1;"><text class="legendtext user-select-none" text-anchor="start" x="40" y="4.680000000000001" style="font-family: 'Open Sans', verdana, arial, sans-serif; font-size: 12px; fill: rgb(42, 63, 95); fill-opacity: 1; white-space: pre;">TFIDF LR</text><g class="layers" style="opacity: 1;"><g class="legendfill"/><g class="legendlines"/><g class="legendsymbols"><g class="legendpoints"><path class="legendbox" d="M6,6H-6V-6H6Z" transform="translate(20,0)" style="stroke-width: 2px; fill: rgb(0, 0, 139); fill-opacity: 0.5; stroke: rgb(0, 0, 139); stroke-opacity: 1;"/></g></g></g><rect class="legendtoggle" pointer-events="all" x="0" y="-9.5" width="107.03125" height="19" style="cursor: pointer; fill: rgb(0, 0, 0); fill-opacity: 0;"/></g><g class="traces" transform="translate(0, 128.5)" style="opacity: 1;"><text class="legendtext user-select-none" text-anchor="start" x="40" y="4.680000000000001" style="font-family: 'Open Sans', verdana, arial, sans-serif; font-size: 12px; fill: rgb(42, 63, 95); fill-opacity: 1; white-space: pre;">BOW MNB</text><g class="layers" style="opacity: 1;"><g class="legendfill"/><g class="legendlines"/><g class="legendsymbols"><g class="legendpoints"><path class="legendbox" d="M6,6H-6V-6H6Z" transform="translate(20,0)" style="stroke-width: 2px; fill: rgb(0, 0, 0); fill-opacity: 0.5; stroke: rgb(0, 0, 0); stroke-opacity: 1;"/></g></g></g><rect class="legendtoggle" pointer-events="all" x="0" y="-9.5" width="107.03125" height="19" style="cursor: pointer; fill: rgb(0, 0, 0); fill-opacity: 0;"/></g><g class="traces" transform="translate(0, 147.5)" style="opacity: 1;"><text class="legendtext user-select-none" text-anchor="start" x="40" y="4.680000000000001" style="font-family: 'Open Sans', verdana, arial, sans-serif; font-size: 12px; fill: rgb(42, 63, 95); fill-opacity: 1; white-space: pre;">TFIDF MNB</text><g class="layers" style="opacity: 1;"><g class="legendfill"/><g class="legendlines"/><g class="legendsymbols"><g class="legendpoints"><path class="legendbox" d="M6,6H-6V-6H6Z" transform="translate(20,0)" style="stroke-width: 2px; fill: rgb(128, 128, 128); fill-opacity: 0.5; stroke: rgb(128, 128, 128); stroke-opacity: 1;"/></g></g></g><rect class="legendtoggle" pointer-events="all" x="0" y="-9.5" width="107.03125" height="19" style="cursor: pointer; fill: rgb(0, 0, 0); fill-opacity: 0;"/></g></g></g><rect class="scrollbar" rx="20" ry="3" width="0" height="0" x="0" y="0" style="fill: rgb(128, 139, 164); fill-opacity: 1;"/></g><g class="g-gtitle"><text class="gtitle" x="35" y="50" text-anchor="start" dy="0em" style="font-family: 'Open Sans', verdana, arial, sans-serif; font-size: 17px; fill: rgb(42, 63, 95); opacity: 1; font-weight: normal; white-space: pre;">Accuracy</text></g><g class="g-xtitle"/><g class="g-ytitle"/></g></svg>