<svg class="main-svg" xmlns="http://www.w3.org/2000/svg" xmlns:xlink="http://www.w3.org/1999/xlink" width="700" height="500" style="" viewBox="0 0 700 500"><rect x="0" y="0" width="700" height="500" style="fill: rgb(255, 255, 255); fill-opacity: 1;"/><defs id="defs-216ba2"><g class="clips"><clipPath id="clip216ba2xyplot" class="plotclip"><rect width="485" height="320"/></clipPath><clipPath class="axesclip" id="clip216ba2x"><rect x="80" y="0" width="485" height="500"/></clipPath><clipPath class="axesclip" id="clip216ba2y"><rect x="0" y="100" width="700" height="320"/></clipPath><clipPath class="axesclip" id="clip216ba2xy"><rect x="80" y="100" width="485" height="320"/></clipPath></g><g class="gradients"/></defs><g class="bglayer"><rect class="bg" x="80" y="100" width="485" height="320" style="fill: rgb(229, 236, 246); fill-opacity: 1; stroke-width: 0;"/></g><g class="layer-below"><g class="imagelayer"/><g class="shapelayer"/></g><g class="cartesianlayer"><g class="subplot xy"><g class="layer-subplot"><g class="shapelayer"/><g class="imagelayer"/></g><g class="gridlayer"><g class="x"><path class="xgrid crisp" transform="translate(142.12,0)" d="M0,100v320" style="stroke: rgb(255, 255, 255); stroke-opacity: 1; stroke-width: 1px;"/><path class="xgrid crisp" transform="translate(262.37,0)" d="M0,100v320" style="stroke: rgb(255, 255, 255); stroke-opacity: 1; stroke-width: 1px;"/><path class="xgrid crisp" transform="translate(382.63,0)" d="M0,100v320" style="stroke: rgb(255, 255, 255); stroke-opacity: 1; stroke-width: 1px;"/><path class="xgrid crisp" transform="translate(502.88,0)" d="M0,100v320" style="stroke: rgb(255, 255, 255); stroke-opacity: 1; stroke-width: 1px;"/></g><g class="y"><path class="ygrid crisp" transform="translate(0,328.57)" d="M80,0h485" style="stroke: rgb(255, 255, 255); stroke-opacity: 1; stroke-width: 1px;"/><path class="ygrid crisp" transform="translate(0,276.52)" d="M80,0h485" style="stroke: rgb(255, 255, 255); stroke-opacity: 1; stroke-width: 1px;"/><path class="ygrid crisp" transform="translate(0,224.48000000000002)" d="M80,0h485" style="stroke: rgb(255, 255, 255); stroke-opacity: 1; stroke-width: 1px;"/><path class="ygrid crisp" transform="translate(0,172.43)" d="M80,0h485" style="stroke: rgb(255, 255, 255); stroke-opacity: 1; stroke-width: 1px;"/><path class="ygrid crisp" transform="translate(0,120.38)" d="M80,0h485" style="stroke: rgb(255, 255, 255); stroke-opacity: 1; stroke-width: 1px;"/></g></g><g class="zerolinelayer"><path class="yzl zl crisp" transform="translate(0,380.61)" d="M80,0h485" style="stroke: rgb(255, 255, 255); stroke-opacity: 1; stroke-width: 2px;"/></g><path class="xlines-below"/><path class="ylines-below"/><g class="overlines-below"/><g class="xaxislayer-below"/><g class="yaxislayer-below"/><g class="overaxes-below"/><g class="plot" transform="translate(80, 100)" clip-path="url('#clip216ba2xyplot')"><g class="violinlayer mlayer"><g class="trace violins" style="opacity: 1;"><path class="violin" d="M62.12,25.97L61.17,25.97Q60.64,29.63 60.23,31.45C59.82,33.29 59.31,35.12 58.69,36.93C58.06,38.77 57.31,40.6 56.47,42.41C55.61,44.26 54.6,46.08 53.59,47.89C52.56,49.73 51.41,51.54 50.33,53.37C49.25,55.2 48.1,57.01 47.09,58.86C46.1,60.67 45.12,62.49 44.34,64.34C43.58,66.14 42.92,67.97 42.45,69.82C41.99,71.63 41.71,73.47 41.53,75.3C41.35,77.12 41.36,78.95 41.38,80.78C41.4,82.61 41.56,84.43 41.65,86.26C41.74,88.09 41.88,89.92 41.93,91.75C41.98,93.58 41.99,95.4 41.95,97.23C41.91,99.06 41.78,100.88 41.7,102.71C41.62,104.54 41.47,106.36 41.46,108.19C41.45,110.02 41.44,111.85 41.61,113.67C41.78,115.5 42.06,117.34 42.48,119.15C42.91,120.99 43.51,122.83 44.19,124.64C44.88,126.49 45.75,128.31 46.61,130.12C47.49,131.96 48.48,133.78 49.42,135.6C50.37,137.43 51.36,139.25 52.28,141.08C53.19,142.9 54.1,144.72 54.91,146.56C55.71,148.37 56.47,150.2 57.14,152.04C57.8,153.85 58.39,155.68 58.9,157.52C59.4,159.34 59.82,161.17 60.18,163.01C60.53,164.83 60.81,166.66 61.04,168.49Q61.27,170.31 61.57,173.97L62.12,173.97" style="vector-effect: non-scaling-stroke; stroke-width: 2px; stroke: rgb(0, 128, 0); stroke-opacity: 1; fill: rgb(0, 128, 0); fill-opacity: 0.5;"/><path class="meanline" d="M41.968528747558594,96.08H62.12" style="fill: none; vector-effect: non-scaling-stroke; stroke-width: 2px; stroke-dasharray: 4px, 2px; stroke: rgb(0, 128, 0); stroke-opacity: 1;"/><g class="points"><path class="point" transform="translate(29.04,140.63)" d="M3,0A3,3 0 1,1 0,-3A3,3 0 0,1 3,0Z" style="opacity: 1; stroke-width: 0px; fill: rgb(0, 128, 0); fill-opacity: 1;"/><path class="point" transform="translate(27.82,126.14)" d="M3,0A3,3 0 1,1 0,-3A3,3 0 0,1 3,0Z" style="opacity: 1; stroke-width: 0px; fill: rgb(0, 128, 0); fill-opacity: 1;"/><path class="point" transform="translate(29.26,119.8)" d="M3,0A3,3 0 1,1 0,-3A3,3 0 0,1 3,0Z" style="opacity: 1; stroke-width: 0px; fill: rgb(0, 128, 0); fill-opacity: 1;"/><path class="point" transform="translate(27.6,114.36)" d="M3,0A3,3 0 1,1 0,-3A3,3 0 0,1 3,0Z" style="opacity: 1; stroke-width: 0px; fill: rgb(0, 128, 0); fill-opacity: 1;"/><path class="point" transform="translate(28.19,113.95)" d="M3,0A3,3 0 1,1 0,-3A3,3 0 0,1 3,0Z" style="opacity: 1; stroke-width: 0px; fill: rgb(0, 128, 0); fill-opacity: 1;"/><path class="point" transform="translate(29.01,108.88)" d="M3,0A3,3 0 1,1 0,-3A3,3 0 0,1 3,0Z" style="opacity: 1; stroke-width: 0px; fill: rgb(0, 128, 0); fill-opacity: 1;"/><path class="point" transform="translate(28.41,92.52)" d="M3,0A3,3 0 1,1 0,-3A3,3 0 0,1 3,0Z" style="opacity: 1; stroke-width: 0px; fill: rgb(0, 128, 0); fill-opacity: 1;"/><path class="point" transform="translate(28.79,89.22)" d="M3,0A3,3 0 1,1 0,-3A3,3 0 0,1 3,0Z" style="opacity: 1; stroke-width: 0px; fill: rgb(0, 128, 0); fill-opacity: 1;"/><path class="point" transform="translate(28.09,77.11)" d="M3,0A3,3 0 1,1 0,-3A3,3 0 0,1 3,0Z" style="opacity: 1; stroke-width: 0px; fill: rgb(0, 128, 0); fill-opacity: 1;"/><path class="point" transform="translate(27.66,74.78)" d="M3,0A3,3 0 1,1 0,-3A3,3 0 0,1 3,0Z" style="opacity: 1; stroke-width: 0px; fill: rgb(0, 128, 0); fill-opacity: 1;"/><path class="point" transform="translate(28.74,68.38)" d="M3,0A3,3 0 1,1 0,-3A3,3 0 0,1 3,0Z" style="opacity: 1; stroke-width: 0px; fill: rgb(0, 128, 0); fill-opacity: 1;"/><path class="point" transform="translate(28.06,63.9)" d="M3,0A3,3 0 1,1 0,-3A3,3 0 0,1 3,0Z" style="opacity: 1; stroke-width: 0px; fill: rgb(0, 128, 0); fill-opacity: 1;"/><path class="point" transform="translate(29.19,59.31)" d="M3,0A3,3 0 1,1 0,-3A3,3 0 0,1 3,0Z" style="opacity: 1; stroke-width: 0px; fill: rgb(0, 128, 0); fill-opacity: 1;"/></g></g><g class="trace violins" style="opacity: 1;"><path class="violin" d="M62.12,215.8L62.64,215.8Q62.9,211.28 63.09,209.03C63.28,206.77 63.51,204.51 63.79,202.26C64.07,200 64.39,197.74 64.76,195.49C65.13,193.23 65.55,190.97 66,188.72C66.45,186.46 66.95,184.2 67.47,181.95C67.99,179.69 68.54,177.43 69.1,175.18C69.67,172.92 70.26,170.67 70.86,168.41C71.46,166.15 72.07,163.9 72.69,161.64C73.31,159.38 73.94,157.13 74.57,154.87C75.19,152.61 75.83,150.36 76.44,148.1C77.05,145.85 77.65,143.59 78.22,141.33C78.79,139.08 79.34,136.82 79.86,134.56C80.38,132.31 80.88,130.05 81.36,127.79C81.84,125.54 82.3,123.28 82.75,121.02C83.2,118.76 83.64,116.51 84.05,114.25C84.46,112 84.87,109.74 85.2,107.48C85.52,105.23 85.84,102.97 86,100.71C86.16,98.46 86.26,96.19 86.17,93.94C86.08,91.68 85.85,89.41 85.43,87.17C85.01,84.89 84.38,82.63 83.64,80.39C82.88,78.11 81.92,75.86 80.92,73.62C79.91,71.34 78.73,69.1 77.6,66.85C76.46,64.59 75.24,62.34 74.11,60.08C72.99,57.83 71.85,55.58 70.83,53.31C69.83,51.07 68.88,48.81 68.05,46.54C67.23,44.3 66.51,42.04 65.89,39.77C65.28,37.53 64.77,35.26 64.35,33C63.93,30.75 63.62,28.49 63.35,26.23Q63.08,23.98 62.74,19.46L62.12,19.46" style="vector-effect: non-scaling-stroke; stroke-width: 2px; stroke: rgb(32, 178, 170); stroke-opacity: 1; fill: rgb(32, 178, 170); fill-opacity: 0.5;"/><path class="meanline" d="M84.71321105957031,110.53H62.12" style="fill: none; vector-effect: non-scaling-stroke; stroke-width: 2px; stroke-dasharray: 4px, 2px; stroke: rgb(32, 178, 170); stroke-opacity: 1;"/><g class="points"><path class="point" transform="translate(96.27,174.1)" d="M3,0A3,3 0 1,1 0,-3A3,3 0 0,1 3,0Z" style="opacity: 1; stroke-width: 0px; fill: rgb(32, 178, 170); fill-opacity: 1;"/><path class="point" transform="translate(95.22,152.5)" d="M3,0A3,3 0 1,1 0,-3A3,3 0 0,1 3,0Z" style="opacity: 1; stroke-width: 0px; fill: rgb(32, 178, 170); fill-opacity: 1;"/><path class="point" transform="translate(96.5,141.65)" d="M3,0A3,3 0 1,1 0,-3A3,3 0 0,1 3,0Z" style="opacity: 1; stroke-width: 0px; fill: rgb(32, 178, 170); fill-opacity: 1;"/><path class="point" transform="translate(94.98,131.91)" d="M3,0A3,3 0 1,1 0,-3A3,3 0 0,1 3,0Z" style="opacity: 1; stroke-width: 0px; fill: rgb(32, 178, 170); fill-opacity: 1;"/><path class="point" transform="translate(95.55,121.28)" d="M3,0A3,3 0 1,1 0,-3A3,3 0 0,1 3,0Z" style="opacity: 1; stroke-width: 0px; fill: rgb(32, 178, 170); fill-opacity: 1;"/><path class="point" transform="translate(96.33,118.08)" d="M3,0A3,3 0 1,1 0,-3A3,3 0 0,1 3,0Z" style="opacity: 1; stroke-width: 0px; fill: rgb(32, 178, 170); fill-opacity: 1;"/><path class="point" transform="translate(95.75,104.04)" d="M3,0A3,3 0 1,1 0,-3A3,3 0 0,1 3,0Z" style="opacity: 1; stroke-width: 0px; fill: rgb(32, 178, 170); fill-opacity: 1;"/><path class="point" transform="translate(96.11,94.32)" d="M3,0A3,3 0 1,1 0,-3A3,3 0 0,1 3,0Z" style="opacity: 1; stroke-width: 0px; fill: rgb(32, 178, 170); fill-opacity: 1;"/><path class="point" transform="translate(95.44,91.36)" d="M3,0A3,3 0 1,1 0,-3A3,3 0 0,1 3,0Z" style="opacity: 1; stroke-width: 0px; fill: rgb(32, 178, 170); fill-opacity: 1;"/><path class="point" transform="translate(94.97,87.54)" d="M3,0A3,3 0 1,1 0,-3A3,3 0 0,1 3,0Z" style="opacity: 1; stroke-width: 0px; fill: rgb(32, 178, 170); fill-opacity: 1;"/><path class="point" transform="translate(96.08,81.8)" d="M3,0A3,3 0 1,1 0,-3A3,3 0 0,1 3,0Z" style="opacity: 1; stroke-width: 0px; fill: rgb(32, 178, 170); fill-opacity: 1;"/><path class="point" transform="translate(95.41,77.19)" d="M3,0A3,3 0 1,1 0,-3A3,3 0 0,1 3,0Z" style="opacity: 1; stroke-width: 0px; fill: rgb(32, 178, 170); fill-opacity: 1;"/><path class="point" transform="translate(96.56,61.16)" d="M3,0A3,3 0 1,1 0,-3A3,3 0 0,1 3,0Z" style="opacity: 1; stroke-width: 0px; fill: rgb(32, 178, 170); fill-opacity: 1;"/></g></g><g class="trace violins" style="opacity: 1;"><path class="violin" d="M182.37,24.34L181.48,24.34Q180.99,30.81 180.61,34.04C180.23,37.28 179.78,40.52 179.22,43.74C178.66,46.98 177.98,50.21 177.25,53.43C176.51,56.67 175.65,59.9 174.81,63.13C173.97,66.37 173.03,69.59 172.2,72.83C171.38,76.06 170.52,79.28 169.86,82.53C169.2,85.75 168.61,88.99 168.23,92.23C167.85,95.45 167.62,98.7 167.57,101.93C167.52,105.16 167.66,108.39 167.9,111.62C168.14,114.86 168.57,118.09 169,121.32C169.43,124.56 169.97,127.79 170.46,131.02C170.94,134.25 171.48,137.48 171.91,140.72C172.34,143.95 172.75,147.18 173.06,150.42C173.37,153.65 173.6,156.88 173.77,160.11C173.94,163.34 174.02,166.58 174.1,169.81C174.17,173.04 174.17,176.28 174.22,179.51C174.27,182.74 174.29,185.98 174.39,189.21C174.49,192.44 174.61,195.68 174.81,198.91C175.01,202.14 175.29,205.37 175.61,208.6C175.94,211.84 176.35,215.07 176.76,218.3C177.17,221.54 177.64,224.77 178.08,228C178.51,231.23 178.97,234.46 179.37,237.7C179.77,240.93 180.15,244.17 180.47,247.4C180.79,250.63 181.06,253.86 181.28,257.09Q181.5,260.32 181.8,266.79L182.37,266.79" style="vector-effect: non-scaling-stroke; stroke-width: 2px; stroke: rgb(255, 0, 0); stroke-opacity: 1; fill: rgb(255, 0, 0); fill-opacity: 0.5;"/><path class="meanline" d="M170.7438201904297,132.89H182.37" style="fill: none; vector-effect: non-scaling-stroke; stroke-width: 2px; stroke-dasharray: 4px, 2px; stroke: rgb(255, 0, 0); stroke-opacity: 1;"/><g class="points"><path class="point" transform="translate(149.04,207.82)" d="M3,0A3,3 0 1,1 0,-3A3,3 0 0,1 3,0Z" style="opacity: 1; stroke-width: 0px; fill: rgb(255, 0, 0); fill-opacity: 1;"/><path class="point" transform="translate(148.27,205.04)" d="M3,0A3,3 0 1,1 0,-3A3,3 0 0,1 3,0Z" style="opacity: 1; stroke-width: 0px; fill: rgb(255, 0, 0); fill-opacity: 1;"/><path class="point" transform="translate(149.24,191.65)" d="M3,0A3,3 0 1,1 0,-3A3,3 0 0,1 3,0Z" style="opacity: 1; stroke-width: 0px; fill: rgb(255, 0, 0); fill-opacity: 1;"/><path class="point" transform="translate(148.11,172.01)" d="M3,0A3,3 0 1,1 0,-3A3,3 0 0,1 3,0Z" style="opacity: 1; stroke-width: 0px; fill: rgb(255, 0, 0); fill-opacity: 1;"/><path class="point" transform="translate(148.52,146.05)" d="M3,0A3,3 0 1,1 0,-3A3,3 0 0,1 3,0Z" style="opacity: 1; stroke-width: 0px; fill: rgb(255, 0, 0); fill-opacity: 1;"/><path class="point" transform="translate(149.11,125.39)" d="M3,0A3,3 0 1,1 0,-3A3,3 0 0,1 3,0Z" style="opacity: 1; stroke-width: 0px; fill: rgb(255, 0, 0); fill-opacity: 1;"/><path class="point" transform="translate(148.68,119.51)" d="M3,0A3,3 0 1,1 0,-3A3,3 0 0,1 3,0Z" style="opacity: 1; stroke-width: 0px; fill: rgb(255, 0, 0); fill-opacity: 1;"/><path class="point" transform="translate(148.93,106.89)" d="M3,0A3,3 0 1,1 0,-3A3,3 0 0,1 3,0Z" style="opacity: 1; stroke-width: 0px; fill: rgb(255, 0, 0); fill-opacity: 1;"/><path class="point" transform="translate(148.44,97.29)" d="M3,0A3,3 0 1,1 0,-3A3,3 0 0,1 3,0Z" style="opacity: 1; stroke-width: 0px; fill: rgb(255, 0, 0); fill-opacity: 1;"/><path class="point" transform="translate(148.02,94.74)" d="M3,0A3,3 0 1,1 0,-3A3,3 0 0,1 3,0Z" style="opacity: 1; stroke-width: 0px; fill: rgb(255, 0, 0); fill-opacity: 1;"/><path class="point" transform="translate(148.99,91.6)" d="M3,0A3,3 0 1,1 0,-3A3,3 0 0,1 3,0Z" style="opacity: 1; stroke-width: 0px; fill: rgb(255, 0, 0); fill-opacity: 1;"/><path class="point" transform="translate(148.35,86.22)" d="M3,0A3,3 0 1,1 0,-3A3,3 0 0,1 3,0Z" style="opacity: 1; stroke-width: 0px; fill: rgb(255, 0, 0); fill-opacity: 1;"/><path class="point" transform="translate(149.47,83.31)" d="M3,0A3,3 0 1,1 0,-3A3,3 0 0,1 3,0Z" style="opacity: 1; stroke-width: 0px; fill: rgb(255, 0, 0); fill-opacity: 1;"/></g></g><g class="trace violins" style="opacity: 1;"><path class="violin" d="M182.37,266.79L183.09,266.79Q183.47,260.32 183.75,257.09C184.03,253.86 184.36,250.63 184.76,247.4C185.16,244.16 185.63,240.93 186.13,237.7C186.63,234.46 187.2,231.23 187.75,228C188.3,224.77 188.89,221.54 189.41,218.3C189.92,215.07 190.43,211.84 190.84,208.6C191.25,205.37 191.59,202.14 191.85,198.91C192.11,195.68 192.26,192.44 192.38,189.21C192.5,185.98 192.52,182.74 192.58,179.51C192.64,176.28 192.65,173.04 192.74,169.81C192.84,166.58 192.93,163.34 193.15,160.11C193.37,156.88 193.65,153.65 194.04,150.42C194.43,147.18 194.94,143.95 195.48,140.72C196.02,137.48 196.68,134.25 197.29,131.02C197.9,127.79 198.59,124.56 199.13,121.32C199.66,118.09 200.2,114.86 200.5,111.62C200.8,108.4 200.99,105.16 200.92,101.93C200.85,98.7 200.57,95.45 200.09,92.23C199.61,88.98 198.86,85.75 198.04,82.53C197.21,79.28 196.14,76.06 195.11,72.83C194.08,69.59 192.9,66.37 191.85,63.13C190.8,59.9 189.71,56.68 188.79,53.43C187.87,50.21 187.03,46.98 186.33,43.74C185.63,40.52 185.05,37.28 184.58,34.04Q184.11,30.81 183.49,24.34L182.37,24.34" style="vector-effect: non-scaling-stroke; stroke-width: 2px; stroke: rgb(139, 0, 139); stroke-opacity: 1; fill: rgb(139, 0, 139); fill-opacity: 0.5;"/><path class="meanline" d="M196.93234252929688,132.89H182.37" style="fill: none; vector-effect: non-scaling-stroke; stroke-width: 2px; stroke-dasharray: 4px, 2px; stroke: rgb(139, 0, 139); stroke-opacity: 1;"/><g class="points"><path class="point" transform="translate(216.38,207.82)" d="M3,0A3,3 0 1,1 0,-3A3,3 0 0,1 3,0Z" style="opacity: 1; stroke-width: 0px; fill: rgb(139, 0, 139); fill-opacity: 1;"/><path class="point" transform="translate(215.61,205.04)" d="M3,0A3,3 0 1,1 0,-3A3,3 0 0,1 3,0Z" style="opacity: 1; stroke-width: 0px; fill: rgb(139, 0, 139); fill-opacity: 1;"/><path class="point" transform="translate(216.58,191.65)" d="M3,0A3,3 0 1,1 0,-3A3,3 0 0,1 3,0Z" style="opacity: 1; stroke-width: 0px; fill: rgb(139, 0, 139); fill-opacity: 1;"/><path class="point" transform="translate(215.45,172.01)" d="M3,0A3,3 0 1,1 0,-3A3,3 0 0,1 3,0Z" style="opacity: 1; stroke-width: 0px; fill: rgb(139, 0, 139); fill-opacity: 1;"/><path class="point" transform="translate(215.86,146.05)" d="M3,0A3,3 0 1,1 0,-3A3,3 0 0,1 3,0Z" style="opacity: 1; stroke-width: 0px; fill: rgb(139, 0, 139); fill-opacity: 1;"/><path class="point" transform="translate(216.45,125.39)" d="M3,0A3,3 0 1,1 0,-3A3,3 0 0,1 3,0Z" style="opacity: 1; stroke-width: 0px; fill: rgb(139, 0, 139); fill-opacity: 1;"/><path class="point" transform="translate(216.02,119.51)" d="M3,0A3,3 0 1,1 0,-3A3,3 0 0,1 3,0Z" style="opacity: 1; stroke-width: 0px; fill: rgb(139, 0, 139); fill-opacity: 1;"/><path class="point" transform="translate(216.27,106.89)" d="M3,0A3,3 0 1,1 0,-3A3,3 0 0,1 3,0Z" style="opacity: 1; stroke-width: 0px; fill: rgb(139, 0, 139); fill-opacity: 1;"/><path class="point" transform="translate(215.78,97.29)" d="M3,0A3,3 0 1,1 0,-3A3,3 0 0,1 3,0Z" style="opacity: 1; stroke-width: 0px; fill: rgb(139, 0, 139); fill-opacity: 1;"/><path class="point" transform="translate(215.36,94.74)" d="M3,0A3,3 0 1,1 0,-3A3,3 0 0,1 3,0Z" style="opacity: 1; stroke-width: 0px; fill: rgb(139, 0, 139); fill-opacity: 1;"/><path class="point" transform="translate(216.33,91.6)" d="M3,0A3,3 0 1,1 0,-3A3,3 0 0,1 3,0Z" style="opacity: 1; stroke-width: 0px; fill: rgb(139, 0, 139); fill-opacity: 1;"/><path class="point" transform="translate(215.69,86.22)" d="M3,0A3,3 0 1,1 0,-3A3,3 0 0,1 3,0Z" style="opacity: 1; stroke-width: 0px; fill: rgb(139, 0, 139); fill-opacity: 1;"/><path class="point" transform="translate(216.81,83.31)" d="M3,0A3,3 0 1,1 0,-3A3,3 0 0,1 3,0Z" style="opacity: 1; stroke-width: 0px; fill: rgb(139, 0, 139); fill-opacity: 1;"/></g></g><g class="trace violins" style="opacity: 1;"><path class="violin" d="M302.63,35.22L300.89,35.22Q299.98,39.37 299.33,41.42C298.67,43.51 297.86,45.58 296.93,47.62C295.98,49.71 294.85,51.78 293.67,53.82C292.47,55.91 291.1,57.96 289.78,60.02C288.45,62.09 287.02,64.14 285.74,66.22C284.49,68.27 283.2,70.32 282.18,72.42C281.19,74.45 280.28,76.52 279.68,78.62C279.1,80.66 278.71,82.75 278.58,84.82C278.45,86.88 278.6,88.96 278.9,91.01C279.2,93.09 279.78,95.16 280.41,97.21C281.05,99.3 281.9,101.35 282.73,103.41C283.57,105.49 284.52,107.54 285.42,109.61C286.32,111.68 287.26,113.73 288.11,115.81C288.95,117.87 289.76,119.93 290.47,122.01C291.17,124.06 291.81,126.13 292.36,128.21C292.9,130.27 293.35,132.34 293.75,134.41C294.15,136.47 294.47,138.54 294.78,140.61C295.09,142.67 295.36,144.74 295.63,146.81C295.9,148.88 296.15,150.94 296.4,153.01C296.65,155.08 296.9,157.14 297.13,159.21C297.35,161.28 297.57,163.34 297.75,165.41C297.93,167.48 298.09,169.54 298.22,171.61C298.35,173.68 298.44,175.74 298.54,177.81C298.64,179.88 298.71,181.94 298.81,184.01C298.91,186.08 299,188.14 299.13,190.21C299.26,192.28 299.42,194.34 299.59,196.41C299.76,198.48 299.97,200.54 300.17,202.61C300.37,204.68 300.6,206.74 300.81,208.81C301.01,210.88 301.22,212.94 301.4,215.01C301.58,217.08 301.74,219.14 301.88,221.21Q302.02,223.28 302.22,227.41L302.63,227.41" style="vector-effect: non-scaling-stroke; stroke-width: 2px; stroke: rgb(0, 0, 255); stroke-opacity: 1; fill: rgb(0, 0, 255); fill-opacity: 0.5;"/><path class="meanline" d="M283.20562744140625,104.56H302.63" style="fill: none; vector-effect: non-scaling-stroke; stroke-width: 2px; stroke-dasharray: 4px, 2px; stroke: rgb(0, 0, 255); stroke-opacity: 1;"/><g class="points"><path class="point" transform="translate(269.22,189.1)" d="M3,0A3,3 0 1,1 0,-3A3,3 0 0,1 3,0Z" style="opacity: 1; stroke-width: 0px; fill: rgb(0, 0, 255); fill-opacity: 1;"/><path class="point" transform="translate(268.62,151.93)" d="M3,0A3,3 0 1,1 0,-3A3,3 0 0,1 3,0Z" style="opacity: 1; stroke-width: 0px; fill: rgb(0, 0, 255); fill-opacity: 1;"/><path class="point" transform="translate(269.39,137.08)" d="M3,0A3,3 0 1,1 0,-3A3,3 0 0,1 3,0Z" style="opacity: 1; stroke-width: 0px; fill: rgb(0, 0, 255); fill-opacity: 1;"/><path class="point" transform="translate(268.47,109.47)" d="M3,0A3,3 0 1,1 0,-3A3,3 0 0,1 3,0Z" style="opacity: 1; stroke-width: 0px; fill: rgb(0, 0, 255); fill-opacity: 1;"/><path class="point" transform="translate(268.81,108.6)" d="M3,0A3,3 0 1,1 0,-3A3,3 0 0,1 3,0Z" style="opacity: 1; stroke-width: 0px; fill: rgb(0, 0, 255); fill-opacity: 1;"/><path class="point" transform="translate(269.28,101.83)" d="M3,0A3,3 0 1,1 0,-3A3,3 0 0,1 3,0Z" style="opacity: 1; stroke-width: 0px; fill: rgb(0, 0, 255); fill-opacity: 1;"/><path class="point" transform="translate(268.93,91.95)" d="M3,0A3,3 0 1,1 0,-3A3,3 0 0,1 3,0Z" style="opacity: 1; stroke-width: 0px; fill: rgb(0, 0, 255); fill-opacity: 1;"/><path class="point" transform="translate(269.2,89.51)" d="M3,0A3,3 0 1,1 0,-3A3,3 0 0,1 3,0Z" style="opacity: 1; stroke-width: 0px; fill: rgb(0, 0, 255); fill-opacity: 1;"/><path class="point" transform="translate(268.62,81.56)" d="M3,0A3,3 0 1,1 0,-3A3,3 0 0,1 3,0Z" style="opacity: 1; stroke-width: 0px; fill: rgb(0, 0, 255); fill-opacity: 1;"/><path class="point" transform="translate(268.22,75.85)" d="M3,0A3,3 0 1,1 0,-3A3,3 0 0,1 3,0Z" style="opacity: 1; stroke-width: 0px; fill: rgb(0, 0, 255); fill-opacity: 1;"/><path class="point" transform="translate(269.24,74.91)" d="M3,0A3,3 0 1,1 0,-3A3,3 0 0,1 3,0Z" style="opacity: 1; stroke-width: 0px; fill: rgb(0, 0, 255); fill-opacity: 1;"/><path class="point" transform="translate(268.56,74.01)" d="M3,0A3,3 0 1,1 0,-3A3,3 0 0,1 3,0Z" style="opacity: 1; stroke-width: 0px; fill: rgb(0, 0, 255); fill-opacity: 1;"/><path class="point" transform="translate(269.7,73.52)" d="M3,0A3,3 0 1,1 0,-3A3,3 0 0,1 3,0Z" style="opacity: 1; stroke-width: 0px; fill: rgb(0, 0, 255); fill-opacity: 1;"/></g></g><g class="trace violins" style="opacity: 1;"><path class="violin" d="M302.63,269.9L303.06,269.9Q303.28,264.95 303.42,262.48C303.57,260 303.74,257.53 303.93,255.05C304.12,252.57 304.35,250.1 304.56,247.62C304.77,245.14 305,242.67 305.2,240.19C305.39,237.72 305.58,235.25 305.73,232.77C305.88,230.3 305.99,227.82 306.08,225.34C306.17,222.86 306.2,220.39 306.27,217.91C306.34,215.43 306.37,212.95 306.5,210.48C306.63,208 306.77,205.53 307.07,203.06C307.37,200.58 307.75,198.09 308.29,195.63C308.84,193.14 309.54,190.66 310.34,188.2C311.15,185.71 312.13,183.23 313.12,180.77C314.11,178.28 315.25,175.83 316.28,173.35C317.31,170.88 318.38,168.41 319.3,165.92C320.21,163.46 321.07,160.98 321.77,158.49C322.46,156.03 323.03,153.55 323.5,151.06C323.97,148.6 324.3,146.12 324.61,143.64C324.91,141.17 325.13,138.69 325.33,136.21C325.53,133.73 325.71,131.26 325.81,128.78C325.91,126.3 326.01,123.82 325.95,121.35C325.89,118.87 325.76,116.39 325.42,113.93C325.08,111.44 324.59,108.95 323.91,106.5C323.22,104 322.3,101.52 321.29,99.07C320.26,96.57 319.01,94.1 317.8,91.64C316.58,89.15 315.21,86.7 313.97,84.22C312.74,81.75 311.47,79.29 310.37,76.79C309.29,74.33 308.27,71.86 307.43,69.36C306.6,66.9 305.9,64.42 305.33,61.93Q304.76,59.47 304,54.51L302.63,54.51" style="vector-effect: non-scaling-stroke; stroke-width: 2px; stroke: rgb(0, 0, 139); stroke-opacity: 1; fill: rgb(0, 0, 139); fill-opacity: 0.5;"/><path class="meanline" d="M325.1628723144531,138.21H302.63" style="fill: none; vector-effect: non-scaling-stroke; stroke-width: 2px; stroke-dasharray: 4px, 2px; stroke: rgb(0, 0, 139); stroke-opacity: 1;"/><g class="points"><path class="point" transform="translate(336.65,224.75)" d="M3,0A3,3 0 1,1 0,-3A3,3 0 0,1 3,0Z" style="opacity: 1; stroke-width: 0px; fill: rgb(0, 0, 139); fill-opacity: 1;"/><path class="point" transform="translate(335.87,165.13)" d="M3,0A3,3 0 1,1 0,-3A3,3 0 0,1 3,0Z" style="opacity: 1; stroke-width: 0px; fill: rgb(0, 0, 139); fill-opacity: 1;"/><path class="point" transform="translate(336.84,164.51)" d="M3,0A3,3 0 1,1 0,-3A3,3 0 0,1 3,0Z" style="opacity: 1; stroke-width: 0px; fill: rgb(0, 0, 139); fill-opacity: 1;"/><path class="point" transform="translate(335.69,157.53)" d="M3,0A3,3 0 1,1 0,-3A3,3 0 0,1 3,0Z" style="opacity: 1; stroke-width: 0px; fill: rgb(0, 0, 139); fill-opacity: 1;"/><path class="point" transform="translate(336.12,151.97)" d="M3,0A3,3 0 1,1 0,-3A3,3 0 0,1 3,0Z" style="opacity: 1; stroke-width: 0px; fill: rgb(0, 0, 139); fill-opacity: 1;"/><path class="point" transform="translate(336.7,149.22)" d="M3,0A3,3 0 1,1 0,-3A3,3 0 0,1 3,0Z" style="opacity: 1; stroke-width: 0px; fill: rgb(0, 0, 139); fill-opacity: 1;"/><path class="point" transform="translate(336.26,128.9)" d="M3,0A3,3 0 1,1 0,-3A3,3 0 0,1 3,0Z" style="opacity: 1; stroke-width: 0px; fill: rgb(0, 0, 139); fill-opacity: 1;"/><path class="point" transform="translate(336.6,126.19)" d="M3,0A3,3 0 1,1 0,-3A3,3 0 0,1 3,0Z" style="opacity: 1; stroke-width: 0px; fill: rgb(0, 0, 139); fill-opacity: 1;"/><path class="point" transform="translate(335.96,114.22)" d="M3,0A3,3 0 1,1 0,-3A3,3 0 0,1 3,0Z" style="opacity: 1; stroke-width: 0px; fill: rgb(0, 0, 139); fill-opacity: 1;"/><path class="point" transform="translate(335.54,107.13)" d="M3,0A3,3 0 1,1 0,-3A3,3 0 0,1 3,0Z" style="opacity: 1; stroke-width: 0px; fill: rgb(0, 0, 139); fill-opacity: 1;"/><path class="point" transform="translate(336.56,104.85)" d="M3,0A3,3 0 1,1 0,-3A3,3 0 0,1 3,0Z" style="opacity: 1; stroke-width: 0px; fill: rgb(0, 0, 139); fill-opacity: 1;"/><path class="point" transform="translate(335.9,102.73)" d="M3,0A3,3 0 1,1 0,-3A3,3 0 0,1 3,0Z" style="opacity: 1; stroke-width: 0px; fill: rgb(0, 0, 139); fill-opacity: 1;"/><path class="point" transform="translate(337.03,99.66)" d="M3,0A3,3 0 1,1 0,-3A3,3 0 0,1 3,0Z" style="opacity: 1; stroke-width: 0px; fill: rgb(0, 0, 139); fill-opacity: 1;"/></g></g><g class="trace violins" style="opacity: 1;"><path class="violin" d="M422.88,16L421.75,16Q421.12,20.94 420.65,23.4C420.17,25.87 419.6,28.34 418.89,30.79C418.17,33.27 417.31,35.74 416.36,38.19C415.4,40.67 414.28,43.13 413.15,45.58C412.01,48.06 410.74,50.51 409.57,52.98C408.4,55.44 407.16,57.89 406.12,60.38C405.1,62.82 404.1,65.28 403.38,67.77C402.68,70.21 402.11,72.69 401.83,75.17C401.56,77.62 401.53,80.11 401.72,82.57C401.91,85.04 402.41,87.51 403,89.96C403.6,92.45 404.45,94.91 405.3,97.36C406.15,99.84 407.18,102.28 408.1,104.75C409.02,107.21 410.01,109.67 410.83,112.15C411.64,114.6 412.42,117.07 413.02,119.55C413.62,122 414.09,124.47 414.44,126.94C414.79,129.4 414.99,131.87 415.13,134.34C415.27,136.8 415.27,139.27 415.31,141.73C415.35,144.2 415.31,146.66 415.35,149.13C415.39,151.6 415.43,154.07 415.55,156.53C415.68,159 415.86,161.46 416.1,163.92C416.34,166.39 416.66,168.86 417.01,171.32C417.36,173.79 417.78,176.25 418.18,178.71C418.58,181.18 419.01,183.64 419.4,186.11C419.79,188.58 420.18,191.04 420.52,193.51C420.85,195.97 421.15,198.43 421.41,200.9C421.66,203.36 421.88,205.83 422.05,208.3Q422.22,210.77 422.45,215.7L422.88,215.7" style="vector-effect: non-scaling-stroke; stroke-width: 2px; stroke: rgb(0, 0, 0); stroke-opacity: 1; fill: rgb(0, 0, 0); fill-opacity: 0.5;"/><path class="meanline" d="M405.4883728027344,97.9H422.88" style="fill: none; vector-effect: non-scaling-stroke; stroke-width: 2px; stroke-dasharray: 4px, 2px; stroke: rgb(0, 0, 0); stroke-opacity: 1;"/><g class="points"><path class="point" transform="translate(389.51,170.98)" d="M3,0A3,3 0 1,1 0,-3A3,3 0 0,1 3,0Z" style="opacity: 1; stroke-width: 0px; fill: rgb(0, 0, 0); fill-opacity: 1;"/><path class="point" transform="translate(388.81,154.45)" d="M3,0A3,3 0 1,1 0,-3A3,3 0 0,1 3,0Z" style="opacity: 1; stroke-width: 0px; fill: rgb(0, 0, 0); fill-opacity: 1;"/><path class="point" transform="translate(389.72,144.43)" d="M3,0A3,3 0 1,1 0,-3A3,3 0 0,1 3,0Z" style="opacity: 1; stroke-width: 0px; fill: rgb(0, 0, 0); fill-opacity: 1;"/><path class="point" transform="translate(388.61,108.64)" d="M3,0A3,3 0 1,1 0,-3A3,3 0 0,1 3,0Z" style="opacity: 1; stroke-width: 0px; fill: rgb(0, 0, 0); fill-opacity: 1;"/><path class="point" transform="translate(389.03,98.42)" d="M3,0A3,3 0 1,1 0,-3A3,3 0 0,1 3,0Z" style="opacity: 1; stroke-width: 0px; fill: rgb(0, 0, 0); fill-opacity: 1;"/><path class="point" transform="translate(389.59,87.85)" d="M3,0A3,3 0 1,1 0,-3A3,3 0 0,1 3,0Z" style="opacity: 1; stroke-width: 0px; fill: rgb(0, 0, 0); fill-opacity: 1;"/><path class="point" transform="translate(389.18,85.45)" d="M3,0A3,3 0 1,1 0,-3A3,3 0 0,1 3,0Z" style="opacity: 1; stroke-width: 0px; fill: rgb(0, 0, 0); fill-opacity: 1;"/><path class="point" transform="translate(389.44,83.07)" d="M3,0A3,3 0 1,1 0,-3A3,3 0 0,1 3,0Z" style="opacity: 1; stroke-width: 0px; fill: rgb(0, 0, 0); fill-opacity: 1;"/><path class="point" transform="translate(388.88,79.99)" d="M3,0A3,3 0 1,1 0,-3A3,3 0 0,1 3,0Z" style="opacity: 1; stroke-width: 0px; fill: rgb(0, 0, 0); fill-opacity: 1;"/><path class="point" transform="translate(388.41,72.13)" d="M3,0A3,3 0 1,1 0,-3A3,3 0 0,1 3,0Z" style="opacity: 1; stroke-width: 0px; fill: rgb(0, 0, 0); fill-opacity: 1;"/><path class="point" transform="translate(389.53,63.65)" d="M3,0A3,3 0 1,1 0,-3A3,3 0 0,1 3,0Z" style="opacity: 1; stroke-width: 0px; fill: rgb(0, 0, 0); fill-opacity: 1;"/><path class="point" transform="translate(388.82,62.95)" d="M3,0A3,3 0 1,1 0,-3A3,3 0 0,1 3,0Z" style="opacity: 1; stroke-width: 0px; fill: rgb(0, 0, 0); fill-opacity: 1;"/><path class="point" transform="translate(389.92,60.72)" d="M3,0A3,3 0 1,1 0,-3A3,3 0 0,1 3,0Z" style="opacity: 1; stroke-width: 0px; fill: rgb(0, 0, 0); fill-opacity: 1;"/></g></g><g class="trace violins" style="opacity: 1;"><path class="violin" d="M422.88,304L423.33,304Q423.55,298.29 423.7,295.44C423.86,292.59 424.05,289.74 424.26,286.89C424.48,284.04 424.72,281.18 424.99,278.33C425.26,275.48 425.55,272.62 425.86,269.77C426.17,266.92 426.5,264.07 426.85,261.22C427.2,258.37 427.56,255.51 427.94,252.66C428.32,249.81 428.72,246.96 429.15,244.11C429.58,241.26 430.04,238.4 430.51,235.55C430.99,232.69 431.5,229.84 432,226.99C432.49,224.14 433.01,221.29 433.48,218.44C433.94,215.59 434.4,212.74 434.79,209.88C435.18,207.03 435.52,204.17 435.83,201.32C436.14,198.47 436.37,195.62 436.67,192.77C436.97,189.92 437.22,187.06 437.61,184.21C438,181.35 438.43,178.49 438.99,175.65C439.55,172.79 440.24,169.94 440.97,167.1C441.7,164.24 442.6,161.4 443.37,158.54C444.14,155.69 445.02,152.86 445.61,149.99C446.2,147.15 446.75,144.29 446.93,141.43C447.11,138.58 447.05,135.7 446.68,132.87C446.3,130 445.56,127.14 444.66,124.32C443.74,121.43 442.45,118.59 441.17,115.76C439.87,112.88 438.33,110.05 436.92,107.2C435.51,104.35 434,101.52 432.69,98.65C431.4,95.82 430.15,92.97 429.11,90.09C428.09,87.26 427.2,84.4 426.47,81.53Q425.75,78.7 424.76,72.98L422.88,72.98" style="vector-effect: non-scaling-stroke; stroke-width: 2px; stroke: rgb(128, 128, 128); stroke-opacity: 1; fill: rgb(128, 128, 128); fill-opacity: 0.5;"/><path class="meanline" d="M441.8381042480469,163.92H422.88" style="fill: none; vector-effect: non-scaling-stroke; stroke-width: 2px; stroke-dasharray: 4px, 2px; stroke: rgb(128, 128, 128); stroke-opacity: 1;"/><g class="points"><path class="point" transform="translate(456.8,250.79)" d="M3,0A3,3 0 1,1 0,-3A3,3 0 0,1 3,0Z" style="opacity: 1; stroke-width: 0px; fill: rgb(128, 128, 128); fill-opacity: 1;"/><path class="point" transform="translate(456.22,205.25)" d="M3,0A3,3 0 1,1 0,-3A3,3 0 0,1 3,0Z" style="opacity: 1; stroke-width: 0px; fill: rgb(128, 128, 128); fill-opacity: 1;"/><path class="point" transform="translate(456.97,205.25)" d="M3,0A3,3 0 1,1 0,-3A3,3 0 0,1 3,0Z" style="opacity: 1; stroke-width: 0px; fill: rgb(128, 128, 128); fill-opacity: 1;"/><path class="point" transform="translate(456.07,198.97)" d="M3,0A3,3 0 1,1 0,-3A3,3 0 0,1 3,0Z" style="opacity: 1; stroke-width: 0px; fill: rgb(128, 128, 128); fill-opacity: 1;"/><path class="point" transform="translate(456.4,167.31)" d="M3,0A3,3 0 1,1 0,-3A3,3 0 0,1 3,0Z" style="opacity: 1; stroke-width: 0px; fill: rgb(128, 128, 128); fill-opacity: 1;"/><path class="point" transform="translate(456.88,146.64)" d="M3,0A3,3 0 1,1 0,-3A3,3 0 0,1 3,0Z" style="opacity: 1; stroke-width: 0px; fill: rgb(128, 128, 128); fill-opacity: 1;"/><path class="point" transform="translate(456.52,142.87)" d="M3,0A3,3 0 1,1 0,-3A3,3 0 0,1 3,0Z" style="opacity: 1; stroke-width: 0px; fill: rgb(128, 128, 128); fill-opacity: 1;"/><path class="point" transform="translate(456.76,136.68)" d="M3,0A3,3 0 1,1 0,-3A3,3 0 0,1 3,0Z" style="opacity: 1; stroke-width: 0px; fill: rgb(128, 128, 128); fill-opacity: 1;"/><path class="point" transform="translate(456.32,129.3)" d="M3,0A3,3 0 1,1 0,-3A3,3 0 0,1 3,0Z" style="opacity: 1; stroke-width: 0px; fill: rgb(128, 128, 128); fill-opacity: 1;"/><path class="point" transform="translate(455.88,128.9)" d="M3,0A3,3 0 1,1 0,-3A3,3 0 0,1 3,0Z" style="opacity: 1; stroke-width: 0px; fill: rgb(128, 128, 128); fill-opacity: 1;"/><path class="point" transform="translate(456.87,128.9)" d="M3,0A3,3 0 1,1 0,-3A3,3 0 0,1 3,0Z" style="opacity: 1; stroke-width: 0px; fill: rgb(128, 128, 128); fill-opacity: 1;"/><path class="point" transform="translate(456.15,126.19)" d="M3,0A3,3 0 1,1 0,-3A3,3 0 0,1 3,0Z" style="opacity: 1; stroke-width: 0px; fill: rgb(128, 128, 128); fill-opacity: 1;"/></g></g></g></g><g class="overplot"/><path class="xlines-above crisp" d="M79,420.5H565" style="fill: none; stroke-width: 1px; stroke: rgb(255, 255, 255); stroke-opacity: 1;"/><path class="ylines-above crisp" d="M79.5,100V420" style="fill: none; stroke-width: 1px; stroke: rgb(255, 255, 255); stroke-opacity: 1;"/><g class="overlines-above"/><g class="xaxislayer-above"><g class="xtick"><text text-anchor="middle" x="0" y="435.4" transform="translate(142.12,0)" style="font-family: 'Open Sans', verdana, arial, sans-serif; font-size: 12px; fill: rgb(42, 63, 95); fill-opacity: 1; white-space: pre;">SGD Classifier</text></g><g class="xtick"><text text-anchor="middle" x="0" y="435.4" transform="translate(262.37,0)" style="font-family: 'Open Sans', verdana, arial, sans-serif; font-size: 12px; fill: rgb(42, 63, 95); fill-opacity: 1; white-space: pre;">Bernoulli NB</text></g><g class="xtick"><text text-anchor="middle" x="0" y="435.4" transform="translate(382.63,0)" style="font-family: 'Open Sans', verdana, arial, sans-serif; font-size: 12px; fill: rgb(42, 63, 95); fill-opacity: 1; white-space: pre;">Logistic Regresion</text></g><g class="xtick"><text text-anchor="middle" x="0" y="435.4" transform="translate(502.88,0)" style="font-family: 'Open Sans', verdana, arial, sans-serif; font-size: 12px; fill: rgb(42, 63, 95); fill-opacity: 1; white-space: pre;">Multinomial NB</text></g></g><g class="yaxislayer-above"><g class="ytick"><text text-anchor="end" x="76.6" y="4.199999999999999" transform="translate(0,380.61)" style="font-family: 'Open Sans', verdana, arial, sans-serif; font-size: 12px; fill: rgb(42, 63, 95); fill-opacity: 1; white-space: pre;">0</text></g><g class="ytick"><text text-anchor="end" x="76.6" y="4.199999999999999" transform="translate(0,328.57)" style="font-family: 'Open Sans', verdana, arial, sans-serif; font-size: 12px; fill: rgb(42, 63, 95); fill-opacity: 1; white-space: pre;">0.1</text></g><g class="ytick"><text text-anchor="end" x="76.6" y="4.199999999999999" transform="translate(0,276.52)" style="font-family: 'Open Sans', verdana, arial, sans-serif; font-size: 12px; fill: rgb(42, 63, 95); fill-opacity: 1; white-space: pre;">0.2</text></g><g class="ytick"><text text-anchor="end" x="76.6" y="4.199999999999999" transform="translate(0,224.48000000000002)" style="font-family: 'Open Sans', verdana, arial, sans-serif; font-size: 12px; fill: rgb(42, 63, 95); fill-opacity: 1; white-space: pre;">0.3</text></g><g class="ytick"><text text-anchor="end" x="76.6" y="4.199999999999999" transform="translate(0,172.43)" style="font-family: 'Open Sans', verdana, arial, sans-serif; font-size: 12px; fill: rgb(42, 63, 95); fill-opacity: 1; white-space: pre;">0.4</text></g><g class="ytick"><text text-anchor="end" x="76.6" y="4.199999999999999" transform="translate(0,120.38)" style="font-family: 'Open Sans', verdana, arial, sans-serif; font-size: 12px; fill: rgb(42, 63, 95); fill-opacity: 1; white-space: pre;">0.5</text></g></g><g class="overaxes-above"/></g></g><g class="polarlayer"/><g class="ternarylayer"/><g class="geolayer"/><g class="funnelarealayer"/><g class="pielayer"/><g class="treemaplayer"/><g class="sunburstlayer"/><g class="glimages"/><defs id="topdefs-216ba2"><g class="clips"/><clipPath id="legend216ba2"><rect width="113" height="162" x="0" y="0"/></clipPath></defs><g class="layer-above"><g class="imagelayer"/><g class="shapelayer"/></g><g class="infolayer"><g class="legend" pointer-events="all" transform="translate(574.7, 100)"><rect class="bg" shape-rendering="crispEdges" width="113" height="162" x="0" y="0" style="stroke: rgb(68, 68, 68); stroke-opacity: 1; fill: rgb(255, 255, 255); fill-opacity: 1; stroke-width: 0px;"/><g class="scrollbox" transform="translate(0, 0)" clip-path="url('#legend216ba2')"><g class="groups"><g class="traces" transform="translate(0, 14.5)" style="opacity: 1;"><text class="legendtext user-select-none" text-anchor="start" x="40" y="4.680000000000001" style="font-family: 'Open Sans', verdana, arial, sans-serif; font-size: 12px; fill: rgb(42, 63, 95); fill-opacity: 1; white-space: pre;">BOW SGD</text><g class="layers" style="opacity: 1;"><g class="legendfill"/><g class="legendlines"/><g class="legendsymbols"><g class="legendpoints"><path class="legendbox" d="M6,6H-6V-6H6Z" transform="translate(20,0)" style="stroke-width: 2px; fill: rgb(0, 128, 0); fill-opacity: 0.5; stroke: rgb(0, 128, 0); stroke-opacity: 1;"/></g></g></g><rect class="legendtoggle" pointer-events="all" x="0" y="-9.5" width="107.03125" height="19" style="cursor: pointer; fill: rgb(0, 0, 0); fill-opacity: 0;"/></g><g class="traces" transform="translate(0, 33.5)" style="opacity: 1;"><text class="legendtext user-select-none" text-anchor="start" x="40" y="4.680000000000001" style="font-family: 'Open Sans', verdana, arial, sans-serif; font-size: 12px; fill: rgb(42, 63, 95); fill-opacity: 1; white-space: pre;">TFIDF SGD</text><g class="layers" style="opacity: 1;"><g class="legendfill"/><g class="legendlines"/><g class="legendsymbols"><g class="legendpoints"><path class="legendbox" d="M6,6H-6V-6H6Z" transform="translate(20,0)" style="stroke-width: 2px; fill: rgb(32, 178, 170); fill-opacity: 0.5; stroke: rgb(32, 178, 170); stroke-opacity: 1;"/></g></g></g><rect class="legendtoggle" pointer-events="all" x="0" y="-9.5" width="107.03125" height="19" style="cursor: pointer; fill: rgb(0, 0, 0); fill-opacity: 0;"/></g><g class="traces" transform="translate(0, 52.5)" style="opacity: 1;"><text class="legendtext user-select-none" text-anchor="start" x="40" y="4.680000000000001" style="font-family: 'Open Sans', verdana, arial, sans-serif; font-size: 12px; fill: rgb(42, 63, 95); fill-opacity: 1; white-space: pre;">BOW BNB</text><g class="layers" style="opacity: 1;"><g class="legendfill"/><g class="legendlines"/><g class="legendsymbols"><g class="legendpoints"><path class="legendbox" d="M6,6H-6V-6H6Z" transform="translate(20,0)" style="stroke-width: 2px; fill: rgb(255, 0, 0); fill-opacity: 0.5; stroke: rgb(255, 0, 0); stroke-opacity: 1;"/></g></g></g><rect class="legendtoggle" pointer-events="all" x="0" y="-9.5" width="107.03125" height="19" style="cursor: pointer; fill: rgb(0, 0, 0); fill-opacity: 0;"/></g><g class="traces" transform="translate(0, 71.5)" style="opacity: 1;"><text class="legendtext user-select-none" text-anchor="start" x="40" y="4.680000000000001" style="font-family: 'Open Sans', verdana, arial, sans-serif; font-size: 12px; fill: rgb(42, 63, 95); fill-opacity: 1; white-space: pre;">TFIDF BNB</text><g class="layers" style="opacity: 1;"><g class="legendfill"/><g class="legendlines"/><g class="legendsymbols"><g class="legendpoints"><path class="legendbox" d="M6,6H-6V-6H6Z" transform="translate(20,0)" style="stroke-width: 2px; fill: rgb(139, 0, 139); fill-opacity: 0.5; stroke: rgb(139, 0, 139); stroke-opacity: 1;"/></g></g></g><rect class="legendtoggle" pointer-events="all" x="0" y="-9.5" width="107.03125" height="19" style="cursor: pointer; fill: rgb(0, 0, 0); fill-opacity: 0;"/></g><g class="traces" transform="translate(0, 90.5)" style="opacity: 1;"><text class="legendtext user-select-none" text-anchor="start" x="40" y="4.680000000000001" style="font-family: 'Open Sans', verdana, arial, sans-serif; font-size: 12px; fill: rgb(42, 63, 95); fill-opacity: 1; white-space: pre;">BOW LR</text><g class="layers" style="opacity: 1;"><g class="legendfill"/><g class="legendlines"/><g class="legendsymbols"><g class="legendpoints"><path class="legendbox" d="M6,6H-6V-6H6Z" transform="translate(20,0)" style="stroke-width: 2px; fill: rgb(0, 0, 255); fill-opacity: 0.5; stroke: rgb(0, 0, 255); stroke-opacity: 1;"/></g></g></g><rect class="legendtoggle" pointer-events="all" x="0" y="-9.5" width="107.03125" height="19" style="cursor: pointer; fill: rgb(0, 0, 0); fill-opacity: 0;"/></g><g class="traces" transform="translate(0, 109.5)" style="opacity: 1;"><text class="legendtext user-select-none" text-anchor="start" x="40" y="4.680000000000001" style="font-family: 'Open Sans', verdana, arial, sans-serif; font-size: 12px; fill: rgb(42, 63, 95); fill-opacity: 1; white-space: pre;">TFIDF LR</text><g class="layers" style="opacity: 1;"><g class="legendfill"/><g class="legendlines"/><g class="legendsymbols"><g class="legendpoints"><path class="legendbox" d="M6,6H-6V-6H6Z" transform="translate(20,0)" style="stroke-width: 2px; fill: rgb(0, 0, 139); fill-opacity: 0.5; stroke: rgb(0, 0, 139); stroke-opacity: 1;"/></g></g></g><rect class="legendtoggle" pointer-events="all" x="0" y="-9.5" width="107.03125" height="19" style="cursor: pointer; fill: rgb(0, 0, 0); fill-opacity: 0;"/></g><g class="traces" transform="translate(0, 128.5)" style="opacity: 1;"><text class="legendtext user-select-none" text-anchor="start" x="40" y="4.680000000000001" style="font-family: 'Open Sans', verdana, arial, sans-serif; font-size: 12px; fill: rgb(42, 63, 95); fill-opacity: 1; white-space: pre;">BOW MNB</text><g class="layers" style="opacity: 1;"><g class="legendfill"/><g class="legendlines"/><g class="legendsymbols"><g class="legendpoints"><path class="legendbox" d="M6,6H-6V-6H6Z" transform="translate(20,0)" style="stroke-width: 2px; fill: rgb(0, 0, 0); fill-opacity: 0.5; stroke: rgb(0, 0, 0); stroke-opacity: 1;"/></g></g></g><rect class="legendtoggle" pointer-events="all" x="0" y="-9.5" width="107.03125" height="19" style="cursor: pointer; fill: rgb(0, 0, 0); fill-opacity: 0;"/></g><g class="traces" transform="translate(0, 147.5)" style="opacity: 1;"><text class="legendtext user-select-none" text-anchor="start" x="40" y="4.680000000000001" style="font-family: 'Open Sans', verdana, arial, sans-serif; font-size: 12px; fill: rgb(42, 63, 95); fill-opacity: 1; white-space: pre;">TFIDF MNB</text><g class="layers" style="opacity: 1;"><g class="legendfill"/><g class="legendlines"/><g class="legendsymbols"><g class="legendpoints"><path class="legendbox" d="M6,6H-6V-6H6Z" transform="translate(20,0)" style="stroke-width: 2px; fill: rgb(128, 128, 128); fill-opacity: 0.5; stroke: rgb(128, 128, 128); stroke-opacity: 1;"/></g></g></g><rect class="legendtoggle" pointer-events="all" x="0" y="-9.5" width="107.03125" height="19" style="cursor: pointer; fill: rgb(0, 0, 0); fill-opacity: 0;"/></g></g></g><rect class="scrollbar" rx="20" ry="3" width="0" height="0" x="0" y="0" style="fill: rgb(128, 139, 164); fill-opacity: 1;"/></g><g class="g-gtitle"><text class="gtitle" x="35" y="50" text-anchor="start" dy="0em" style="font-family: 'Open Sans', verdana, arial, sans-serif; font-size: 17px; fill: rgb(42, 63, 95); opacity: 1; font-weight: normal; white-space: pre;">F1</text></g><g class="g-xtitle"/><g class="g-ytitle"/></g></svg>