<svg class="main-svg" xmlns="http://www.w3.org/2000/svg" xmlns:xlink="http://www.w3.org/1999/xlink" width="700" height="500" style="" viewBox="0 0 700 500"><rect x="0" y="0" width="700" height="500" style="fill: rgb(255, 255, 255); fill-opacity: 1;"/><defs id="defs-c045ef"><g class="clips"><clipPath id="clipc045efxyplot" class="plotclip"><rect width="510" height="320"/></clipPath><clipPath class="axesclip" id="clipc045efx"><rect x="80" y="0" width="510" height="500"/></clipPath><clipPath class="axesclip" id="clipc045efy"><rect x="0" y="100" width="700" height="320"/></clipPath><clipPath class="axesclip" id="clipc045efxy"><rect x="80" y="100" width="510" height="320"/></clipPath></g><g class="gradients"/></defs><g class="bglayer"><rect class="bg" x="80" y="100" width="510" height="320" style="fill: rgb(229, 236, 246); fill-opacity: 1; stroke-width: 0;"/></g><g class="layer-below"><g class="imagelayer"/><g class="shapelayer"/></g><g class="cartesianlayer"><g class="subplot xy"><g class="layer-subplot"><g class="shapelayer"/><g class="imagelayer"/></g><g class="gridlayer"><g class="x"><path class="xgrid crisp" transform="translate(143.38,0)" d="M0,100v320" style="stroke: rgb(255, 255, 255); stroke-opacity: 1; stroke-width: 1px;"/><path class="xgrid crisp" transform="translate(270.13,0)" d="M0,100v320" style="stroke: rgb(255, 255, 255); stroke-opacity: 1; stroke-width: 1px;"/><path class="xgrid crisp" transform="translate(396.88,0)" d="M0,100v320" style="stroke: rgb(255, 255, 255); stroke-opacity: 1; stroke-width: 1px;"/><path class="xgrid crisp" transform="translate(523.63,0)" d="M0,100v320" style="stroke: rgb(255, 255, 255); stroke-opacity: 1; stroke-width: 1px;"/></g><g class="y"><path class="ygrid crisp" transform="translate(0,360.4)" d="M80,0h510" style="stroke: rgb(255, 255, 255); stroke-opacity: 1; stroke-width: 1px;"/><path class="ygrid crisp" transform="translate(0,292.65)" d="M80,0h510" style="stroke: rgb(255, 255, 255); stroke-opacity: 1; stroke-width: 1px;"/><path class="ygrid crisp" transform="translate(0,224.9)" d="M80,0h510" style="stroke: rgb(255, 255, 255); stroke-opacity: 1; stroke-width: 1px;"/><path class="ygrid crisp" transform="translate(0,157.15)" d="M80,0h510" style="stroke: rgb(255, 255, 255); stroke-opacity: 1; stroke-width: 1px;"/></g></g><g class="zerolinelayer"/><path class="xlines-below"/><path class="ylines-below"/><g class="overlines-below"/><g class="xaxislayer-below"/><g class="yaxislayer-below"/><g class="overaxes-below"/><g class="plot" transform="translate(80, 100)" clip-path="url('#clipc045efxyplot')"><g class="violinlayer mlayer"><g class="trace violins" style="opacity: 1;"><path class="violin" d="M63.52,286.74Q63.59,282.51 63.64,280.39C63.69,278.27 63.75,276.16 63.81,274.04C63.88,271.92 63.95,269.81 64.03,267.69C64.11,265.57 64.19,263.46 64.27,261.34C64.35,259.22 64.43,257.11 64.5,254.99C64.57,252.88 64.64,250.76 64.71,248.65C64.78,246.53 64.84,244.42 64.9,242.3C64.97,240.18 65.02,238.07 65.1,235.95C65.18,233.83 65.26,231.72 65.38,229.6C65.5,227.48 65.63,225.37 65.8,223.25C65.97,221.13 66.18,219.01 66.42,216.9C66.67,214.78 66.94,212.66 67.27,210.55C67.6,208.43 67.98,206.31 68.4,204.2C68.82,202.08 69.29,199.96 69.8,197.85C70.31,195.73 70.86,193.61 71.44,191.5C72.02,189.38 72.65,187.26 73.28,185.15C73.91,183.03 74.59,180.92 75.24,178.8C75.89,176.68 76.56,174.57 77.2,172.45C77.84,170.34 78.49,168.22 79.08,166.1C79.67,163.99 80.23,161.87 80.74,159.75C81.24,157.64 81.71,155.53 82.12,153.41C82.53,151.3 82.88,149.18 83.19,147.06C83.5,144.95 83.75,142.83 83.98,140.71C84.21,138.6 84.39,136.48 84.56,134.36C84.73,132.24 84.88,130.13 85.01,128.01C85.14,125.89 85.25,123.78 85.32,121.66C85.39,119.54 85.45,117.43 85.44,115.31C85.43,113.19 85.4,111.07 85.27,108.96C85.14,106.84 84.96,104.72 84.68,102.61C84.4,100.49 84.03,98.37 83.57,96.26C83.1,94.13 82.53,92.02 81.89,89.91C81.24,87.78 80.49,85.67 79.71,83.56C78.92,81.43 78.04,79.32 77.17,77.21C76.3,75.09 75.36,72.98 74.48,70.86C73.6,68.75 72.7,66.64 71.88,64.52C71.06,62.41 70.26,60.3 69.55,58.17C68.84,56.06 68.19,53.95 67.62,51.82C67.05,49.71 66.56,47.59 66.13,45.47C65.7,43.36 65.35,41.24 65.05,39.12C64.75,37.01 64.53,34.89 64.33,32.77C64.14,30.66 64,28.54 63.88,26.42Q63.76,24.3 63.62,20.07L63.13,20.07Q62.99,24.3 62.87,26.42C62.75,28.54 62.61,30.66 62.42,32.77C62.22,34.89 62,37.01 61.7,39.12C61.4,41.24 61.05,43.36 60.62,45.47C60.19,47.59 59.7,49.71 59.13,51.82C58.56,53.95 57.91,56.06 57.2,58.17C56.49,60.3 55.69,62.41 54.87,64.52C54.05,66.64 53.15,68.75 52.27,70.86C51.39,72.98 50.45,75.09 49.58,77.21C48.71,79.32 47.83,81.43 47.04,83.56C46.26,85.67 45.51,87.78 44.86,89.91C44.22,92.02 43.65,94.13 43.18,96.26C42.72,98.37 42.35,100.49 42.07,102.61C41.79,104.72 41.61,106.84 41.48,108.96C41.35,111.07 41.32,113.19 41.31,115.31C41.3,117.43 41.36,119.54 41.43,121.66C41.5,123.78 41.61,125.89 41.74,128.01C41.87,130.13 42.02,132.24 42.19,134.36C42.36,136.48 42.54,138.6 42.77,140.71C43,142.83 43.25,144.95 43.56,147.06C43.87,149.18 44.22,151.3 44.63,153.41C45.04,155.53 45.51,157.64 46.01,159.75C46.52,161.87 47.08,163.99 47.67,166.1C48.26,168.22 48.91,170.34 49.55,172.45C50.19,174.57 50.86,176.68 51.51,178.8C52.16,180.92 52.84,183.03 53.47,185.15C54.1,187.26 54.73,189.38 55.31,191.5C55.89,193.61 56.44,195.73 56.95,197.85C57.46,199.96 57.93,202.08 58.35,204.2C58.77,206.31 59.15,208.43 59.48,210.55C59.81,212.66 60.08,214.78 60.33,216.9C60.57,219.01 60.78,221.13 60.95,223.25C61.12,225.37 61.25,227.48 61.37,229.6C61.49,231.72 61.57,233.83 61.65,235.95C61.73,238.07 61.78,240.18 61.85,242.3C61.91,244.42 61.97,246.53 62.04,248.65C62.11,250.76 62.18,252.88 62.25,254.99C62.32,257.11 62.4,259.22 62.48,261.34C62.56,263.46 62.64,265.57 62.72,267.69C62.8,269.81 62.87,271.92 62.94,274.04C63,276.16 63.06,278.27 63.11,280.39Q63.16,282.51 63.23,286.74Z" style="vector-effect: non-scaling-stroke; stroke-width: 2px; stroke: rgb(0, 128, 0); stroke-opacity: 1; fill: rgb(0, 128, 0); fill-opacity: 0.5;"/><path class="box" d="M57.04,123.12H69.71M57.04,154.43H69.71V96.38H57.04ZM63.38,154.43V215.23M63.38,96.38V58.89" style="vector-effect: non-scaling-stroke; stroke-width: 2px; stroke: rgb(0, 128, 0); stroke-opacity: 1; fill: rgb(0, 128, 0); fill-opacity: 0.5;"/><path class="mean" d="M57.04,130.32H69.71" style="fill: none; vector-effect: non-scaling-stroke; stroke-width: 2px; stroke-dasharray: 4px, 2px; stroke: rgb(0, 128, 0); stroke-opacity: 1;"/><g class="points"><path class="point" transform="translate(99.1,247.92)" d="M3,0A3,3 0 1,1 0,-3A3,3 0 0,1 3,0Z" style="opacity: 1; stroke-width: 0px; fill: rgb(0, 128, 0); fill-opacity: 1;"/><path class="point" transform="translate(98.56,215.23)" d="M3,0A3,3 0 1,1 0,-3A3,3 0 0,1 3,0Z" style="opacity: 1; stroke-width: 0px; fill: rgb(0, 128, 0); fill-opacity: 1;"/><path class="point" transform="translate(99.26,197.86)" d="M3,0A3,3 0 1,1 0,-3A3,3 0 0,1 3,0Z" style="opacity: 1; stroke-width: 0px; fill: rgb(0, 128, 0); fill-opacity: 1;"/><path class="point" transform="translate(98.42,189.18)" d="M3,0A3,3 0 1,1 0,-3A3,3 0 0,1 3,0Z" style="opacity: 1; stroke-width: 0px; fill: rgb(0, 128, 0); fill-opacity: 1;"/><path class="point" transform="translate(98.73,180.49)" d="M3,0A3,3 0 1,1 0,-3A3,3 0 0,1 3,0Z" style="opacity: 1; stroke-width: 0px; fill: rgb(0, 128, 0); fill-opacity: 1;"/><path class="point" transform="translate(99.17,180.49)" d="M3,0A3,3 0 1,1 0,-3A3,3 0 0,1 3,0Z" style="opacity: 1; stroke-width: 0px; fill: rgb(0, 128, 0); fill-opacity: 1;"/><path class="point" transform="translate(98.84,176.61)" d="M3,0A3,3 0 1,1 0,-3A3,3 0 0,1 3,0Z" style="opacity: 1; stroke-width: 0px; fill: rgb(0, 128, 0); fill-opacity: 1;"/><path class="point" transform="translate(99.1,171.81)" d="M3,0A3,3 0 1,1 0,-3A3,3 0 0,1 3,0Z" style="opacity: 1; stroke-width: 0px; fill: rgb(0, 128, 0); fill-opacity: 1;"/><path class="point" transform="translate(98.58,167.69)" d="M3,0A3,3 0 1,1 0,-3A3,3 0 0,1 3,0Z" style="opacity: 1; stroke-width: 0px; fill: rgb(0, 128, 0); fill-opacity: 1;"/><path class="point" transform="translate(98.17,163.12)" d="M3,0A3,3 0 1,1 0,-3A3,3 0 0,1 3,0Z" style="opacity: 1; stroke-width: 0px; fill: rgb(0, 128, 0); fill-opacity: 1;"/><path class="point" transform="translate(99.1,163.12)" d="M3,0A3,3 0 1,1 0,-3A3,3 0 0,1 3,0Z" style="opacity: 1; stroke-width: 0px; fill: rgb(0, 128, 0); fill-opacity: 1;"/><path class="point" transform="translate(98.55,158.78)" d="M3,0A3,3 0 1,1 0,-3A3,3 0 0,1 3,0Z" style="opacity: 1; stroke-width: 0px; fill: rgb(0, 128, 0); fill-opacity: 1;"/><path class="point" transform="translate(99.52,154.43)" d="M3,0A3,3 0 1,1 0,-3A3,3 0 0,1 3,0Z" style="opacity: 1; stroke-width: 0px; fill: rgb(0, 128, 0); fill-opacity: 1;"/><path class="point" transform="translate(97.77,154.43)" d="M3,0A3,3 0 1,1 0,-3A3,3 0 0,1 3,0Z" style="opacity: 1; stroke-width: 0px; fill: rgb(0, 128, 0); fill-opacity: 1;"/><path class="point" transform="translate(98.13,149.86)" d="M3,0A3,3 0 1,1 0,-3A3,3 0 0,1 3,0Z" style="opacity: 1; stroke-width: 0px; fill: rgb(0, 128, 0); fill-opacity: 1;"/><path class="point" transform="translate(99.86,145.75)" d="M3,0A3,3 0 1,1 0,-3A3,3 0 0,1 3,0Z" style="opacity: 1; stroke-width: 0px; fill: rgb(0, 128, 0); fill-opacity: 1;"/><path class="point" transform="translate(98.58,145.75)" d="M3,0A3,3 0 1,1 0,-3A3,3 0 0,1 3,0Z" style="opacity: 1; stroke-width: 0px; fill: rgb(0, 128, 0); fill-opacity: 1;"/><path class="point" transform="translate(97.91,145.75)" d="M3,0A3,3 0 1,1 0,-3A3,3 0 0,1 3,0Z" style="opacity: 1; stroke-width: 0px; fill: rgb(0, 128, 0); fill-opacity: 1;"/><path class="point" transform="translate(98.52,145.75)" d="M3,0A3,3 0 1,1 0,-3A3,3 0 0,1 3,0Z" style="opacity: 1; stroke-width: 0px; fill: rgb(0, 128, 0); fill-opacity: 1;"/><path class="point" transform="translate(98.84,145.75)" d="M3,0A3,3 0 1,1 0,-3A3,3 0 0,1 3,0Z" style="opacity: 1; stroke-width: 0px; fill: rgb(0, 128, 0); fill-opacity: 1;"/><path class="point" transform="translate(99.36,140.95)" d="M3,0A3,3 0 1,1 0,-3A3,3 0 0,1 3,0Z" style="opacity: 1; stroke-width: 0px; fill: rgb(0, 128, 0); fill-opacity: 1;"/><path class="point" transform="translate(98.99,137.06)" d="M3,0A3,3 0 1,1 0,-3A3,3 0 0,1 3,0Z" style="opacity: 1; stroke-width: 0px; fill: rgb(0, 128, 0); fill-opacity: 1;"/><path class="point" transform="translate(98.57,132.03)" d="M3,0A3,3 0 1,1 0,-3A3,3 0 0,1 3,0Z" style="opacity: 1; stroke-width: 0px; fill: rgb(0, 128, 0); fill-opacity: 1;"/><path class="point" transform="translate(98,128.38)" d="M3,0A3,3 0 1,1 0,-3A3,3 0 0,1 3,0Z" style="opacity: 1; stroke-width: 0px; fill: rgb(0, 128, 0); fill-opacity: 1;"/><path class="point" transform="translate(98.86,123.12)" d="M3,0A3,3 0 1,1 0,-3A3,3 0 0,1 3,0Z" style="opacity: 1; stroke-width: 0px; fill: rgb(0, 128, 0); fill-opacity: 1;"/><path class="point" transform="translate(98.57,123.12)" d="M3,0A3,3 0 1,1 0,-3A3,3 0 0,1 3,0Z" style="opacity: 1; stroke-width: 0px; fill: rgb(0, 128, 0); fill-opacity: 1;"/><path class="point" transform="translate(99.35,123.12)" d="M3,0A3,3 0 1,1 0,-3A3,3 0 0,1 3,0Z" style="opacity: 1; stroke-width: 0px; fill: rgb(0, 128, 0); fill-opacity: 1;"/><path class="point" transform="translate(98.76,119.69)" d="M3,0A3,3 0 1,1 0,-3A3,3 0 0,1 3,0Z" style="opacity: 1; stroke-width: 0px; fill: rgb(0, 128, 0); fill-opacity: 1;"/><path class="point" transform="translate(98.04,119.69)" d="M3,0A3,3 0 1,1 0,-3A3,3 0 0,1 3,0Z" style="opacity: 1; stroke-width: 0px; fill: rgb(0, 128, 0); fill-opacity: 1;"/><path class="point" transform="translate(97.7,119.69)" d="M3,0A3,3 0 1,1 0,-3A3,3 0 0,1 3,0Z" style="opacity: 1; stroke-width: 0px; fill: rgb(0, 128, 0); fill-opacity: 1;"/><path class="point" transform="translate(99.52,114.21)" d="M3,0A3,3 0 1,1 0,-3A3,3 0 0,1 3,0Z" style="opacity: 1; stroke-width: 0px; fill: rgb(0, 128, 0); fill-opacity: 1;"/><path class="point" transform="translate(97.88,111.01)" d="M3,0A3,3 0 1,1 0,-3A3,3 0 0,1 3,0Z" style="opacity: 1; stroke-width: 0px; fill: rgb(0, 128, 0); fill-opacity: 1;"/><path class="point" transform="translate(99.52,111.01)" d="M3,0A3,3 0 1,1 0,-3A3,3 0 0,1 3,0Z" style="opacity: 1; stroke-width: 0px; fill: rgb(0, 128, 0); fill-opacity: 1;"/><path class="point" transform="translate(99.09,111.01)" d="M3,0A3,3 0 1,1 0,-3A3,3 0 0,1 3,0Z" style="opacity: 1; stroke-width: 0px; fill: rgb(0, 128, 0); fill-opacity: 1;"/><path class="point" transform="translate(98.56,105.29)" d="M3,0A3,3 0 1,1 0,-3A3,3 0 0,1 3,0Z" style="opacity: 1; stroke-width: 0px; fill: rgb(0, 128, 0); fill-opacity: 1;"/><path class="point" transform="translate(98.18,102.32)" d="M3,0A3,3 0 1,1 0,-3A3,3 0 0,1 3,0Z" style="opacity: 1; stroke-width: 0px; fill: rgb(0, 128, 0); fill-opacity: 1;"/><path class="point" transform="translate(99.44,102.32)" d="M3,0A3,3 0 1,1 0,-3A3,3 0 0,1 3,0Z" style="opacity: 1; stroke-width: 0px; fill: rgb(0, 128, 0); fill-opacity: 1;"/><path class="point" transform="translate(98.75,96.38)" d="M3,0A3,3 0 1,1 0,-3A3,3 0 0,1 3,0Z" style="opacity: 1; stroke-width: 0px; fill: rgb(0, 128, 0); fill-opacity: 1;"/><path class="point" transform="translate(99.58,93.63)" d="M3,0A3,3 0 1,1 0,-3A3,3 0 0,1 3,0Z" style="opacity: 1; stroke-width: 0px; fill: rgb(0, 128, 0); fill-opacity: 1;"/><path class="point" transform="translate(97.88,93.63)" d="M3,0A3,3 0 1,1 0,-3A3,3 0 0,1 3,0Z" style="opacity: 1; stroke-width: 0px; fill: rgb(0, 128, 0); fill-opacity: 1;"/><path class="point" transform="translate(99.67,93.63)" d="M3,0A3,3 0 1,1 0,-3A3,3 0 0,1 3,0Z" style="opacity: 1; stroke-width: 0px; fill: rgb(0, 128, 0); fill-opacity: 1;"/><path class="point" transform="translate(98.78,93.63)" d="M3,0A3,3 0 1,1 0,-3A3,3 0 0,1 3,0Z" style="opacity: 1; stroke-width: 0px; fill: rgb(0, 128, 0); fill-opacity: 1;"/><path class="point" transform="translate(98.4,87.46)" d="M3,0A3,3 0 1,1 0,-3A3,3 0 0,1 3,0Z" style="opacity: 1; stroke-width: 0px; fill: rgb(0, 128, 0); fill-opacity: 1;"/><path class="point" transform="translate(97.85,84.95)" d="M3,0A3,3 0 1,1 0,-3A3,3 0 0,1 3,0Z" style="opacity: 1; stroke-width: 0px; fill: rgb(0, 128, 0); fill-opacity: 1;"/><path class="point" transform="translate(98.51,84.95)" d="M3,0A3,3 0 1,1 0,-3A3,3 0 0,1 3,0Z" style="opacity: 1; stroke-width: 0px; fill: rgb(0, 128, 0); fill-opacity: 1;"/><path class="point" transform="translate(99.43,84.95)" d="M3,0A3,3 0 1,1 0,-3A3,3 0 0,1 3,0Z" style="opacity: 1; stroke-width: 0px; fill: rgb(0, 128, 0); fill-opacity: 1;"/><path class="point" transform="translate(98.67,76.26)" d="M3,0A3,3 0 1,1 0,-3A3,3 0 0,1 3,0Z" style="opacity: 1; stroke-width: 0px; fill: rgb(0, 128, 0); fill-opacity: 1;"/><path class="point" transform="translate(98.22,76.26)" d="M3,0A3,3 0 1,1 0,-3A3,3 0 0,1 3,0Z" style="opacity: 1; stroke-width: 0px; fill: rgb(0, 128, 0); fill-opacity: 1;"/><path class="point" transform="translate(99.25,67.58)" d="M3,0A3,3 0 1,1 0,-3A3,3 0 0,1 3,0Z" style="opacity: 1; stroke-width: 0px; fill: rgb(0, 128, 0); fill-opacity: 1;"/><path class="point" transform="translate(98.47,58.89)" d="M3,0A3,3 0 1,1 0,-3A3,3 0 0,1 3,0Z" style="opacity: 1; stroke-width: 0px; fill: rgb(0, 128, 0); fill-opacity: 1;"/></g></g><g class="trace violins" style="opacity: 1;"><path class="violin" d="M190.48,258.09Q190.68,253.84 190.83,251.72C190.98,249.6 191.16,247.47 191.38,245.35C191.6,243.22 191.86,241.1 192.14,238.98C192.42,236.85 192.75,234.73 193.07,232.61C193.39,230.49 193.73,228.36 194.04,226.24C194.35,224.12 194.67,222 194.93,219.87C195.19,217.75 195.42,215.62 195.61,213.49C195.8,211.37 195.94,209.24 196.06,207.12C196.18,205 196.26,202.87 196.35,200.75C196.44,198.63 196.51,196.5 196.6,194.38C196.7,192.26 196.79,190.13 196.92,188.01C197.05,185.89 197.2,183.76 197.39,181.64C197.58,179.52 197.81,177.39 198.08,175.27C198.36,173.14 198.67,171.02 199.04,168.9C199.41,166.77 199.83,164.65 200.3,162.53C200.77,160.4 201.3,158.28 201.87,156.16C202.44,154.03 203.06,151.91 203.7,149.79C204.35,147.66 205.04,145.54 205.74,143.42C206.44,141.29 207.19,139.17 207.91,137.05C208.64,134.92 209.39,132.8 210.09,130.67C210.79,128.55 211.49,126.43 212.12,124.3C212.74,122.18 213.35,120.06 213.83,117.93C214.31,115.82 214.72,113.69 215,111.56C215.27,109.44 215.46,107.31 215.48,105.19C215.5,103.07 215.39,100.93 215.12,98.82C214.85,96.69 214.42,94.56 213.87,92.45C213.31,90.31 212.57,88.18 211.77,86.08C210.95,83.94 209.98,81.82 208.99,79.71C207.99,77.57 206.88,75.46 205.8,73.34C204.72,71.21 203.59,69.1 202.53,66.97C201.48,64.85 200.42,62.74 199.47,60.6C198.53,58.49 197.63,56.36 196.83,54.22C196.04,52.11 195.33,49.98 194.7,47.85C194.08,45.74 193.54,43.61 193.08,41.48C192.62,39.36 192.24,37.24 191.92,35.11C191.6,32.99 191.36,30.87 191.15,28.74C190.94,26.62 190.79,24.49 190.66,22.37Q190.53,20.25 190.39,16L189.86,16Q189.72,20.25 189.59,22.37C189.46,24.49 189.31,26.62 189.1,28.74C188.89,30.87 188.65,32.99 188.33,35.11C188.01,37.24 187.63,39.36 187.17,41.48C186.71,43.61 186.17,45.74 185.55,47.85C184.92,49.98 184.21,52.11 183.42,54.22C182.62,56.36 181.72,58.49 180.78,60.6C179.83,62.74 178.77,64.85 177.72,66.97C176.66,69.1 175.53,71.21 174.45,73.34C173.37,75.46 172.26,77.57 171.26,79.71C170.27,81.82 169.3,83.94 168.48,86.08C167.68,88.18 166.94,90.31 166.38,92.45C165.83,94.56 165.4,96.69 165.13,98.82C164.86,100.93 164.75,103.07 164.77,105.19C164.79,107.31 164.98,109.44 165.25,111.56C165.53,113.69 165.94,115.82 166.42,117.93C166.9,120.06 167.51,122.18 168.13,124.3C168.76,126.43 169.46,128.55 170.16,130.67C170.86,132.8 171.61,134.92 172.34,137.05C173.06,139.17 173.81,141.29 174.51,143.42C175.21,145.54 175.9,147.66 176.55,149.79C177.19,151.91 177.81,154.03 178.38,156.16C178.95,158.28 179.48,160.4 179.95,162.53C180.42,164.65 180.84,166.77 181.21,168.9C181.58,171.02 181.89,173.14 182.17,175.27C182.44,177.39 182.67,179.52 182.86,181.64C183.05,183.76 183.2,185.89 183.33,188.01C183.46,190.13 183.55,192.26 183.65,194.38C183.74,196.5 183.81,198.63 183.9,200.75C183.99,202.87 184.07,205 184.19,207.12C184.31,209.24 184.45,211.37 184.64,213.49C184.83,215.62 185.06,217.75 185.32,219.87C185.58,222 185.9,224.12 186.21,226.24C186.52,228.36 186.86,230.49 187.18,232.61C187.5,234.73 187.83,236.85 188.11,238.98C188.39,241.1 188.65,243.22 188.87,245.35C189.09,247.47 189.27,249.6 189.42,251.72Q189.57,253.84 189.77,258.09Z" style="vector-effect: non-scaling-stroke; stroke-width: 2px; stroke: rgb(0, 128, 128); stroke-opacity: 1; fill: rgb(0, 128, 128); fill-opacity: 0.5;"/><path class="box" d="M183.79,114.88H196.46M183.79,145.17H196.46V91.69H183.79ZM190.13,145.17V219.69M190.13,91.69V54.4" style="vector-effect: non-scaling-stroke; stroke-width: 2px; stroke: rgb(0, 128, 128); stroke-opacity: 1; fill: rgb(0, 128, 128); fill-opacity: 0.5;"/><path class="mean" d="M183.79,123.09H196.46" style="fill: none; vector-effect: non-scaling-stroke; stroke-width: 2px; stroke-dasharray: 4px, 2px; stroke: rgb(0, 128, 128); stroke-opacity: 1;"/><g class="points"><path class="point" transform="translate(225.86,219.69)" d="M3,0A3,3 0 1,1 0,-3A3,3 0 0,1 3,0Z" style="opacity: 1; stroke-width: 0px; fill: rgb(0, 128, 128); fill-opacity: 1;"/><path class="point" transform="translate(225.3,214.97)" d="M3,0A3,3 0 1,1 0,-3A3,3 0 0,1 3,0Z" style="opacity: 1; stroke-width: 0px; fill: rgb(0, 128, 128); fill-opacity: 1;"/><path class="point" transform="translate(226,214.59)" d="M3,0A3,3 0 1,1 0,-3A3,3 0 0,1 3,0Z" style="opacity: 1; stroke-width: 0px; fill: rgb(0, 128, 128); fill-opacity: 1;"/><path class="point" transform="translate(225.22,209.69)" d="M3,0A3,3 0 1,1 0,-3A3,3 0 0,1 3,0Z" style="opacity: 1; stroke-width: 0px; fill: rgb(0, 128, 128); fill-opacity: 1;"/><path class="point" transform="translate(225.5,192.86)" d="M3,0A3,3 0 1,1 0,-3A3,3 0 0,1 3,0Z" style="opacity: 1; stroke-width: 0px; fill: rgb(0, 128, 128); fill-opacity: 1;"/><path class="point" transform="translate(225.87,182.89)" d="M3,0A3,3 0 1,1 0,-3A3,3 0 0,1 3,0Z" style="opacity: 1; stroke-width: 0px; fill: rgb(0, 128, 128); fill-opacity: 1;"/><path class="point" transform="translate(225.6,179.87)" d="M3,0A3,3 0 1,1 0,-3A3,3 0 0,1 3,0Z" style="opacity: 1; stroke-width: 0px; fill: rgb(0, 128, 128); fill-opacity: 1;"/><path class="point" transform="translate(225.75,174.5)" d="M3,0A3,3 0 1,1 0,-3A3,3 0 0,1 3,0Z" style="opacity: 1; stroke-width: 0px; fill: rgb(0, 128, 128); fill-opacity: 1;"/><path class="point" transform="translate(225.46,162.15)" d="M3,0A3,3 0 1,1 0,-3A3,3 0 0,1 3,0Z" style="opacity: 1; stroke-width: 0px; fill: rgb(0, 128, 128); fill-opacity: 1;"/><path class="point" transform="translate(225.21,157.2)" d="M3,0A3,3 0 1,1 0,-3A3,3 0 0,1 3,0Z" style="opacity: 1; stroke-width: 0px; fill: rgb(0, 128, 128); fill-opacity: 1;"/><path class="point" transform="translate(225.78,153.44)" d="M3,0A3,3 0 1,1 0,-3A3,3 0 0,1 3,0Z" style="opacity: 1; stroke-width: 0px; fill: rgb(0, 128, 128); fill-opacity: 1;"/><path class="point" transform="translate(225.42,145.19)" d="M3,0A3,3 0 1,1 0,-3A3,3 0 0,1 3,0Z" style="opacity: 1; stroke-width: 0px; fill: rgb(0, 128, 128); fill-opacity: 1;"/><path class="point" transform="translate(225.99,145.17)" d="M3,0A3,3 0 1,1 0,-3A3,3 0 0,1 3,0Z" style="opacity: 1; stroke-width: 0px; fill: rgb(0, 128, 128); fill-opacity: 1;"/><path class="point" transform="translate(224.95,141.41)" d="M3,0A3,3 0 1,1 0,-3A3,3 0 0,1 3,0Z" style="opacity: 1; stroke-width: 0px; fill: rgb(0, 128, 128); fill-opacity: 1;"/><path class="point" transform="translate(225.23,139.72)" d="M3,0A3,3 0 1,1 0,-3A3,3 0 0,1 3,0Z" style="opacity: 1; stroke-width: 0px; fill: rgb(0, 128, 128); fill-opacity: 1;"/><path class="point" transform="translate(226.21,138.8)" d="M3,0A3,3 0 1,1 0,-3A3,3 0 0,1 3,0Z" style="opacity: 1; stroke-width: 0px; fill: rgb(0, 128, 128); fill-opacity: 1;"/><path class="point" transform="translate(225.42,135.98)" d="M3,0A3,3 0 1,1 0,-3A3,3 0 0,1 3,0Z" style="opacity: 1; stroke-width: 0px; fill: rgb(0, 128, 128); fill-opacity: 1;"/><path class="point" transform="translate(224.97,130.12)" d="M3,0A3,3 0 1,1 0,-3A3,3 0 0,1 3,0Z" style="opacity: 1; stroke-width: 0px; fill: rgb(0, 128, 128); fill-opacity: 1;"/><path class="point" transform="translate(225.35,128.15)" d="M3,0A3,3 0 1,1 0,-3A3,3 0 0,1 3,0Z" style="opacity: 1; stroke-width: 0px; fill: rgb(0, 128, 128); fill-opacity: 1;"/><path class="point" transform="translate(225.6,120.89)" d="M3,0A3,3 0 1,1 0,-3A3,3 0 0,1 3,0Z" style="opacity: 1; stroke-width: 0px; fill: rgb(0, 128, 128); fill-opacity: 1;"/><path class="point" transform="translate(225.97,118.69)" d="M3,0A3,3 0 1,1 0,-3A3,3 0 0,1 3,0Z" style="opacity: 1; stroke-width: 0px; fill: rgb(0, 128, 128); fill-opacity: 1;"/><path class="point" transform="translate(225.71,118.45)" d="M3,0A3,3 0 1,1 0,-3A3,3 0 0,1 3,0Z" style="opacity: 1; stroke-width: 0px; fill: rgb(0, 128, 128); fill-opacity: 1;"/><path class="point" transform="translate(225.35,117.32)" d="M3,0A3,3 0 1,1 0,-3A3,3 0 0,1 3,0Z" style="opacity: 1; stroke-width: 0px; fill: rgb(0, 128, 128); fill-opacity: 1;"/><path class="point" transform="translate(224.82,117.24)" d="M3,0A3,3 0 1,1 0,-3A3,3 0 0,1 3,0Z" style="opacity: 1; stroke-width: 0px; fill: rgb(0, 128, 128); fill-opacity: 1;"/><path class="point" transform="translate(225.61,116.8)" d="M3,0A3,3 0 1,1 0,-3A3,3 0 0,1 3,0Z" style="opacity: 1; stroke-width: 0px; fill: rgb(0, 128, 128); fill-opacity: 1;"/><path class="point" transform="translate(225.24,112.96)" d="M3,0A3,3 0 1,1 0,-3A3,3 0 0,1 3,0Z" style="opacity: 1; stroke-width: 0px; fill: rgb(0, 128, 128); fill-opacity: 1;"/><path class="point" transform="translate(226.07,112.37)" d="M3,0A3,3 0 1,1 0,-3A3,3 0 0,1 3,0Z" style="opacity: 1; stroke-width: 0px; fill: rgb(0, 128, 128); fill-opacity: 1;"/><path class="point" transform="translate(225.53,112.13)" d="M3,0A3,3 0 1,1 0,-3A3,3 0 0,1 3,0Z" style="opacity: 1; stroke-width: 0px; fill: rgb(0, 128, 128); fill-opacity: 1;"/><path class="point" transform="translate(225.04,110.4)" d="M3,0A3,3 0 1,1 0,-3A3,3 0 0,1 3,0Z" style="opacity: 1; stroke-width: 0px; fill: rgb(0, 128, 128); fill-opacity: 1;"/><path class="point" transform="translate(224.83,110.09)" d="M3,0A3,3 0 1,1 0,-3A3,3 0 0,1 3,0Z" style="opacity: 1; stroke-width: 0px; fill: rgb(0, 128, 128); fill-opacity: 1;"/><path class="point" transform="translate(226.11,108.8)" d="M3,0A3,3 0 1,1 0,-3A3,3 0 0,1 3,0Z" style="opacity: 1; stroke-width: 0px; fill: rgb(0, 128, 128); fill-opacity: 1;"/><path class="point" transform="translate(224.86,102.11)" d="M3,0A3,3 0 1,1 0,-3A3,3 0 0,1 3,0Z" style="opacity: 1; stroke-width: 0px; fill: rgb(0, 128, 128); fill-opacity: 1;"/><path class="point" transform="translate(226.14,101.67)" d="M3,0A3,3 0 1,1 0,-3A3,3 0 0,1 3,0Z" style="opacity: 1; stroke-width: 0px; fill: rgb(0, 128, 128); fill-opacity: 1;"/><path class="point" transform="translate(225.81,96.84)" d="M3,0A3,3 0 1,1 0,-3A3,3 0 0,1 3,0Z" style="opacity: 1; stroke-width: 0px; fill: rgb(0, 128, 128); fill-opacity: 1;"/><path class="point" transform="translate(225.35,94.23)" d="M3,0A3,3 0 1,1 0,-3A3,3 0 0,1 3,0Z" style="opacity: 1; stroke-width: 0px; fill: rgb(0, 128, 128); fill-opacity: 1;"/><path class="point" transform="translate(225.1,92.51)" d="M3,0A3,3 0 1,1 0,-3A3,3 0 0,1 3,0Z" style="opacity: 1; stroke-width: 0px; fill: rgb(0, 128, 128); fill-opacity: 1;"/><path class="point" transform="translate(226.07,91.95)" d="M3,0A3,3 0 1,1 0,-3A3,3 0 0,1 3,0Z" style="opacity: 1; stroke-width: 0px; fill: rgb(0, 128, 128); fill-opacity: 1;"/><path class="point" transform="translate(225.51,91.69)" d="M3,0A3,3 0 1,1 0,-3A3,3 0 0,1 3,0Z" style="opacity: 1; stroke-width: 0px; fill: rgb(0, 128, 128); fill-opacity: 1;"/><path class="point" transform="translate(226.35,90.5)" d="M3,0A3,3 0 1,1 0,-3A3,3 0 0,1 3,0Z" style="opacity: 1; stroke-width: 0px; fill: rgb(0, 128, 128); fill-opacity: 1;"/><path class="point" transform="translate(224.64,89.29)" d="M3,0A3,3 0 1,1 0,-3A3,3 0 0,1 3,0Z" style="opacity: 1; stroke-width: 0px; fill: rgb(0, 128, 128); fill-opacity: 1;"/><path class="point" transform="translate(226.32,87.66)" d="M3,0A3,3 0 1,1 0,-3A3,3 0 0,1 3,0Z" style="opacity: 1; stroke-width: 0px; fill: rgb(0, 128, 128); fill-opacity: 1;"/><path class="point" transform="translate(225.54,86.18)" d="M3,0A3,3 0 1,1 0,-3A3,3 0 0,1 3,0Z" style="opacity: 1; stroke-width: 0px; fill: rgb(0, 128, 128); fill-opacity: 1;"/><path class="point" transform="translate(225.28,85.28)" d="M3,0A3,3 0 1,1 0,-3A3,3 0 0,1 3,0Z" style="opacity: 1; stroke-width: 0px; fill: rgb(0, 128, 128); fill-opacity: 1;"/><path class="point" transform="translate(224.89,82.84)" d="M3,0A3,3 0 1,1 0,-3A3,3 0 0,1 3,0Z" style="opacity: 1; stroke-width: 0px; fill: rgb(0, 128, 128); fill-opacity: 1;"/><path class="point" transform="translate(225.35,82.47)" d="M3,0A3,3 0 1,1 0,-3A3,3 0 0,1 3,0Z" style="opacity: 1; stroke-width: 0px; fill: rgb(0, 128, 128); fill-opacity: 1;"/><path class="point" transform="translate(226.05,79.44)" d="M3,0A3,3 0 1,1 0,-3A3,3 0 0,1 3,0Z" style="opacity: 1; stroke-width: 0px; fill: rgb(0, 128, 128); fill-opacity: 1;"/><path class="point" transform="translate(225.46,72.32)" d="M3,0A3,3 0 1,1 0,-3A3,3 0 0,1 3,0Z" style="opacity: 1; stroke-width: 0px; fill: rgb(0, 128, 128); fill-opacity: 1;"/><path class="point" transform="translate(225.15,69.27)" d="M3,0A3,3 0 1,1 0,-3A3,3 0 0,1 3,0Z" style="opacity: 1; stroke-width: 0px; fill: rgb(0, 128, 128); fill-opacity: 1;"/><path class="point" transform="translate(225.9,61.48)" d="M3,0A3,3 0 1,1 0,-3A3,3 0 0,1 3,0Z" style="opacity: 1; stroke-width: 0px; fill: rgb(0, 128, 128); fill-opacity: 1;"/><path class="point" transform="translate(225.33,54.4)" d="M3,0A3,3 0 1,1 0,-3A3,3 0 0,1 3,0Z" style="opacity: 1; stroke-width: 0px; fill: rgb(0, 128, 128); fill-opacity: 1;"/></g></g><g class="trace violins" style="opacity: 1;"><path class="violin" d="M317.06,304Q317.16,298.86 317.23,296.29C317.31,293.72 317.4,291.15 317.51,288.58C317.62,286.01 317.76,283.44 317.91,280.87C318.06,278.3 318.24,275.73 318.42,273.16C318.61,270.59 318.81,268.02 319.02,265.45C319.23,262.88 319.45,260.31 319.67,257.74C319.89,255.17 320.11,252.6 320.35,250.03C320.59,247.46 320.83,244.89 321.11,242.32C321.39,239.75 321.68,237.17 322.02,234.6C322.36,232.03 322.73,229.46 323.13,226.89C323.54,224.32 323.99,221.75 324.45,219.18C324.92,216.61 325.43,214.04 325.92,211.47C326.41,208.9 326.92,206.33 327.37,203.76C327.82,201.19 328.26,198.62 328.62,196.05C328.98,193.48 329.29,190.91 329.54,188.34C329.79,185.77 329.96,183.2 330.12,180.63C330.27,178.06 330.36,175.49 330.47,172.92C330.58,170.35 330.65,167.78 330.78,165.21C330.91,162.64 331.05,160.07 331.25,157.5C331.45,154.93 331.71,152.36 332,149.79C332.29,147.22 332.66,144.65 333.01,142.08C333.37,139.51 333.78,136.94 334.13,134.37C334.48,131.8 334.84,129.23 335.09,126.66C335.34,124.09 335.56,121.52 335.64,118.95C335.72,116.38 335.72,113.81 335.58,111.24C335.44,108.66 335.18,106.08 334.81,103.52C334.44,100.94 333.94,98.37 333.38,95.81C332.81,93.23 332.13,90.66 331.42,88.1C330.71,85.52 329.91,82.96 329.12,80.39C328.33,77.82 327.5,75.25 326.7,72.68C325.91,70.11 325.09,67.55 324.35,64.97C323.61,62.41 322.88,59.84 322.24,57.26C321.6,54.7 321.01,52.13 320.49,49.55C319.97,46.99 319.52,44.41 319.14,41.84C318.76,39.27 318.45,36.7 318.19,34.13C317.93,31.56 317.74,28.99 317.58,26.42Q317.42,23.85 317.22,18.71L316.53,18.71Q316.33,23.85 316.17,26.42C316.01,28.99 315.82,31.56 315.56,34.13C315.3,36.7 314.99,39.27 314.61,41.84C314.23,44.41 313.78,46.99 313.26,49.55C312.74,52.13 312.15,54.7 311.51,57.26C310.87,59.84 310.14,62.41 309.4,64.97C308.66,67.55 307.84,70.11 307.05,72.68C306.25,75.25 305.42,77.82 304.63,80.39C303.84,82.96 303.04,85.52 302.33,88.1C301.62,90.66 300.94,93.23 300.37,95.81C299.81,98.37 299.31,100.94 298.94,103.52C298.57,106.08 298.31,108.66 298.17,111.24C298.03,113.81 298.03,116.38 298.11,118.95C298.19,121.52 298.41,124.09 298.66,126.66C298.91,129.23 299.27,131.8 299.62,134.37C299.97,136.94 300.38,139.51 300.74,142.08C301.09,144.65 301.46,147.22 301.75,149.79C302.04,152.36 302.3,154.93 302.5,157.5C302.7,160.07 302.84,162.64 302.97,165.21C303.1,167.78 303.17,170.35 303.28,172.92C303.39,175.49 303.48,178.06 303.63,180.63C303.79,183.2 303.96,185.77 304.21,188.34C304.46,190.91 304.77,193.48 305.13,196.05C305.49,198.62 305.93,201.19 306.38,203.76C306.83,206.33 307.34,208.9 307.83,211.47C308.32,214.04 308.83,216.61 309.3,219.18C309.76,221.75 310.21,224.32 310.62,226.89C311.02,229.46 311.39,232.03 311.73,234.6C312.07,237.17 312.36,239.75 312.64,242.32C312.92,244.89 313.16,247.46 313.4,250.03C313.64,252.6 313.86,255.17 314.08,257.74C314.3,260.31 314.52,262.88 314.73,265.45C314.94,268.02 315.14,270.59 315.33,273.16C315.51,275.73 315.69,278.3 315.84,280.87C315.99,283.44 316.13,286.01 316.24,288.58C316.35,291.15 316.44,293.72 316.52,296.29Q316.59,298.86 316.69,304Z" style="vector-effect: non-scaling-stroke; stroke-width: 2px; stroke: rgb(139, 0, 0); stroke-opacity: 1; fill: rgb(139, 0, 0); fill-opacity: 0.5;"/><path class="box" d="M310.54,135.54H323.21M310.54,185.03H323.21V105.48H310.54ZM316.88,185.03V256.79M316.88,105.48V65.92" style="vector-effect: non-scaling-stroke; stroke-width: 2px; stroke: rgb(139, 0, 0); stroke-opacity: 1; fill: rgb(139, 0, 0); fill-opacity: 0.5;"/><path class="mean" d="M310.54,143.93H323.21" style="fill: none; vector-effect: non-scaling-stroke; stroke-width: 2px; stroke-dasharray: 4px, 2px; stroke: rgb(139, 0, 0); stroke-opacity: 1;"/><g class="points"><path class="point" transform="translate(352.63,256.79)" d="M3,0A3,3 0 1,1 0,-3A3,3 0 0,1 3,0Z" style="opacity: 1; stroke-width: 0px; fill: rgb(139, 0, 0); fill-opacity: 1;"/><path class="point" transform="translate(352.02,246.04)" d="M3,0A3,3 0 1,1 0,-3A3,3 0 0,1 3,0Z" style="opacity: 1; stroke-width: 0px; fill: rgb(139, 0, 0); fill-opacity: 1;"/><path class="point" transform="translate(352.81,239.51)" d="M3,0A3,3 0 1,1 0,-3A3,3 0 0,1 3,0Z" style="opacity: 1; stroke-width: 0px; fill: rgb(139, 0, 0); fill-opacity: 1;"/><path class="point" transform="translate(351.85,216.21)" d="M3,0A3,3 0 1,1 0,-3A3,3 0 0,1 3,0Z" style="opacity: 1; stroke-width: 0px; fill: rgb(139, 0, 0); fill-opacity: 1;"/><path class="point" transform="translate(352.21,209.57)" d="M3,0A3,3 0 1,1 0,-3A3,3 0 0,1 3,0Z" style="opacity: 1; stroke-width: 0px; fill: rgb(139, 0, 0); fill-opacity: 1;"/><path class="point" transform="translate(352.69,202.69)" d="M3,0A3,3 0 1,1 0,-3A3,3 0 0,1 3,0Z" style="opacity: 1; stroke-width: 0px; fill: rgb(139, 0, 0); fill-opacity: 1;"/><path class="point" transform="translate(352.34,201.13)" d="M3,0A3,3 0 1,1 0,-3A3,3 0 0,1 3,0Z" style="opacity: 1; stroke-width: 0px; fill: rgb(139, 0, 0); fill-opacity: 1;"/><path class="point" transform="translate(352.57,199.58)" d="M3,0A3,3 0 1,1 0,-3A3,3 0 0,1 3,0Z" style="opacity: 1; stroke-width: 0px; fill: rgb(139, 0, 0); fill-opacity: 1;"/><path class="point" transform="translate(352.1,197.57)" d="M3,0A3,3 0 1,1 0,-3A3,3 0 0,1 3,0Z" style="opacity: 1; stroke-width: 0px; fill: rgb(139, 0, 0); fill-opacity: 1;"/><path class="point" transform="translate(351.71,192.46)" d="M3,0A3,3 0 1,1 0,-3A3,3 0 0,1 3,0Z" style="opacity: 1; stroke-width: 0px; fill: rgb(139, 0, 0); fill-opacity: 1;"/><path class="point" transform="translate(352.61,186.94)" d="M3,0A3,3 0 1,1 0,-3A3,3 0 0,1 3,0Z" style="opacity: 1; stroke-width: 0px; fill: rgb(139, 0, 0); fill-opacity: 1;"/><path class="point" transform="translate(352.06,186.48)" d="M3,0A3,3 0 1,1 0,-3A3,3 0 0,1 3,0Z" style="opacity: 1; stroke-width: 0px; fill: rgb(139, 0, 0); fill-opacity: 1;"/><path class="point" transform="translate(352.94,185.03)" d="M3,0A3,3 0 1,1 0,-3A3,3 0 0,1 3,0Z" style="opacity: 1; stroke-width: 0px; fill: rgb(139, 0, 0); fill-opacity: 1;"/><path class="point" transform="translate(351.46,176.74)" d="M3,0A3,3 0 1,1 0,-3A3,3 0 0,1 3,0Z" style="opacity: 1; stroke-width: 0px; fill: rgb(139, 0, 0); fill-opacity: 1;"/><path class="point" transform="translate(351.87,175.45)" d="M3,0A3,3 0 1,1 0,-3A3,3 0 0,1 3,0Z" style="opacity: 1; stroke-width: 0px; fill: rgb(139, 0, 0); fill-opacity: 1;"/><path class="point" transform="translate(353.1,170.73)" d="M3,0A3,3 0 1,1 0,-3A3,3 0 0,1 3,0Z" style="opacity: 1; stroke-width: 0px; fill: rgb(139, 0, 0); fill-opacity: 1;"/><path class="point" transform="translate(352.16,169.71)" d="M3,0A3,3 0 1,1 0,-3A3,3 0 0,1 3,0Z" style="opacity: 1; stroke-width: 0px; fill: rgb(139, 0, 0); fill-opacity: 1;"/><path class="point" transform="translate(351.71,166.68)" d="M3,0A3,3 0 1,1 0,-3A3,3 0 0,1 3,0Z" style="opacity: 1; stroke-width: 0px; fill: rgb(139, 0, 0); fill-opacity: 1;"/><path class="point" transform="translate(352.09,165.76)" d="M3,0A3,3 0 1,1 0,-3A3,3 0 0,1 3,0Z" style="opacity: 1; stroke-width: 0px; fill: rgb(139, 0, 0); fill-opacity: 1;"/><path class="point" transform="translate(352.35,154.72)" d="M3,0A3,3 0 1,1 0,-3A3,3 0 0,1 3,0Z" style="opacity: 1; stroke-width: 0px; fill: rgb(139, 0, 0); fill-opacity: 1;"/><path class="point" transform="translate(352.75,146.71)" d="M3,0A3,3 0 1,1 0,-3A3,3 0 0,1 3,0Z" style="opacity: 1; stroke-width: 0px; fill: rgb(139, 0, 0); fill-opacity: 1;"/><path class="point" transform="translate(352.46,145.7)" d="M3,0A3,3 0 1,1 0,-3A3,3 0 0,1 3,0Z" style="opacity: 1; stroke-width: 0px; fill: rgb(139, 0, 0); fill-opacity: 1;"/><path class="point" transform="translate(352.13,137.98)" d="M3,0A3,3 0 1,1 0,-3A3,3 0 0,1 3,0Z" style="opacity: 1; stroke-width: 0px; fill: rgb(139, 0, 0); fill-opacity: 1;"/><path class="point" transform="translate(351.68,137.27)" d="M3,0A3,3 0 1,1 0,-3A3,3 0 0,1 3,0Z" style="opacity: 1; stroke-width: 0px; fill: rgb(139, 0, 0); fill-opacity: 1;"/><path class="point" transform="translate(352.36,137.02)" d="M3,0A3,3 0 1,1 0,-3A3,3 0 0,1 3,0Z" style="opacity: 1; stroke-width: 0px; fill: rgb(139, 0, 0); fill-opacity: 1;"/><path class="point" transform="translate(352.06,134.05)" d="M3,0A3,3 0 1,1 0,-3A3,3 0 0,1 3,0Z" style="opacity: 1; stroke-width: 0px; fill: rgb(139, 0, 0); fill-opacity: 1;"/><path class="point" transform="translate(352.82,131.61)" d="M3,0A3,3 0 1,1 0,-3A3,3 0 0,1 3,0Z" style="opacity: 1; stroke-width: 0px; fill: rgb(139, 0, 0); fill-opacity: 1;"/><path class="point" transform="translate(352.27,126.69)" d="M3,0A3,3 0 1,1 0,-3A3,3 0 0,1 3,0Z" style="opacity: 1; stroke-width: 0px; fill: rgb(139, 0, 0); fill-opacity: 1;"/><path class="point" transform="translate(351.65,124.34)" d="M3,0A3,3 0 1,1 0,-3A3,3 0 0,1 3,0Z" style="opacity: 1; stroke-width: 0px; fill: rgb(139, 0, 0); fill-opacity: 1;"/><path class="point" transform="translate(351.34,122.7)" d="M3,0A3,3 0 1,1 0,-3A3,3 0 0,1 3,0Z" style="opacity: 1; stroke-width: 0px; fill: rgb(139, 0, 0); fill-opacity: 1;"/><path class="point" transform="translate(352.95,121.67)" d="M3,0A3,3 0 1,1 0,-3A3,3 0 0,1 3,0Z" style="opacity: 1; stroke-width: 0px; fill: rgb(139, 0, 0); fill-opacity: 1;"/><path class="point" transform="translate(351.48,117.13)" d="M3,0A3,3 0 1,1 0,-3A3,3 0 0,1 3,0Z" style="opacity: 1; stroke-width: 0px; fill: rgb(139, 0, 0); fill-opacity: 1;"/><path class="point" transform="translate(353.04,115.23)" d="M3,0A3,3 0 1,1 0,-3A3,3 0 0,1 3,0Z" style="opacity: 1; stroke-width: 0px; fill: rgb(139, 0, 0); fill-opacity: 1;"/><path class="point" transform="translate(352.61,114.55)" d="M3,0A3,3 0 1,1 0,-3A3,3 0 0,1 3,0Z" style="opacity: 1; stroke-width: 0px; fill: rgb(139, 0, 0); fill-opacity: 1;"/><path class="point" transform="translate(352.02,114.45)" d="M3,0A3,3 0 1,1 0,-3A3,3 0 0,1 3,0Z" style="opacity: 1; stroke-width: 0px; fill: rgb(139, 0, 0); fill-opacity: 1;"/><path class="point" transform="translate(351.68,108.2)" d="M3,0A3,3 0 1,1 0,-3A3,3 0 0,1 3,0Z" style="opacity: 1; stroke-width: 0px; fill: rgb(139, 0, 0); fill-opacity: 1;"/><path class="point" transform="translate(352.94,106.3)" d="M3,0A3,3 0 1,1 0,-3A3,3 0 0,1 3,0Z" style="opacity: 1; stroke-width: 0px; fill: rgb(139, 0, 0); fill-opacity: 1;"/><path class="point" transform="translate(352.25,105.48)" d="M3,0A3,3 0 1,1 0,-3A3,3 0 0,1 3,0Z" style="opacity: 1; stroke-width: 0px; fill: rgb(139, 0, 0); fill-opacity: 1;"/><path class="point" transform="translate(353.07,103.07)" d="M3,0A3,3 0 1,1 0,-3A3,3 0 0,1 3,0Z" style="opacity: 1; stroke-width: 0px; fill: rgb(139, 0, 0); fill-opacity: 1;"/><path class="point" transform="translate(351.52,102.01)" d="M3,0A3,3 0 1,1 0,-3A3,3 0 0,1 3,0Z" style="opacity: 1; stroke-width: 0px; fill: rgb(139, 0, 0); fill-opacity: 1;"/><path class="point" transform="translate(353.04,101.42)" d="M3,0A3,3 0 1,1 0,-3A3,3 0 0,1 3,0Z" style="opacity: 1; stroke-width: 0px; fill: rgb(139, 0, 0); fill-opacity: 1;"/><path class="point" transform="translate(352.28,100.05)" d="M3,0A3,3 0 1,1 0,-3A3,3 0 0,1 3,0Z" style="opacity: 1; stroke-width: 0px; fill: rgb(139, 0, 0); fill-opacity: 1;"/><path class="point" transform="translate(352,93.09)" d="M3,0A3,3 0 1,1 0,-3A3,3 0 0,1 3,0Z" style="opacity: 1; stroke-width: 0px; fill: rgb(139, 0, 0); fill-opacity: 1;"/><path class="point" transform="translate(351.48,88.57)" d="M3,0A3,3 0 1,1 0,-3A3,3 0 0,1 3,0Z" style="opacity: 1; stroke-width: 0px; fill: rgb(139, 0, 0); fill-opacity: 1;"/><path class="point" transform="translate(352.02,87.36)" d="M3,0A3,3 0 1,1 0,-3A3,3 0 0,1 3,0Z" style="opacity: 1; stroke-width: 0px; fill: rgb(139, 0, 0); fill-opacity: 1;"/><path class="point" transform="translate(352.92,83.79)" d="M3,0A3,3 0 1,1 0,-3A3,3 0 0,1 3,0Z" style="opacity: 1; stroke-width: 0px; fill: rgb(139, 0, 0); fill-opacity: 1;"/><path class="point" transform="translate(352.17,80.98)" d="M3,0A3,3 0 1,1 0,-3A3,3 0 0,1 3,0Z" style="opacity: 1; stroke-width: 0px; fill: rgb(139, 0, 0); fill-opacity: 1;"/><path class="point" transform="translate(351.71,74.24)" d="M3,0A3,3 0 1,1 0,-3A3,3 0 0,1 3,0Z" style="opacity: 1; stroke-width: 0px; fill: rgb(139, 0, 0); fill-opacity: 1;"/><path class="point" transform="translate(352.78,68.91)" d="M3,0A3,3 0 1,1 0,-3A3,3 0 0,1 3,0Z" style="opacity: 1; stroke-width: 0px; fill: rgb(139, 0, 0); fill-opacity: 1;"/><path class="point" transform="translate(351.94,65.92)" d="M3,0A3,3 0 1,1 0,-3A3,3 0 0,1 3,0Z" style="opacity: 1; stroke-width: 0px; fill: rgb(139, 0, 0); fill-opacity: 1;"/></g></g><g class="trace violins" style="opacity: 1;"><path class="violin" d="M443.77,286.74Q443.84,282.51 443.89,280.39C443.94,278.27 444,276.16 444.06,274.04C444.13,271.92 444.2,269.81 444.28,267.69C444.36,265.57 444.44,263.46 444.52,261.34C444.6,259.22 444.68,257.11 444.75,254.99C444.82,252.88 444.89,250.76 444.96,248.65C445.03,246.53 445.09,244.42 445.15,242.3C445.22,240.18 445.27,238.07 445.35,235.95C445.43,233.83 445.51,231.72 445.63,229.6C445.75,227.48 445.88,225.37 446.05,223.25C446.22,221.13 446.43,219.01 446.67,216.9C446.92,214.78 447.19,212.66 447.52,210.55C447.85,208.43 448.23,206.31 448.65,204.2C449.07,202.08 449.54,199.96 450.05,197.85C450.56,195.73 451.11,193.61 451.69,191.5C452.27,189.38 452.9,187.26 453.53,185.15C454.16,183.03 454.84,180.92 455.49,178.8C456.14,176.68 456.81,174.57 457.45,172.45C458.09,170.34 458.74,168.22 459.33,166.1C459.92,163.99 460.48,161.87 460.99,159.75C461.49,157.64 461.96,155.53 462.37,153.41C462.78,151.3 463.13,149.18 463.44,147.06C463.75,144.95 464,142.83 464.23,140.71C464.46,138.6 464.64,136.48 464.81,134.36C464.98,132.24 465.13,130.13 465.26,128.01C465.39,125.89 465.5,123.78 465.57,121.66C465.64,119.54 465.7,117.43 465.69,115.31C465.68,113.19 465.65,111.07 465.52,108.96C465.39,106.84 465.21,104.72 464.93,102.61C464.65,100.49 464.28,98.37 463.82,96.26C463.35,94.13 462.78,92.02 462.14,89.91C461.49,87.78 460.74,85.67 459.96,83.56C459.17,81.43 458.29,79.32 457.42,77.21C456.55,75.09 455.61,72.98 454.73,70.86C453.85,68.75 452.95,66.64 452.13,64.52C451.31,62.41 450.51,60.3 449.8,58.17C449.09,56.06 448.44,53.95 447.87,51.82C447.3,49.71 446.81,47.59 446.38,45.47C445.95,43.36 445.6,41.24 445.3,39.12C445,37.01 444.78,34.89 444.58,32.77C444.39,30.66 444.25,28.54 444.13,26.42Q444.01,24.3 443.87,20.07L443.38,20.07Q443.24,24.3 443.12,26.42C443,28.54 442.86,30.66 442.67,32.77C442.47,34.89 442.25,37.01 441.95,39.12C441.65,41.24 441.3,43.36 440.87,45.47C440.44,47.59 439.95,49.71 439.38,51.82C438.81,53.95 438.16,56.06 437.45,58.17C436.74,60.3 435.94,62.41 435.12,64.52C434.3,66.64 433.4,68.75 432.52,70.86C431.64,72.98 430.7,75.09 429.83,77.21C428.96,79.32 428.08,81.43 427.29,83.56C426.51,85.67 425.76,87.78 425.11,89.91C424.47,92.02 423.9,94.13 423.43,96.26C422.97,98.37 422.6,100.49 422.32,102.61C422.04,104.72 421.86,106.84 421.73,108.96C421.6,111.07 421.57,113.19 421.56,115.31C421.55,117.43 421.61,119.54 421.68,121.66C421.75,123.78 421.86,125.89 421.99,128.01C422.12,130.13 422.27,132.24 422.44,134.36C422.61,136.48 422.79,138.6 423.02,140.71C423.25,142.83 423.5,144.95 423.81,147.06C424.12,149.18 424.47,151.3 424.88,153.41C425.29,155.53 425.76,157.64 426.26,159.75C426.77,161.87 427.33,163.99 427.92,166.1C428.51,168.22 429.16,170.34 429.8,172.45C430.44,174.57 431.11,176.68 431.76,178.8C432.41,180.92 433.09,183.03 433.72,185.15C434.35,187.26 434.98,189.38 435.56,191.5C436.14,193.61 436.69,195.73 437.2,197.85C437.71,199.96 438.18,202.08 438.6,204.2C439.02,206.31 439.4,208.43 439.73,210.55C440.06,212.66 440.33,214.78 440.58,216.9C440.82,219.01 441.03,221.13 441.2,223.25C441.37,225.37 441.5,227.48 441.62,229.6C441.74,231.72 441.82,233.83 441.9,235.95C441.98,238.07 442.03,240.18 442.1,242.3C442.16,244.42 442.22,246.53 442.29,248.65C442.36,250.76 442.43,252.88 442.5,254.99C442.57,257.11 442.65,259.22 442.73,261.34C442.81,263.46 442.89,265.57 442.97,267.69C443.05,269.81 443.12,271.92 443.19,274.04C443.25,276.16 443.31,278.27 443.36,280.39Q443.41,282.51 443.48,286.74Z" style="vector-effect: non-scaling-stroke; stroke-width: 2px; stroke: rgb(139, 0, 139); stroke-opacity: 1; fill: rgb(139, 0, 139); fill-opacity: 0.5;"/><path class="box" d="M437.29,123.12H449.96M437.29,154.43H449.96V96.38H437.29ZM443.63,154.43V215.23M443.63,96.38V58.89" style="vector-effect: non-scaling-stroke; stroke-width: 2px; stroke: rgb(139, 0, 139); stroke-opacity: 1; fill: rgb(139, 0, 139); fill-opacity: 0.5;"/><path class="mean" d="M437.29,130.32H449.96" style="fill: none; vector-effect: non-scaling-stroke; stroke-width: 2px; stroke-dasharray: 4px, 2px; stroke: rgb(139, 0, 139); stroke-opacity: 1;"/><g class="points"><path class="point" transform="translate(479.35,247.92)" d="M3,0A3,3 0 1,1 0,-3A3,3 0 0,1 3,0Z" style="opacity: 1; stroke-width: 0px; fill: rgb(139, 0, 139); fill-opacity: 1;"/><path class="point" transform="translate(478.81,215.23)" d="M3,0A3,3 0 1,1 0,-3A3,3 0 0,1 3,0Z" style="opacity: 1; stroke-width: 0px; fill: rgb(139, 0, 139); fill-opacity: 1;"/><path class="point" transform="translate(479.51,197.86)" d="M3,0A3,3 0 1,1 0,-3A3,3 0 0,1 3,0Z" style="opacity: 1; stroke-width: 0px; fill: rgb(139, 0, 139); fill-opacity: 1;"/><path class="point" transform="translate(478.67,189.18)" d="M3,0A3,3 0 1,1 0,-3A3,3 0 0,1 3,0Z" style="opacity: 1; stroke-width: 0px; fill: rgb(139, 0, 139); fill-opacity: 1;"/><path class="point" transform="translate(478.98,180.49)" d="M3,0A3,3 0 1,1 0,-3A3,3 0 0,1 3,0Z" style="opacity: 1; stroke-width: 0px; fill: rgb(139, 0, 139); fill-opacity: 1;"/><path class="point" transform="translate(479.42,180.49)" d="M3,0A3,3 0 1,1 0,-3A3,3 0 0,1 3,0Z" style="opacity: 1; stroke-width: 0px; fill: rgb(139, 0, 139); fill-opacity: 1;"/><path class="point" transform="translate(479.09,176.61)" d="M3,0A3,3 0 1,1 0,-3A3,3 0 0,1 3,0Z" style="opacity: 1; stroke-width: 0px; fill: rgb(139, 0, 139); fill-opacity: 1;"/><path class="point" transform="translate(479.35,171.81)" d="M3,0A3,3 0 1,1 0,-3A3,3 0 0,1 3,0Z" style="opacity: 1; stroke-width: 0px; fill: rgb(139, 0, 139); fill-opacity: 1;"/><path class="point" transform="translate(478.83,167.69)" d="M3,0A3,3 0 1,1 0,-3A3,3 0 0,1 3,0Z" style="opacity: 1; stroke-width: 0px; fill: rgb(139, 0, 139); fill-opacity: 1;"/><path class="point" transform="translate(478.42,163.12)" d="M3,0A3,3 0 1,1 0,-3A3,3 0 0,1 3,0Z" style="opacity: 1; stroke-width: 0px; fill: rgb(139, 0, 139); fill-opacity: 1;"/><path class="point" transform="translate(479.35,163.12)" d="M3,0A3,3 0 1,1 0,-3A3,3 0 0,1 3,0Z" style="opacity: 1; stroke-width: 0px; fill: rgb(139, 0, 139); fill-opacity: 1;"/><path class="point" transform="translate(478.8,158.78)" d="M3,0A3,3 0 1,1 0,-3A3,3 0 0,1 3,0Z" style="opacity: 1; stroke-width: 0px; fill: rgb(139, 0, 139); fill-opacity: 1;"/><path class="point" transform="translate(479.77,154.43)" d="M3,0A3,3 0 1,1 0,-3A3,3 0 0,1 3,0Z" style="opacity: 1; stroke-width: 0px; fill: rgb(139, 0, 139); fill-opacity: 1;"/><path class="point" transform="translate(478.02,154.43)" d="M3,0A3,3 0 1,1 0,-3A3,3 0 0,1 3,0Z" style="opacity: 1; stroke-width: 0px; fill: rgb(139, 0, 139); fill-opacity: 1;"/><path class="point" transform="translate(478.38,149.86)" d="M3,0A3,3 0 1,1 0,-3A3,3 0 0,1 3,0Z" style="opacity: 1; stroke-width: 0px; fill: rgb(139, 0, 139); fill-opacity: 1;"/><path class="point" transform="translate(480.11,145.75)" d="M3,0A3,3 0 1,1 0,-3A3,3 0 0,1 3,0Z" style="opacity: 1; stroke-width: 0px; fill: rgb(139, 0, 139); fill-opacity: 1;"/><path class="point" transform="translate(478.83,145.75)" d="M3,0A3,3 0 1,1 0,-3A3,3 0 0,1 3,0Z" style="opacity: 1; stroke-width: 0px; fill: rgb(139, 0, 139); fill-opacity: 1;"/><path class="point" transform="translate(478.16,145.75)" d="M3,0A3,3 0 1,1 0,-3A3,3 0 0,1 3,0Z" style="opacity: 1; stroke-width: 0px; fill: rgb(139, 0, 139); fill-opacity: 1;"/><path class="point" transform="translate(478.77,145.75)" d="M3,0A3,3 0 1,1 0,-3A3,3 0 0,1 3,0Z" style="opacity: 1; stroke-width: 0px; fill: rgb(139, 0, 139); fill-opacity: 1;"/><path class="point" transform="translate(479.09,145.75)" d="M3,0A3,3 0 1,1 0,-3A3,3 0 0,1 3,0Z" style="opacity: 1; stroke-width: 0px; fill: rgb(139, 0, 139); fill-opacity: 1;"/><path class="point" transform="translate(479.61,140.95)" d="M3,0A3,3 0 1,1 0,-3A3,3 0 0,1 3,0Z" style="opacity: 1; stroke-width: 0px; fill: rgb(139, 0, 139); fill-opacity: 1;"/><path class="point" transform="translate(479.24,137.06)" d="M3,0A3,3 0 1,1 0,-3A3,3 0 0,1 3,0Z" style="opacity: 1; stroke-width: 0px; fill: rgb(139, 0, 139); fill-opacity: 1;"/><path class="point" transform="translate(478.82,132.03)" d="M3,0A3,3 0 1,1 0,-3A3,3 0 0,1 3,0Z" style="opacity: 1; stroke-width: 0px; fill: rgb(139, 0, 139); fill-opacity: 1;"/><path class="point" transform="translate(478.25,128.38)" d="M3,0A3,3 0 1,1 0,-3A3,3 0 0,1 3,0Z" style="opacity: 1; stroke-width: 0px; fill: rgb(139, 0, 139); fill-opacity: 1;"/><path class="point" transform="translate(479.11,123.12)" d="M3,0A3,3 0 1,1 0,-3A3,3 0 0,1 3,0Z" style="opacity: 1; stroke-width: 0px; fill: rgb(139, 0, 139); fill-opacity: 1;"/><path class="point" transform="translate(478.82,123.12)" d="M3,0A3,3 0 1,1 0,-3A3,3 0 0,1 3,0Z" style="opacity: 1; stroke-width: 0px; fill: rgb(139, 0, 139); fill-opacity: 1;"/><path class="point" transform="translate(479.6,123.12)" d="M3,0A3,3 0 1,1 0,-3A3,3 0 0,1 3,0Z" style="opacity: 1; stroke-width: 0px; fill: rgb(139, 0, 139); fill-opacity: 1;"/><path class="point" transform="translate(479.01,119.69)" d="M3,0A3,3 0 1,1 0,-3A3,3 0 0,1 3,0Z" style="opacity: 1; stroke-width: 0px; fill: rgb(139, 0, 139); fill-opacity: 1;"/><path class="point" transform="translate(478.29,119.69)" d="M3,0A3,3 0 1,1 0,-3A3,3 0 0,1 3,0Z" style="opacity: 1; stroke-width: 0px; fill: rgb(139, 0, 139); fill-opacity: 1;"/><path class="point" transform="translate(477.95,119.69)" d="M3,0A3,3 0 1,1 0,-3A3,3 0 0,1 3,0Z" style="opacity: 1; stroke-width: 0px; fill: rgb(139, 0, 139); fill-opacity: 1;"/><path class="point" transform="translate(479.77,114.21)" d="M3,0A3,3 0 1,1 0,-3A3,3 0 0,1 3,0Z" style="opacity: 1; stroke-width: 0px; fill: rgb(139, 0, 139); fill-opacity: 1;"/><path class="point" transform="translate(478.13,111.01)" d="M3,0A3,3 0 1,1 0,-3A3,3 0 0,1 3,0Z" style="opacity: 1; stroke-width: 0px; fill: rgb(139, 0, 139); fill-opacity: 1;"/><path class="point" transform="translate(479.77,111.01)" d="M3,0A3,3 0 1,1 0,-3A3,3 0 0,1 3,0Z" style="opacity: 1; stroke-width: 0px; fill: rgb(139, 0, 139); fill-opacity: 1;"/><path class="point" transform="translate(479.34,111.01)" d="M3,0A3,3 0 1,1 0,-3A3,3 0 0,1 3,0Z" style="opacity: 1; stroke-width: 0px; fill: rgb(139, 0, 139); fill-opacity: 1;"/><path class="point" transform="translate(478.81,105.29)" d="M3,0A3,3 0 1,1 0,-3A3,3 0 0,1 3,0Z" style="opacity: 1; stroke-width: 0px; fill: rgb(139, 0, 139); fill-opacity: 1;"/><path class="point" transform="translate(478.43,102.32)" d="M3,0A3,3 0 1,1 0,-3A3,3 0 0,1 3,0Z" style="opacity: 1; stroke-width: 0px; fill: rgb(139, 0, 139); fill-opacity: 1;"/><path class="point" transform="translate(479.69,102.32)" d="M3,0A3,3 0 1,1 0,-3A3,3 0 0,1 3,0Z" style="opacity: 1; stroke-width: 0px; fill: rgb(139, 0, 139); fill-opacity: 1;"/><path class="point" transform="translate(479,96.38)" d="M3,0A3,3 0 1,1 0,-3A3,3 0 0,1 3,0Z" style="opacity: 1; stroke-width: 0px; fill: rgb(139, 0, 139); fill-opacity: 1;"/><path class="point" transform="translate(479.83,93.63)" d="M3,0A3,3 0 1,1 0,-3A3,3 0 0,1 3,0Z" style="opacity: 1; stroke-width: 0px; fill: rgb(139, 0, 139); fill-opacity: 1;"/><path class="point" transform="translate(478.13,93.63)" d="M3,0A3,3 0 1,1 0,-3A3,3 0 0,1 3,0Z" style="opacity: 1; stroke-width: 0px; fill: rgb(139, 0, 139); fill-opacity: 1;"/><path class="point" transform="translate(479.92,93.63)" d="M3,0A3,3 0 1,1 0,-3A3,3 0 0,1 3,0Z" style="opacity: 1; stroke-width: 0px; fill: rgb(139, 0, 139); fill-opacity: 1;"/><path class="point" transform="translate(479.03,93.63)" d="M3,0A3,3 0 1,1 0,-3A3,3 0 0,1 3,0Z" style="opacity: 1; stroke-width: 0px; fill: rgb(139, 0, 139); fill-opacity: 1;"/><path class="point" transform="translate(478.65,87.46)" d="M3,0A3,3 0 1,1 0,-3A3,3 0 0,1 3,0Z" style="opacity: 1; stroke-width: 0px; fill: rgb(139, 0, 139); fill-opacity: 1;"/><path class="point" transform="translate(478.1,84.95)" d="M3,0A3,3 0 1,1 0,-3A3,3 0 0,1 3,0Z" style="opacity: 1; stroke-width: 0px; fill: rgb(139, 0, 139); fill-opacity: 1;"/><path class="point" transform="translate(478.76,84.95)" d="M3,0A3,3 0 1,1 0,-3A3,3 0 0,1 3,0Z" style="opacity: 1; stroke-width: 0px; fill: rgb(139, 0, 139); fill-opacity: 1;"/><path class="point" transform="translate(479.68,84.95)" d="M3,0A3,3 0 1,1 0,-3A3,3 0 0,1 3,0Z" style="opacity: 1; stroke-width: 0px; fill: rgb(139, 0, 139); fill-opacity: 1;"/><path class="point" transform="translate(478.92,76.26)" d="M3,0A3,3 0 1,1 0,-3A3,3 0 0,1 3,0Z" style="opacity: 1; stroke-width: 0px; fill: rgb(139, 0, 139); fill-opacity: 1;"/><path class="point" transform="translate(478.47,76.26)" d="M3,0A3,3 0 1,1 0,-3A3,3 0 0,1 3,0Z" style="opacity: 1; stroke-width: 0px; fill: rgb(139, 0, 139); fill-opacity: 1;"/><path class="point" transform="translate(479.5,67.58)" d="M3,0A3,3 0 1,1 0,-3A3,3 0 0,1 3,0Z" style="opacity: 1; stroke-width: 0px; fill: rgb(139, 0, 139); fill-opacity: 1;"/><path class="point" transform="translate(478.72,58.89)" d="M3,0A3,3 0 1,1 0,-3A3,3 0 0,1 3,0Z" style="opacity: 1; stroke-width: 0px; fill: rgb(139, 0, 139); fill-opacity: 1;"/></g></g></g></g><g class="overplot"/><path class="xlines-above crisp" d="M79,420.5H590" style="fill: none; stroke-width: 1px; stroke: rgb(255, 255, 255); stroke-opacity: 1;"/><path class="ylines-above crisp" d="M79.5,100V420" style="fill: none; stroke-width: 1px; stroke: rgb(255, 255, 255); stroke-opacity: 1;"/><g class="overlines-above"/><g class="xaxislayer-above"><g class="xtick"><text text-anchor="middle" x="0" y="435.4" transform="translate(143.38,0)" style="font-family: 'Open Sans', verdana, arial, sans-serif; font-size: 12px; fill: rgb(42, 63, 95); fill-opacity: 1; white-space: pre;">Accuracy</text></g><g class="xtick"><text text-anchor="middle" x="0" y="435.4" transform="translate(270.13,0)" style="font-family: 'Open Sans', verdana, arial, sans-serif; font-size: 12px; fill: rgb(42, 63, 95); fill-opacity: 1; white-space: pre;">Precision</text></g><g class="xtick"><text text-anchor="middle" x="0" y="435.4" transform="translate(396.88,0)" style="font-family: 'Open Sans', verdana, arial, sans-serif; font-size: 12px; fill: rgb(42, 63, 95); fill-opacity: 1; white-space: pre;">F1 Score</text></g><g class="xtick"><text text-anchor="middle" x="0" y="435.4" transform="translate(523.63,0)" style="font-family: 'Open Sans', verdana, arial, sans-serif; font-size: 12px; fill: rgb(42, 63, 95); fill-opacity: 1; white-space: pre;">Recall</text></g></g><g class="yaxislayer-above"><g class="ytick"><text text-anchor="end" x="76.6" y="4.199999999999999" transform="translate(0,360.4)" style="font-family: 'Open Sans', verdana, arial, sans-serif; font-size: 12px; fill: rgb(42, 63, 95); fill-opacity: 1; white-space: pre;">0.2</text></g><g class="ytick"><text text-anchor="end" x="76.6" y="4.199999999999999" transform="translate(0,292.65)" style="font-family: 'Open Sans', verdana, arial, sans-serif; font-size: 12px; fill: rgb(42, 63, 95); fill-opacity: 1; white-space: pre;">0.4</text></g><g class="ytick"><text text-anchor="end" x="76.6" y="4.199999999999999" transform="translate(0,224.9)" style="font-family: 'Open Sans', verdana, arial, sans-serif; font-size: 12px; fill: rgb(42, 63, 95); fill-opacity: 1; white-space: pre;">0.6</text></g><g class="ytick"><text text-anchor="end" x="76.6" y="4.199999999999999" transform="translate(0,157.15)" style="font-family: 'Open Sans', verdana, arial, sans-serif; font-size: 12px; fill: rgb(42, 63, 95); fill-opacity: 1; white-space: pre;">0.8</text></g></g><g class="overaxes-above"/></g></g><g class="polarlayer"/><g class="ternarylayer"/><g class="geolayer"/><g class="funnelarealayer"/><g class="pielayer"/><g class="treemaplayer"/><g class="sunburstlayer"/><g class="glimages"/><defs id="topdefs-c045ef"><g class="clips"/><clipPath id="legendc045ef"><rect width="88" height="86" x="0" y="0"/></clipPath></defs><g class="layer-above"><g class="imagelayer"/><g class="shapelayer"/></g><g class="infolayer"><g class="legend" pointer-events="all" transform="translate(600.2, 100)"><rect class="bg" shape-rendering="crispEdges" width="88" height="86" x="0" y="0" style="stroke: rgb(68, 68, 68); stroke-opacity: 1; fill: rgb(255, 255, 255); fill-opacity: 1; stroke-width: 0px;"/><g class="scrollbox" transform="translate(0, 0)" clip-path="url('#legendc045ef')"><g class="groups"><g class="traces" transform="translate(0, 14.5)" style="opacity: 1;"><text class="legendtext user-select-none" text-anchor="start" x="40" y="4.680000000000001" style="font-family: 'Open Sans', verdana, arial, sans-serif; font-size: 12px; fill: rgb(42, 63, 95); fill-opacity: 1; white-space: pre;">trace 0</text><g class="layers" style="opacity: 1;"><g class="legendfill"/><g class="legendlines"/><g class="legendsymbols"><g class="legendpoints"><path class="legendbox" d="M6,6H-6V-6H6Z" transform="translate(20,0)" style="stroke-width: 2px; fill: rgb(0, 128, 0); fill-opacity: 0.5; stroke: rgb(0, 128, 0); stroke-opacity: 1;"/></g></g></g><rect class="legendtoggle" pointer-events="all" x="0" y="-9.5" width="82.3125" height="19" style="cursor: pointer; fill: rgb(0, 0, 0); fill-opacity: 0;"/></g><g class="traces" transform="translate(0, 33.5)" style="opacity: 1;"><text class="legendtext user-select-none" text-anchor="start" x="40" y="4.680000000000001" style="font-family: 'Open Sans', verdana, arial, sans-serif; font-size: 12px; fill: rgb(42, 63, 95); fill-opacity: 1; white-space: pre;">trace 1</text><g class="layers" style="opacity: 1;"><g class="legendfill"/><g class="legendlines"/><g class="legendsymbols"><g class="legendpoints"><path class="legendbox" d="M6,6H-6V-6H6Z" transform="translate(20,0)" style="stroke-width: 2px; fill: rgb(0, 128, 128); fill-opacity: 0.5; stroke: rgb(0, 128, 128); stroke-opacity: 1;"/></g></g></g><rect class="legendtoggle" pointer-events="all" x="0" y="-9.5" width="82.3125" height="19" style="cursor: pointer; fill: rgb(0, 0, 0); fill-opacity: 0;"/></g><g class="traces" transform="translate(0, 52.5)" style="opacity: 1;"><text class="legendtext user-select-none" text-anchor="start" x="40" y="4.680000000000001" style="font-family: 'Open Sans', verdana, arial, sans-serif; font-size: 12px; fill: rgb(42, 63, 95); fill-opacity: 1; white-space: pre;">trace 2</text><g class="layers" style="opacity: 1;"><g class="legendfill"/><g class="legendlines"/><g class="legendsymbols"><g class="legendpoints"><path class="legendbox" d="M6,6H-6V-6H6Z" transform="translate(20,0)" style="stroke-width: 2px; fill: rgb(139, 0, 0); fill-opacity: 0.5; stroke: rgb(139, 0, 0); stroke-opacity: 1;"/></g></g></g><rect class="legendtoggle" pointer-events="all" x="0" y="-9.5" width="82.3125" height="19" style="cursor: pointer; fill: rgb(0, 0, 0); fill-opacity: 0;"/></g><g class="traces" transform="translate(0, 71.5)" style="opacity: 1;"><text class="legendtext user-select-none" text-anchor="start" x="40" y="4.680000000000001" style="font-family: 'Open Sans', verdana, arial, sans-serif; font-size: 12px; fill: rgb(42, 63, 95); fill-opacity: 1; white-space: pre;">trace 3</text><g class="layers" style="opacity: 1;"><g class="legendfill"/><g class="legendlines"/><g class="legendsymbols"><g class="legendpoints"><path class="legendbox" d="M6,6H-6V-6H6Z" transform="translate(20,0)" style="stroke-width: 2px; fill: rgb(139, 0, 139); fill-opacity: 0.5; stroke: rgb(139, 0, 139); stroke-opacity: 1;"/></g></g></g><rect class="legendtoggle" pointer-events="all" x="0" y="-9.5" width="82.3125" height="19" style="cursor: pointer; fill: rgb(0, 0, 0); fill-opacity: 0;"/></g></g></g><rect class="scrollbar" rx="20" ry="3" width="0" height="0" x="0" y="0" style="fill: rgb(128, 139, 164); fill-opacity: 1;"/></g><g class="g-gtitle"><text class="gtitle" x="35" y="50" text-anchor="start" dy="0em" style="font-family: 'Open Sans', verdana, arial, sans-serif; font-size: 17px; fill: rgb(42, 63, 95); opacity: 1; font-weight: normal; white-space: pre;">Multinomial Naive Bayes</text></g><g class="g-xtitle"/><g class="g-ytitle"/></g></svg>