<svg class="main-svg" xmlns="http://www.w3.org/2000/svg" xmlns:xlink="http://www.w3.org/1999/xlink" width="700" height="500" style="" viewBox="0 0 700 500"><rect x="0" y="0" width="700" height="500" style="fill: rgb(255, 255, 255); fill-opacity: 1;"/><defs id="defs-e274d0"><g class="clips"><clipPath id="clipe274d0xyplot" class="plotclip"><rect width="485" height="320"/></clipPath><clipPath class="axesclip" id="clipe274d0x"><rect x="80" y="0" width="485" height="500"/></clipPath><clipPath class="axesclip" id="clipe274d0y"><rect x="0" y="100" width="700" height="320"/></clipPath><clipPath class="axesclip" id="clipe274d0xy"><rect x="80" y="100" width="485" height="320"/></clipPath></g><g class="gradients"/></defs><g class="bglayer"><rect class="bg" x="80" y="100" width="485" height="320" style="fill: rgb(229, 236, 246); fill-opacity: 1; stroke-width: 0;"/></g><g class="layer-below"><g class="imagelayer"/><g class="shapelayer"/></g><g class="cartesianlayer"><g class="subplot xy"><g class="layer-subplot"><g class="shapelayer"/><g class="imagelayer"/></g><g class="gridlayer"><g class="x"><path class="xgrid crisp" transform="translate(142.12,0)" d="M0,100v320" style="stroke: rgb(255, 255, 255); stroke-opacity: 1; stroke-width: 1px;"/><path class="xgrid crisp" transform="translate(262.37,0)" d="M0,100v320" style="stroke: rgb(255, 255, 255); stroke-opacity: 1; stroke-width: 1px;"/><path class="xgrid crisp" transform="translate(382.63,0)" d="M0,100v320" style="stroke: rgb(255, 255, 255); stroke-opacity: 1; stroke-width: 1px;"/><path class="xgrid crisp" transform="translate(502.88,0)" d="M0,100v320" style="stroke: rgb(255, 255, 255); stroke-opacity: 1; stroke-width: 1px;"/></g><g class="y"><path class="ygrid crisp" transform="translate(0,387.95)" d="M80,0h485" style="stroke: rgb(255, 255, 255); stroke-opacity: 1; stroke-width: 1px;"/><path class="ygrid crisp" transform="translate(0,333.34000000000003)" d="M80,0h485" style="stroke: rgb(255, 255, 255); stroke-opacity: 1; stroke-width: 1px;"/><path class="ygrid crisp" transform="translate(0,278.74)" d="M80,0h485" style="stroke: rgb(255, 255, 255); stroke-opacity: 1; stroke-width: 1px;"/><path class="ygrid crisp" transform="translate(0,224.14)" d="M80,0h485" style="stroke: rgb(255, 255, 255); stroke-opacity: 1; stroke-width: 1px;"/><path class="ygrid crisp" transform="translate(0,169.54000000000002)" d="M80,0h485" style="stroke: rgb(255, 255, 255); stroke-opacity: 1; stroke-width: 1px;"/><path class="ygrid crisp" transform="translate(0,114.93)" d="M80,0h485" style="stroke: rgb(255, 255, 255); stroke-opacity: 1; stroke-width: 1px;"/></g></g><g class="zerolinelayer"/><path class="xlines-below"/><path class="ylines-below"/><g class="overlines-below"/><g class="xaxislayer-below"/><g class="yaxislayer-below"/><g class="overaxes-below"/><g class="plot" transform="translate(80, 100)" clip-path="url('#clipe274d0xyplot')"><g class="violinlayer mlayer"><g class="trace violins" style="opacity: 1;"><path class="violin" d="M62.12,63.89L60.9,63.89Q60.22,67.66 59.72,69.52C59.21,71.41 58.59,73.29 57.87,75.14C57.13,77.04 56.24,78.91 55.31,80.77C54.37,82.66 53.28,84.52 52.26,86.39C51.23,88.27 50.11,90.13 49.16,92.02C48.22,93.88 47.28,95.74 46.58,97.64C45.9,99.49 45.34,101.37 44.98,103.26C44.63,105.12 44.5,107.01 44.45,108.89C44.4,110.76 44.56,112.64 44.65,114.51C44.74,116.39 44.95,118.26 44.99,120.14C45.03,122.01 45.03,123.89 44.87,125.76C44.71,127.64 44.4,129.52 44.02,131.38C43.64,133.27 43.07,135.14 42.59,137.01C42.1,138.89 41.5,140.75 41.11,142.63C40.72,144.5 40.34,146.38 40.24,148.26C40.14,150.13 40.19,152.02 40.48,153.88C40.78,155.77 41.34,157.66 42.03,159.51C42.74,161.42 43.71,163.28 44.7,165.13C45.71,167.03 46.91,168.88 48.05,170.75C49.2,172.63 50.44,174.49 51.56,176.38C52.67,178.24 53.78,180.11 54.76,182C55.72,183.86 56.62,185.73 57.38,187.63C58.13,189.48 58.76,191.36 59.3,193.25C59.83,195.11 60.24,197 60.58,198.88Q60.92,200.75 61.35,204.5L62.12,204.5" style="vector-effect: non-scaling-stroke; stroke-width: 2px; stroke: rgb(0, 128, 0); stroke-opacity: 1; fill: rgb(0, 128, 0); fill-opacity: 0.5;"/><path class="meanline" d="M43.608154296875,133.18H62.12" style="fill: none; vector-effect: non-scaling-stroke; stroke-width: 2px; stroke-dasharray: 4px, 2px; stroke: rgb(0, 128, 0); stroke-opacity: 1;"/><g class="points"><path class="point" transform="translate(29.08,170.12)" d="M3,0A3,3 0 1,1 0,-3A3,3 0 0,1 3,0Z" style="opacity: 1; stroke-width: 0px; fill: rgb(0, 128, 0); fill-opacity: 1;"/><path class="point" transform="translate(27.83,160.54)" d="M3,0A3,3 0 1,1 0,-3A3,3 0 0,1 3,0Z" style="opacity: 1; stroke-width: 0px; fill: rgb(0, 128, 0); fill-opacity: 1;"/><path class="point" transform="translate(29.11,155.75)" d="M3,0A3,3 0 1,1 0,-3A3,3 0 0,1 3,0Z" style="opacity: 1; stroke-width: 0px; fill: rgb(0, 128, 0); fill-opacity: 1;"/><path class="point" transform="translate(27.68,146.54)" d="M3,0A3,3 0 1,1 0,-3A3,3 0 0,1 3,0Z" style="opacity: 1; stroke-width: 0px; fill: rgb(0, 128, 0); fill-opacity: 1;"/><path class="point" transform="translate(28.21,146.54)" d="M3,0A3,3 0 1,1 0,-3A3,3 0 0,1 3,0Z" style="opacity: 1; stroke-width: 0px; fill: rgb(0, 128, 0); fill-opacity: 1;"/><path class="point" transform="translate(28.96,146.54)" d="M3,0A3,3 0 1,1 0,-3A3,3 0 0,1 3,0Z" style="opacity: 1; stroke-width: 0px; fill: rgb(0, 128, 0); fill-opacity: 1;"/><path class="point" transform="translate(28.42,127.01)" d="M3,0A3,3 0 1,1 0,-3A3,3 0 0,1 3,0Z" style="opacity: 1; stroke-width: 0px; fill: rgb(0, 128, 0); fill-opacity: 1;"/><path class="point" transform="translate(28.73,104.54)" d="M3,0A3,3 0 1,1 0,-3A3,3 0 0,1 3,0Z" style="opacity: 1; stroke-width: 0px; fill: rgb(0, 128, 0); fill-opacity: 1;"/><path class="point" transform="translate(28.14,104.54)" d="M3,0A3,3 0 1,1 0,-3A3,3 0 0,1 3,0Z" style="opacity: 1; stroke-width: 0px; fill: rgb(0, 128, 0); fill-opacity: 1;"/><path class="point" transform="translate(27.78,104.54)" d="M3,0A3,3 0 1,1 0,-3A3,3 0 0,1 3,0Z" style="opacity: 1; stroke-width: 0px; fill: rgb(0, 128, 0); fill-opacity: 1;"/><path class="point" transform="translate(28.68,98.27)" d="M3,0A3,3 0 1,1 0,-3A3,3 0 0,1 3,0Z" style="opacity: 1; stroke-width: 0px; fill: rgb(0, 128, 0); fill-opacity: 1;"/></g></g><g class="trace violins" style="opacity: 1;"><path class="violin" d="M62.12,215.66L62.75,215.66Q63.09,211.22 63.35,209.01C63.61,206.79 63.92,204.57 64.32,202.36C64.72,200.14 65.19,197.92 65.75,195.71C66.31,193.48 66.97,191.27 67.67,189.06C68.38,186.83 69.18,184.62 69.98,182.41C70.78,180.19 71.65,177.98 72.46,175.76C73.26,173.55 74.1,171.34 74.81,169.11C75.51,166.9 76.18,164.69 76.7,162.46C77.21,160.26 77.62,158.03 77.9,155.81C78.17,153.6 78.29,151.38 78.36,149.16C78.43,146.94 78.33,144.73 78.3,142.51C78.26,140.29 78.14,138.08 78.15,135.86C78.16,133.64 78.18,131.42 78.37,129.21C78.56,126.99 78.87,124.77 79.28,122.56C79.7,120.33 80.29,118.12 80.86,115.91C81.43,113.69 82.15,111.48 82.69,109.26C83.22,107.05 83.81,104.85 84.08,102.62C84.35,100.42 84.5,98.18 84.32,95.97C84.14,93.74 83.68,91.5 83.01,89.32C82.32,87.07 81.29,84.86 80.22,82.67C79.12,80.42 77.75,78.23 76.46,76.02C75.16,73.79 73.74,71.6 72.47,69.37C71.22,67.17 69.96,64.96 68.9,62.72C67.86,60.53 66.92,58.31 66.15,56.07Q65.39,53.88 64.29,49.42L62.12,49.42" style="vector-effect: non-scaling-stroke; stroke-width: 2px; stroke: rgb(32, 178, 170); stroke-opacity: 1; fill: rgb(32, 178, 170); fill-opacity: 0.5;"/><path class="meanline" d="M79.41948699951172,121.85H62.12" style="fill: none; vector-effect: non-scaling-stroke; stroke-width: 2px; stroke-dasharray: 4px, 2px; stroke: rgb(32, 178, 170); stroke-opacity: 1;"/><g class="points"><path class="point" transform="translate(96.11,174.54)" d="M3,0A3,3 0 1,1 0,-3A3,3 0 0,1 3,0Z" style="opacity: 1; stroke-width: 0px; fill: rgb(32, 178, 170); fill-opacity: 1;"/><path class="point" transform="translate(95.42,160.54)" d="M3,0A3,3 0 1,1 0,-3A3,3 0 0,1 3,0Z" style="opacity: 1; stroke-width: 0px; fill: rgb(32, 178, 170); fill-opacity: 1;"/><path class="point" transform="translate(96.27,155.75)" d="M3,0A3,3 0 1,1 0,-3A3,3 0 0,1 3,0Z" style="opacity: 1; stroke-width: 0px; fill: rgb(32, 178, 170); fill-opacity: 1;"/><path class="point" transform="translate(95.27,146.54)" d="M3,0A3,3 0 1,1 0,-3A3,3 0 0,1 3,0Z" style="opacity: 1; stroke-width: 0px; fill: rgb(32, 178, 170); fill-opacity: 1;"/><path class="point" transform="translate(95.63,141.38)" d="M3,0A3,3 0 1,1 0,-3A3,3 0 0,1 3,0Z" style="opacity: 1; stroke-width: 0px; fill: rgb(32, 178, 170); fill-opacity: 1;"/><path class="point" transform="translate(96.16,118.54)" d="M3,0A3,3 0 1,1 0,-3A3,3 0 0,1 3,0Z" style="opacity: 1; stroke-width: 0px; fill: rgb(32, 178, 170); fill-opacity: 1;"/><path class="point" transform="translate(95.76,104.54)" d="M3,0A3,3 0 1,1 0,-3A3,3 0 0,1 3,0Z" style="opacity: 1; stroke-width: 0px; fill: rgb(32, 178, 170); fill-opacity: 1;"/><path class="point" transform="translate(96.01,98.27)" d="M3,0A3,3 0 1,1 0,-3A3,3 0 0,1 3,0Z" style="opacity: 1; stroke-width: 0px; fill: rgb(32, 178, 170); fill-opacity: 1;"/><path class="point" transform="translate(95.55,90.54)" d="M3,0A3,3 0 1,1 0,-3A3,3 0 0,1 3,0Z" style="opacity: 1; stroke-width: 0px; fill: rgb(32, 178, 170); fill-opacity: 1;"/><path class="point" transform="translate(95.25,90.54)" d="M3,0A3,3 0 1,1 0,-3A3,3 0 0,1 3,0Z" style="opacity: 1; stroke-width: 0px; fill: rgb(32, 178, 170); fill-opacity: 1;"/><path class="point" transform="translate(96.04,90.54)" d="M3,0A3,3 0 1,1 0,-3A3,3 0 0,1 3,0Z" style="opacity: 1; stroke-width: 0px; fill: rgb(32, 178, 170); fill-opacity: 1;"/><path class="point" transform="translate(95.4,90.54)" d="M3,0A3,3 0 1,1 0,-3A3,3 0 0,1 3,0Z" style="opacity: 1; stroke-width: 0px; fill: rgb(32, 178, 170); fill-opacity: 1;"/></g></g><g class="trace violins" style="opacity: 1;"><path class="violin" d="M182.37,16L181.46,16Q180.96,23.46 180.59,27.18C180.22,30.91 179.77,34.64 179.23,38.36C178.69,42.09 178.04,45.82 177.36,49.54C176.68,53.27 175.88,56.99 175.14,60.72C174.39,64.45 173.57,68.17 172.89,71.9C172.21,75.62 171.53,79.35 171.04,83.08C170.55,86.8 170.15,90.53 169.94,94.26C169.73,97.98 169.68,101.71 169.75,105.44C169.82,109.17 170.06,112.9 170.34,116.62C170.62,120.35 171.04,124.07 171.42,127.8C171.8,131.53 172.25,135.25 172.63,138.98C173.01,142.71 173.38,146.43 173.68,150.16C173.98,153.88 174.22,157.61 174.43,161.34C174.63,165.07 174.77,168.79 174.91,172.52C175.04,176.25 175.13,179.97 175.24,183.7C175.35,187.43 175.45,191.15 175.59,194.88C175.73,198.61 175.88,202.33 176.08,206.06C176.28,209.79 176.52,213.51 176.79,217.24C177.06,220.97 177.38,224.69 177.7,228.42C178.02,232.15 178.37,235.87 178.71,239.6C179.04,243.33 179.4,247.05 179.71,250.78C180.02,254.51 180.32,258.23 180.58,261.96C180.84,265.69 181.07,269.41 181.27,273.14C181.46,276.87 181.62,280.59 181.75,284.32Q181.88,288.05 182.05,295.5L182.37,295.5" style="vector-effect: non-scaling-stroke; stroke-width: 2px; stroke: rgb(255, 0, 0); stroke-opacity: 1; fill: rgb(255, 0, 0); fill-opacity: 0.5;"/><path class="meanline" d="M172.19500732421875,134.92H182.37" style="fill: none; vector-effect: non-scaling-stroke; stroke-width: 2px; stroke-dasharray: 4px, 2px; stroke: rgb(255, 0, 0); stroke-opacity: 1;"/><g class="points"><path class="point" transform="translate(149.06,227.6)" d="M3,0A3,3 0 1,1 0,-3A3,3 0 0,1 3,0Z" style="opacity: 1; stroke-width: 0px; fill: rgb(255, 0, 0); fill-opacity: 1;"/><path class="point" transform="translate(148.27,202.54)" d="M3,0A3,3 0 1,1 0,-3A3,3 0 0,1 3,0Z" style="opacity: 1; stroke-width: 0px; fill: rgb(255, 0, 0); fill-opacity: 1;"/><path class="point" transform="translate(149.26,188.54)" d="M3,0A3,3 0 1,1 0,-3A3,3 0 0,1 3,0Z" style="opacity: 1; stroke-width: 0px; fill: rgb(255, 0, 0); fill-opacity: 1;"/><path class="point" transform="translate(148.06,160.54)" d="M3,0A3,3 0 1,1 0,-3A3,3 0 0,1 3,0Z" style="opacity: 1; stroke-width: 0px; fill: rgb(255, 0, 0); fill-opacity: 1;"/><path class="point" transform="translate(148.5,132.54)" d="M3,0A3,3 0 1,1 0,-3A3,3 0 0,1 3,0Z" style="opacity: 1; stroke-width: 0px; fill: rgb(255, 0, 0); fill-opacity: 1;"/><path class="point" transform="translate(149.14,118.54)" d="M3,0A3,3 0 1,1 0,-3A3,3 0 0,1 3,0Z" style="opacity: 1; stroke-width: 0px; fill: rgb(255, 0, 0); fill-opacity: 1;"/><path class="point" transform="translate(148.67,98.27)" d="M3,0A3,3 0 1,1 0,-3A3,3 0 0,1 3,0Z" style="opacity: 1; stroke-width: 0px; fill: rgb(255, 0, 0); fill-opacity: 1;"/><path class="point" transform="translate(148.96,90.54)" d="M3,0A3,3 0 1,1 0,-3A3,3 0 0,1 3,0Z" style="opacity: 1; stroke-width: 0px; fill: rgb(255, 0, 0); fill-opacity: 1;"/><path class="point" transform="translate(148.4,90.54)" d="M3,0A3,3 0 1,1 0,-3A3,3 0 0,1 3,0Z" style="opacity: 1; stroke-width: 0px; fill: rgb(255, 0, 0); fill-opacity: 1;"/><path class="point" transform="translate(147.89,90.54)" d="M3,0A3,3 0 1,1 0,-3A3,3 0 0,1 3,0Z" style="opacity: 1; stroke-width: 0px; fill: rgb(255, 0, 0); fill-opacity: 1;"/><path class="point" transform="translate(149.03,83.9)" d="M3,0A3,3 0 1,1 0,-3A3,3 0 0,1 3,0Z" style="opacity: 1; stroke-width: 0px; fill: rgb(255, 0, 0); fill-opacity: 1;"/></g></g><g class="trace violins" style="opacity: 1;"><path class="violin" d="M182.37,295.5L182.72,295.5Q182.9,288.05 183.04,284.32C183.18,280.59 183.35,276.87 183.56,273.14C183.77,269.41 184.01,265.69 184.29,261.96C184.57,258.23 184.9,254.51 185.23,250.78C185.56,247.05 185.93,243.33 186.29,239.6C186.65,235.87 187.04,232.15 187.38,228.42C187.72,224.69 188.05,220.97 188.34,217.24C188.63,213.51 188.89,209.79 189.11,206.06C189.33,202.33 189.49,198.61 189.64,194.88C189.79,191.15 189.89,187.43 190.01,183.7C190.13,179.97 190.22,176.25 190.36,172.52C190.5,168.79 190.65,165.07 190.87,161.34C191.09,157.61 191.36,153.88 191.68,150.16C192,146.43 192.4,142.71 192.8,138.98C193.2,135.25 193.68,131.53 194.09,127.8C194.5,124.07 194.95,120.35 195.25,116.62C195.55,112.9 195.82,109.17 195.89,105.44C195.96,101.71 195.91,97.98 195.68,94.26C195.45,90.53 195.02,86.8 194.5,83.08C193.97,79.34 193.25,75.62 192.52,71.9C191.79,68.17 190.91,64.45 190.11,60.72C189.31,56.99 188.47,53.27 187.74,49.54C187.01,45.82 186.32,42.09 185.74,38.36C185.16,34.64 184.68,30.91 184.28,27.18Q183.88,23.46 183.35,16L182.37,16" style="vector-effect: non-scaling-stroke; stroke-width: 2px; stroke: rgb(139, 0, 139); stroke-opacity: 1; fill: rgb(139, 0, 139); fill-opacity: 0.5;"/><path class="meanline" d="M193.26034545898438,134.92H182.37" style="fill: none; vector-effect: non-scaling-stroke; stroke-width: 2px; stroke-dasharray: 4px, 2px; stroke: rgb(139, 0, 139); stroke-opacity: 1;"/><g class="points"><path class="point" transform="translate(216.4,227.6)" d="M3,0A3,3 0 1,1 0,-3A3,3 0 0,1 3,0Z" style="opacity: 1; stroke-width: 0px; fill: rgb(139, 0, 139); fill-opacity: 1;"/><path class="point" transform="translate(215.61,202.54)" d="M3,0A3,3 0 1,1 0,-3A3,3 0 0,1 3,0Z" style="opacity: 1; stroke-width: 0px; fill: rgb(139, 0, 139); fill-opacity: 1;"/><path class="point" transform="translate(216.6,188.54)" d="M3,0A3,3 0 1,1 0,-3A3,3 0 0,1 3,0Z" style="opacity: 1; stroke-width: 0px; fill: rgb(139, 0, 139); fill-opacity: 1;"/><path class="point" transform="translate(215.4,160.54)" d="M3,0A3,3 0 1,1 0,-3A3,3 0 0,1 3,0Z" style="opacity: 1; stroke-width: 0px; fill: rgb(139, 0, 139); fill-opacity: 1;"/><path class="point" transform="translate(215.84,132.54)" d="M3,0A3,3 0 1,1 0,-3A3,3 0 0,1 3,0Z" style="opacity: 1; stroke-width: 0px; fill: rgb(139, 0, 139); fill-opacity: 1;"/><path class="point" transform="translate(216.48,118.54)" d="M3,0A3,3 0 1,1 0,-3A3,3 0 0,1 3,0Z" style="opacity: 1; stroke-width: 0px; fill: rgb(139, 0, 139); fill-opacity: 1;"/><path class="point" transform="translate(216.01,98.27)" d="M3,0A3,3 0 1,1 0,-3A3,3 0 0,1 3,0Z" style="opacity: 1; stroke-width: 0px; fill: rgb(139, 0, 139); fill-opacity: 1;"/><path class="point" transform="translate(216.3,90.54)" d="M3,0A3,3 0 1,1 0,-3A3,3 0 0,1 3,0Z" style="opacity: 1; stroke-width: 0px; fill: rgb(139, 0, 139); fill-opacity: 1;"/><path class="point" transform="translate(215.74,90.54)" d="M3,0A3,3 0 1,1 0,-3A3,3 0 0,1 3,0Z" style="opacity: 1; stroke-width: 0px; fill: rgb(139, 0, 139); fill-opacity: 1;"/><path class="point" transform="translate(215.23,90.54)" d="M3,0A3,3 0 1,1 0,-3A3,3 0 0,1 3,0Z" style="opacity: 1; stroke-width: 0px; fill: rgb(139, 0, 139); fill-opacity: 1;"/><path class="point" transform="translate(216.37,83.9)" d="M3,0A3,3 0 1,1 0,-3A3,3 0 0,1 3,0Z" style="opacity: 1; stroke-width: 0px; fill: rgb(139, 0, 139); fill-opacity: 1;"/></g></g><g class="trace violins" style="opacity: 1;"><path class="violin" d="M302.63,50.42L301.44,50.42Q300.79,54.85 300.29,57.05C299.79,59.27 299.18,61.49 298.43,63.68C297.67,65.91 296.76,68.12 295.76,70.3C294.73,72.53 293.54,74.74 292.32,76.93C291.09,79.16 289.7,81.35 288.4,83.56C287.1,85.77 285.7,87.96 284.5,90.19C283.32,92.38 282.14,94.58 281.24,96.82C280.37,99 279.6,101.22 279.16,103.45C278.73,105.64 278.53,107.87 278.58,110.08C278.63,112.29 278.99,114.52 279.47,116.71C279.96,118.94 280.74,121.15 281.53,123.34C282.33,125.57 283.32,127.76 284.24,129.97C285.16,132.18 286.16,134.38 287.03,136.6C287.9,138.8 288.74,141.01 289.46,143.23C290.17,145.42 290.79,147.63 291.32,149.85C291.84,152.05 292.25,154.27 292.62,156.48C292.99,158.69 293.27,160.9 293.56,163.11C293.85,165.32 294.1,167.53 294.36,169.74C294.62,171.95 294.88,174.16 295.14,176.37C295.4,178.58 295.66,180.79 295.92,183C296.17,185.21 296.42,187.42 296.67,189.63C296.91,191.84 297.15,194.05 297.39,196.26C297.63,198.47 297.87,200.68 298.12,202.89C298.37,205.1 298.63,207.31 298.89,209.52C299.16,211.73 299.44,213.94 299.71,216.15C299.98,218.36 300.26,220.56 300.52,222.77C300.77,224.98 301.03,227.19 301.24,229.4C301.45,231.61 301.63,233.82 301.79,236.03Q301.95,238.24 302.18,242.66L302.63,242.66" style="vector-effect: non-scaling-stroke; stroke-width: 2px; stroke: rgb(0, 0, 255); stroke-opacity: 1; fill: rgb(0, 0, 255); fill-opacity: 0.5;"/><path class="meanline" d="M282.793212890625,126.55H302.63" style="fill: none; vector-effect: non-scaling-stroke; stroke-width: 2px; stroke-dasharray: 4px, 2px; stroke: rgb(0, 0, 255); stroke-opacity: 1;"/><g class="points"><path class="point" transform="translate(269.28,202.54)" d="M3,0A3,3 0 1,1 0,-3A3,3 0 0,1 3,0Z" style="opacity: 1; stroke-width: 0px; fill: rgb(0, 0, 255); fill-opacity: 1;"/><path class="point" transform="translate(268.54,170.12)" d="M3,0A3,3 0 1,1 0,-3A3,3 0 0,1 3,0Z" style="opacity: 1; stroke-width: 0px; fill: rgb(0, 0, 255); fill-opacity: 1;"/><path class="point" transform="translate(269.48,160.54)" d="M3,0A3,3 0 1,1 0,-3A3,3 0 0,1 3,0Z" style="opacity: 1; stroke-width: 0px; fill: rgb(0, 0, 255); fill-opacity: 1;"/><path class="point" transform="translate(268.34,132.54)" d="M3,0A3,3 0 1,1 0,-3A3,3 0 0,1 3,0Z" style="opacity: 1; stroke-width: 0px; fill: rgb(0, 0, 255); fill-opacity: 1;"/><path class="point" transform="translate(268.77,127.01)" d="M3,0A3,3 0 1,1 0,-3A3,3 0 0,1 3,0Z" style="opacity: 1; stroke-width: 0px; fill: rgb(0, 0, 255); fill-opacity: 1;"/><path class="point" transform="translate(269.35,118.54)" d="M3,0A3,3 0 1,1 0,-3A3,3 0 0,1 3,0Z" style="opacity: 1; stroke-width: 0px; fill: rgb(0, 0, 255); fill-opacity: 1;"/><path class="point" transform="translate(268.92,112.64)" d="M3,0A3,3 0 1,1 0,-3A3,3 0 0,1 3,0Z" style="opacity: 1; stroke-width: 0px; fill: rgb(0, 0, 255); fill-opacity: 1;"/><path class="point" transform="translate(269.22,104.54)" d="M3,0A3,3 0 1,1 0,-3A3,3 0 0,1 3,0Z" style="opacity: 1; stroke-width: 0px; fill: rgb(0, 0, 255); fill-opacity: 1;"/><path class="point" transform="translate(268.6,104.54)" d="M3,0A3,3 0 1,1 0,-3A3,3 0 0,1 3,0Z" style="opacity: 1; stroke-width: 0px; fill: rgb(0, 0, 255); fill-opacity: 1;"/><path class="point" transform="translate(268.14,104.54)" d="M3,0A3,3 0 1,1 0,-3A3,3 0 0,1 3,0Z" style="opacity: 1; stroke-width: 0px; fill: rgb(0, 0, 255); fill-opacity: 1;"/><path class="point" transform="translate(269.27,90.54)" d="M3,0A3,3 0 1,1 0,-3A3,3 0 0,1 3,0Z" style="opacity: 1; stroke-width: 0px; fill: rgb(0, 0, 255); fill-opacity: 1;"/><path class="point" transform="translate(268.56,90.54)" d="M3,0A3,3 0 1,1 0,-3A3,3 0 0,1 3,0Z" style="opacity: 1; stroke-width: 0px; fill: rgb(0, 0, 255); fill-opacity: 1;"/></g></g><g class="trace violins" style="opacity: 1;"><path class="violin" d="M302.63,281.8L302.98,281.8Q303.15,275.83 303.27,272.85C303.39,269.87 303.53,266.88 303.69,263.9C303.84,260.92 304.03,257.94 304.2,254.96C304.37,251.98 304.55,248.99 304.71,246.01C304.87,243.03 305.02,240.04 305.14,237.06C305.25,234.08 305.34,231.1 305.4,228.12C305.46,225.14 305.47,222.15 305.51,219.17C305.54,216.19 305.54,213.2 305.61,210.22C305.67,207.24 305.74,204.26 305.9,201.28C306.07,198.3 306.28,195.31 306.6,192.33C306.92,189.34 307.34,186.36 307.83,183.38C308.32,180.39 308.93,177.41 309.55,174.43C310.17,171.44 310.88,168.47 311.54,165.49C312.21,162.51 312.91,159.53 313.54,156.54C314.17,153.56 314.77,150.58 315.33,147.59C315.88,144.61 316.38,141.63 316.87,138.65C317.36,135.67 317.81,132.68 318.29,129.7C318.77,126.72 319.26,123.73 319.76,120.75C320.26,117.77 320.82,114.79 321.29,111.8C321.76,108.82 322.28,105.85 322.6,102.86C322.91,99.88 323.18,96.89 323.18,93.91C323.18,90.93 323,87.93 322.57,84.96C322.14,81.96 321.41,78.98 320.57,76.02C319.71,73.01 318.57,70.04 317.45,67.07C316.32,64.07 315,61.11 313.8,58.12C312.61,55.14 311.35,52.18 310.27,49.18C309.2,46.21 308.2,43.23 307.36,40.23C306.53,37.26 305.85,34.28 305.28,31.28Q304.72,28.31 303.97,22.33L302.63,22.33" style="vector-effect: non-scaling-stroke; stroke-width: 2px; stroke: rgb(0, 0, 139); stroke-opacity: 1; fill: rgb(0, 0, 139); fill-opacity: 0.5;"/><path class="meanline" d="M320.2695007324219,117.8H302.63" style="fill: none; vector-effect: non-scaling-stroke; stroke-width: 2px; stroke-dasharray: 4px, 2px; stroke: rgb(0, 0, 139); stroke-opacity: 1;"/><g class="points"><path class="point" transform="translate(336.5,227.6)" d="M3,0A3,3 0 1,1 0,-3A3,3 0 0,1 3,0Z" style="opacity: 1; stroke-width: 0px; fill: rgb(0, 0, 139); fill-opacity: 1;"/><path class="point" transform="translate(336.05,160.54)" d="M3,0A3,3 0 1,1 0,-3A3,3 0 0,1 3,0Z" style="opacity: 1; stroke-width: 0px; fill: rgb(0, 0, 139); fill-opacity: 1;"/><path class="point" transform="translate(336.62,146.54)" d="M3,0A3,3 0 1,1 0,-3A3,3 0 0,1 3,0Z" style="opacity: 1; stroke-width: 0px; fill: rgb(0, 0, 139); fill-opacity: 1;"/><path class="point" transform="translate(335.92,146.54)" d="M3,0A3,3 0 1,1 0,-3A3,3 0 0,1 3,0Z" style="opacity: 1; stroke-width: 0px; fill: rgb(0, 0, 139); fill-opacity: 1;"/><path class="point" transform="translate(336.18,132.54)" d="M3,0A3,3 0 1,1 0,-3A3,3 0 0,1 3,0Z" style="opacity: 1; stroke-width: 0px; fill: rgb(0, 0, 139); fill-opacity: 1;"/><path class="point" transform="translate(336.55,118.54)" d="M3,0A3,3 0 1,1 0,-3A3,3 0 0,1 3,0Z" style="opacity: 1; stroke-width: 0px; fill: rgb(0, 0, 139); fill-opacity: 1;"/><path class="point" transform="translate(336.27,90.54)" d="M3,0A3,3 0 1,1 0,-3A3,3 0 0,1 3,0Z" style="opacity: 1; stroke-width: 0px; fill: rgb(0, 0, 139); fill-opacity: 1;"/><path class="point" transform="translate(336.5,90.54)" d="M3,0A3,3 0 1,1 0,-3A3,3 0 0,1 3,0Z" style="opacity: 1; stroke-width: 0px; fill: rgb(0, 0, 139); fill-opacity: 1;"/><path class="point" transform="translate(336.09,90.54)" d="M3,0A3,3 0 1,1 0,-3A3,3 0 0,1 3,0Z" style="opacity: 1; stroke-width: 0px; fill: rgb(0, 0, 139); fill-opacity: 1;"/><path class="point" transform="translate(335.79,90.54)" d="M3,0A3,3 0 1,1 0,-3A3,3 0 0,1 3,0Z" style="opacity: 1; stroke-width: 0px; fill: rgb(0, 0, 139); fill-opacity: 1;"/><path class="point" transform="translate(336.5,83.9)" d="M3,0A3,3 0 1,1 0,-3A3,3 0 0,1 3,0Z" style="opacity: 1; stroke-width: 0px; fill: rgb(0, 0, 139); fill-opacity: 1;"/><path class="point" transform="translate(335.9,76.54)" d="M3,0A3,3 0 1,1 0,-3A3,3 0 0,1 3,0Z" style="opacity: 1; stroke-width: 0px; fill: rgb(0, 0, 139); fill-opacity: 1;"/><path class="point" transform="translate(336.99,76.54)" d="M3,0A3,3 0 1,1 0,-3A3,3 0 0,1 3,0Z" style="opacity: 1; stroke-width: 0px; fill: rgb(0, 0, 139); fill-opacity: 1;"/></g></g><g class="trace violins" style="opacity: 1;"><path class="violin" d="M422.88,26.25L421.91,26.25Q421.35,31.05 420.92,33.44C420.48,35.85 419.95,38.26 419.29,40.64C418.62,43.06 417.81,45.46 416.9,47.84C415.98,50.26 414.9,52.65 413.79,55.03C412.67,57.44 411.4,59.83 410.2,62.23C409,64.63 407.71,67.01 406.59,69.42C405.48,71.8 404.37,74.19 403.49,76.62C402.63,78.99 401.87,81.4 401.37,83.82C400.88,86.2 400.57,88.61 400.49,91.01C400.41,93.41 400.57,95.82 400.88,98.21C401.19,100.62 401.74,103.02 402.35,105.4C402.97,107.81 403.76,110.21 404.56,112.6C405.36,115.01 406.28,117.39 407.14,119.79C408,122.19 408.91,124.58 409.74,126.99C410.56,129.38 411.37,131.78 412.09,134.19C412.81,136.58 413.47,138.97 414.06,141.38C414.65,143.77 415.17,146.18 415.64,148.58C416.11,150.97 416.52,153.37 416.9,155.77C417.28,158.17 417.63,160.57 417.94,162.97C418.25,165.37 418.53,167.76 418.77,170.16C419.01,172.56 419.23,174.96 419.4,177.36C419.56,179.76 419.68,182.16 419.76,184.56C419.84,186.96 419.86,189.35 419.86,191.75C419.86,194.15 419.81,196.55 419.77,198.95C419.74,201.35 419.67,203.74 419.65,206.14C419.63,208.54 419.63,210.94 419.68,213.34C419.73,215.74 419.82,218.14 419.94,220.54C420.06,222.94 420.24,225.33 420.42,227.73C420.6,230.13 420.83,232.53 421.03,234.93C421.23,237.33 421.45,239.72 421.63,242.12C421.81,244.52 421.98,246.92 422.12,249.32Q422.26,251.72 422.47,256.51L422.88,256.51" style="vector-effect: non-scaling-stroke; stroke-width: 2px; stroke: rgb(0, 0, 0); stroke-opacity: 1; fill: rgb(0, 0, 0); fill-opacity: 0.5;"/><path class="meanline" d="M403.95263671875,110.77H422.88" style="fill: none; vector-effect: non-scaling-stroke; stroke-width: 2px; stroke-dasharray: 4px, 2px; stroke: rgb(0, 0, 0); stroke-opacity: 1;"/><g class="points"><path class="point" transform="translate(389.51,213.23)" d="M3,0A3,3 0 1,1 0,-3A3,3 0 0,1 3,0Z" style="opacity: 1; stroke-width: 0px; fill: rgb(0, 0, 0); fill-opacity: 1;"/><path class="point" transform="translate(388.82,160.54)" d="M3,0A3,3 0 1,1 0,-3A3,3 0 0,1 3,0Z" style="opacity: 1; stroke-width: 0px; fill: rgb(0, 0, 0); fill-opacity: 1;"/><path class="point" transform="translate(389.7,132.54)" d="M3,0A3,3 0 1,1 0,-3A3,3 0 0,1 3,0Z" style="opacity: 1; stroke-width: 0px; fill: rgb(0, 0, 0); fill-opacity: 1;"/><path class="point" transform="translate(388.64,118.54)" d="M3,0A3,3 0 1,1 0,-3A3,3 0 0,1 3,0Z" style="opacity: 1; stroke-width: 0px; fill: rgb(0, 0, 0); fill-opacity: 1;"/><path class="point" transform="translate(389.04,104.54)" d="M3,0A3,3 0 1,1 0,-3A3,3 0 0,1 3,0Z" style="opacity: 1; stroke-width: 0px; fill: rgb(0, 0, 0); fill-opacity: 1;"/><path class="point" transform="translate(389.59,104.54)" d="M3,0A3,3 0 1,1 0,-3A3,3 0 0,1 3,0Z" style="opacity: 1; stroke-width: 0px; fill: rgb(0, 0, 0); fill-opacity: 1;"/><path class="point" transform="translate(389.17,98.27)" d="M3,0A3,3 0 1,1 0,-3A3,3 0 0,1 3,0Z" style="opacity: 1; stroke-width: 0px; fill: rgb(0, 0, 0); fill-opacity: 1;"/><path class="point" transform="translate(389.5,90.54)" d="M3,0A3,3 0 1,1 0,-3A3,3 0 0,1 3,0Z" style="opacity: 1; stroke-width: 0px; fill: rgb(0, 0, 0); fill-opacity: 1;"/><path class="point" transform="translate(388.86,83.9)" d="M3,0A3,3 0 1,1 0,-3A3,3 0 0,1 3,0Z" style="opacity: 1; stroke-width: 0px; fill: rgb(0, 0, 0); fill-opacity: 1;"/><path class="point" transform="translate(388.33,76.54)" d="M3,0A3,3 0 1,1 0,-3A3,3 0 0,1 3,0Z" style="opacity: 1; stroke-width: 0px; fill: rgb(0, 0, 0); fill-opacity: 1;"/><path class="point" transform="translate(389.5,76.54)" d="M3,0A3,3 0 1,1 0,-3A3,3 0 0,1 3,0Z" style="opacity: 1; stroke-width: 0px; fill: rgb(0, 0, 0); fill-opacity: 1;"/><path class="point" transform="translate(388.84,69.54)" d="M3,0A3,3 0 1,1 0,-3A3,3 0 0,1 3,0Z" style="opacity: 1; stroke-width: 0px; fill: rgb(0, 0, 0); fill-opacity: 1;"/></g></g><g class="trace violins" style="opacity: 1;"><path class="violin" d="M422.88,304L423.32,304Q423.53,297.2 423.68,293.8C423.83,290.4 424.01,286.99 424.21,283.59C424.41,280.19 424.64,276.79 424.87,273.39C425.1,269.99 425.36,266.59 425.6,263.19C425.84,259.79 426.08,256.38 426.31,252.98C426.54,249.58 426.75,246.18 426.98,242.78C427.21,239.38 427.42,235.97 427.68,232.57C427.94,229.17 428.21,225.77 428.55,222.37C428.89,218.97 429.29,215.57 429.74,212.17C430.19,208.76 430.73,205.36 431.27,201.96C431.81,198.56 432.42,195.16 432.99,191.76C433.56,188.36 434.14,184.96 434.67,181.56C435.2,178.16 435.69,174.75 436.17,171.35C436.65,167.95 437.07,164.55 437.56,161.15C438.05,157.75 438.52,154.35 439.1,150.95C439.68,147.54 440.33,144.14 441.03,140.74C441.73,137.33 442.57,133.94 443.32,130.54C444.07,127.14 444.92,123.75 445.52,120.34C446.12,116.95 446.71,113.54 446.93,110.13C447.15,106.74 447.18,103.32 446.87,99.93C446.56,96.51 445.9,93.09 445.04,89.72C444.17,86.29 442.92,82.9 441.66,79.52C440.38,76.1 438.83,72.72 437.4,69.32C435.97,65.92 434.42,62.53 433.08,59.11C431.75,55.73 430.45,52.33 429.37,48.91C428.3,45.53 427.38,42.13 426.62,38.71Q425.87,35.32 424.83,28.5L422.88,28.5" style="vector-effect: non-scaling-stroke; stroke-width: 2px; stroke: rgb(128, 128, 128); stroke-opacity: 1; fill: rgb(128, 128, 128); fill-opacity: 0.5;"/><path class="meanline" d="M442.771240234375,132.97H422.88" style="fill: none; vector-effect: non-scaling-stroke; stroke-width: 2px; stroke-dasharray: 4px, 2px; stroke: rgb(128, 128, 128); stroke-opacity: 1;"/><g class="points"><path class="point" transform="translate(456.76,241.97)" d="M3,0A3,3 0 1,1 0,-3A3,3 0 0,1 3,0Z" style="opacity: 1; stroke-width: 0px; fill: rgb(128, 128, 128); fill-opacity: 1;"/><path class="point" transform="translate(456.28,174.54)" d="M3,0A3,3 0 1,1 0,-3A3,3 0 0,1 3,0Z" style="opacity: 1; stroke-width: 0px; fill: rgb(128, 128, 128); fill-opacity: 1;"/><path class="point" transform="translate(456.9,174.54)" d="M3,0A3,3 0 1,1 0,-3A3,3 0 0,1 3,0Z" style="opacity: 1; stroke-width: 0px; fill: rgb(128, 128, 128); fill-opacity: 1;"/><path class="point" transform="translate(456.15,174.54)" d="M3,0A3,3 0 1,1 0,-3A3,3 0 0,1 3,0Z" style="opacity: 1; stroke-width: 0px; fill: rgb(128, 128, 128); fill-opacity: 1;"/><path class="point" transform="translate(456.43,132.54)" d="M3,0A3,3 0 1,1 0,-3A3,3 0 0,1 3,0Z" style="opacity: 1; stroke-width: 0px; fill: rgb(128, 128, 128); fill-opacity: 1;"/><path class="point" transform="translate(456.82,118.54)" d="M3,0A3,3 0 1,1 0,-3A3,3 0 0,1 3,0Z" style="opacity: 1; stroke-width: 0px; fill: rgb(128, 128, 128); fill-opacity: 1;"/><path class="point" transform="translate(456.52,104.54)" d="M3,0A3,3 0 1,1 0,-3A3,3 0 0,1 3,0Z" style="opacity: 1; stroke-width: 0px; fill: rgb(128, 128, 128); fill-opacity: 1;"/><path class="point" transform="translate(456.74,104.54)" d="M3,0A3,3 0 1,1 0,-3A3,3 0 0,1 3,0Z" style="opacity: 1; stroke-width: 0px; fill: rgb(128, 128, 128); fill-opacity: 1;"/><path class="point" transform="translate(456.35,98.27)" d="M3,0A3,3 0 1,1 0,-3A3,3 0 0,1 3,0Z" style="opacity: 1; stroke-width: 0px; fill: rgb(128, 128, 128); fill-opacity: 1;"/><path class="point" transform="translate(455.95,90.54)" d="M3,0A3,3 0 1,1 0,-3A3,3 0 0,1 3,0Z" style="opacity: 1; stroke-width: 0px; fill: rgb(128, 128, 128); fill-opacity: 1;"/><path class="point" transform="translate(456.8,90.54)" d="M3,0A3,3 0 1,1 0,-3A3,3 0 0,1 3,0Z" style="opacity: 1; stroke-width: 0px; fill: rgb(128, 128, 128); fill-opacity: 1;"/><path class="point" transform="translate(456.15,90.54)" d="M3,0A3,3 0 1,1 0,-3A3,3 0 0,1 3,0Z" style="opacity: 1; stroke-width: 0px; fill: rgb(128, 128, 128); fill-opacity: 1;"/></g></g></g></g><g class="overplot"/><path class="xlines-above crisp" d="M79,420.5H565" style="fill: none; stroke-width: 1px; stroke: rgb(255, 255, 255); stroke-opacity: 1;"/><path class="ylines-above crisp" d="M79.5,100V420" style="fill: none; stroke-width: 1px; stroke: rgb(255, 255, 255); stroke-opacity: 1;"/><g class="overlines-above"/><g class="xaxislayer-above"><g class="xtick"><text text-anchor="middle" x="0" y="435.4" transform="translate(142.12,0)" style="font-family: 'Open Sans', verdana, arial, sans-serif; font-size: 12px; fill: rgb(42, 63, 95); fill-opacity: 1; white-space: pre;">SGD Classifier</text></g><g class="xtick"><text text-anchor="middle" x="0" y="435.4" transform="translate(262.37,0)" style="font-family: 'Open Sans', verdana, arial, sans-serif; font-size: 12px; fill: rgb(42, 63, 95); fill-opacity: 1; white-space: pre;">Bernoulli NB</text></g><g class="xtick"><text text-anchor="middle" x="0" y="435.4" transform="translate(382.63,0)" style="font-family: 'Open Sans', verdana, arial, sans-serif; font-size: 12px; fill: rgb(42, 63, 95); fill-opacity: 1; white-space: pre;">Logistic Regresion</text></g><g class="xtick"><text text-anchor="middle" x="0" y="435.4" transform="translate(502.88,0)" style="font-family: 'Open Sans', verdana, arial, sans-serif; font-size: 12px; fill: rgb(42, 63, 95); fill-opacity: 1; white-space: pre;">Multinomial NB</text></g></g><g class="yaxislayer-above"><g class="ytick"><text text-anchor="end" x="76.6" y="4.199999999999999" transform="translate(0,387.95)" style="font-family: 'Open Sans', verdana, arial, sans-serif; font-size: 12px; fill: rgb(42, 63, 95); fill-opacity: 1; white-space: pre;">0.1</text></g><g class="ytick"><text text-anchor="end" x="76.6" y="4.199999999999999" transform="translate(0,333.34000000000003)" style="font-family: 'Open Sans', verdana, arial, sans-serif; font-size: 12px; fill: rgb(42, 63, 95); fill-opacity: 1; white-space: pre;">0.2</text></g><g class="ytick"><text text-anchor="end" x="76.6" y="4.199999999999999" transform="translate(0,278.74)" style="font-family: 'Open Sans', verdana, arial, sans-serif; font-size: 12px; fill: rgb(42, 63, 95); fill-opacity: 1; white-space: pre;">0.3</text></g><g class="ytick"><text text-anchor="end" x="76.6" y="4.199999999999999" transform="translate(0,224.14)" style="font-family: 'Open Sans', verdana, arial, sans-serif; font-size: 12px; fill: rgb(42, 63, 95); fill-opacity: 1; white-space: pre;">0.4</text></g><g class="ytick"><text text-anchor="end" x="76.6" y="4.199999999999999" transform="translate(0,169.54000000000002)" style="font-family: 'Open Sans', verdana, arial, sans-serif; font-size: 12px; fill: rgb(42, 63, 95); fill-opacity: 1; white-space: pre;">0.5</text></g><g class="ytick"><text text-anchor="end" x="76.6" y="4.199999999999999" transform="translate(0,114.93)" style="font-family: 'Open Sans', verdana, arial, sans-serif; font-size: 12px; fill: rgb(42, 63, 95); fill-opacity: 1; white-space: pre;">0.6</text></g></g><g class="overaxes-above"/></g></g><g class="polarlayer"/><g class="ternarylayer"/><g class="geolayer"/><g class="funnelarealayer"/><g class="pielayer"/><g class="treemaplayer"/><g class="sunburstlayer"/><g class="glimages"/><defs id="topdefs-e274d0"><g class="clips"/><clipPath id="legende274d0"><rect width="113" height="162" x="0" y="0"/></clipPath></defs><g class="layer-above"><g class="imagelayer"/><g class="shapelayer"/></g><g class="infolayer"><g class="legend" pointer-events="all" transform="translate(574.7, 100)"><rect class="bg" shape-rendering="crispEdges" width="113" height="162" x="0" y="0" style="stroke: rgb(68, 68, 68); stroke-opacity: 1; fill: rgb(255, 255, 255); fill-opacity: 1; stroke-width: 0px;"/><g class="scrollbox" transform="translate(0, 0)" clip-path="url('#legende274d0')"><g class="groups"><g class="traces" transform="translate(0, 14.5)" style="opacity: 1;"><text class="legendtext user-select-none" text-anchor="start" x="40" y="4.680000000000001" style="font-family: 'Open Sans', verdana, arial, sans-serif; font-size: 12px; fill: rgb(42, 63, 95); fill-opacity: 1; white-space: pre;">BOW SGD</text><g class="layers" style="opacity: 1;"><g class="legendfill"/><g class="legendlines"/><g class="legendsymbols"><g class="legendpoints"><path class="legendbox" d="M6,6H-6V-6H6Z" transform="translate(20,0)" style="stroke-width: 2px; fill: rgb(0, 128, 0); fill-opacity: 0.5; stroke: rgb(0, 128, 0); stroke-opacity: 1;"/></g></g></g><rect class="legendtoggle" pointer-events="all" x="0" y="-9.5" width="107.03125" height="19" style="cursor: pointer; fill: rgb(0, 0, 0); fill-opacity: 0;"/></g><g class="traces" transform="translate(0, 33.5)" style="opacity: 1;"><text class="legendtext user-select-none" text-anchor="start" x="40" y="4.680000000000001" style="font-family: 'Open Sans', verdana, arial, sans-serif; font-size: 12px; fill: rgb(42, 63, 95); fill-opacity: 1; white-space: pre;">TFIDF SGD</text><g class="layers" style="opacity: 1;"><g class="legendfill"/><g class="legendlines"/><g class="legendsymbols"><g class="legendpoints"><path class="legendbox" d="M6,6H-6V-6H6Z" transform="translate(20,0)" style="stroke-width: 2px; fill: rgb(32, 178, 170); fill-opacity: 0.5; stroke: rgb(32, 178, 170); stroke-opacity: 1;"/></g></g></g><rect class="legendtoggle" pointer-events="all" x="0" y="-9.5" width="107.03125" height="19" style="cursor: pointer; fill: rgb(0, 0, 0); fill-opacity: 0;"/></g><g class="traces" transform="translate(0, 52.5)" style="opacity: 1;"><text class="legendtext user-select-none" text-anchor="start" x="40" y="4.680000000000001" style="font-family: 'Open Sans', verdana, arial, sans-serif; font-size: 12px; fill: rgb(42, 63, 95); fill-opacity: 1; white-space: pre;">BOW BNB</text><g class="layers" style="opacity: 1;"><g class="legendfill"/><g class="legendlines"/><g class="legendsymbols"><g class="legendpoints"><path class="legendbox" d="M6,6H-6V-6H6Z" transform="translate(20,0)" style="stroke-width: 2px; fill: rgb(255, 0, 0); fill-opacity: 0.5; stroke: rgb(255, 0, 0); stroke-opacity: 1;"/></g></g></g><rect class="legendtoggle" pointer-events="all" x="0" y="-9.5" width="107.03125" height="19" style="cursor: pointer; fill: rgb(0, 0, 0); fill-opacity: 0;"/></g><g class="traces" transform="translate(0, 71.5)" style="opacity: 1;"><text class="legendtext user-select-none" text-anchor="start" x="40" y="4.680000000000001" style="font-family: 'Open Sans', verdana, arial, sans-serif; font-size: 12px; fill: rgb(42, 63, 95); fill-opacity: 1; white-space: pre;">TFIDF BNB</text><g class="layers" style="opacity: 1;"><g class="legendfill"/><g class="legendlines"/><g class="legendsymbols"><g class="legendpoints"><path class="legendbox" d="M6,6H-6V-6H6Z" transform="translate(20,0)" style="stroke-width: 2px; fill: rgb(139, 0, 139); fill-opacity: 0.5; stroke: rgb(139, 0, 139); stroke-opacity: 1;"/></g></g></g><rect class="legendtoggle" pointer-events="all" x="0" y="-9.5" width="107.03125" height="19" style="cursor: pointer; fill: rgb(0, 0, 0); fill-opacity: 0;"/></g><g class="traces" transform="translate(0, 90.5)" style="opacity: 1;"><text class="legendtext user-select-none" text-anchor="start" x="40" y="4.680000000000001" style="font-family: 'Open Sans', verdana, arial, sans-serif; font-size: 12px; fill: rgb(42, 63, 95); fill-opacity: 1; white-space: pre;">BOW LR</text><g class="layers" style="opacity: 1;"><g class="legendfill"/><g class="legendlines"/><g class="legendsymbols"><g class="legendpoints"><path class="legendbox" d="M6,6H-6V-6H6Z" transform="translate(20,0)" style="stroke-width: 2px; fill: rgb(0, 0, 255); fill-opacity: 0.5; stroke: rgb(0, 0, 255); stroke-opacity: 1;"/></g></g></g><rect class="legendtoggle" pointer-events="all" x="0" y="-9.5" width="107.03125" height="19" style="cursor: pointer; fill: rgb(0, 0, 0); fill-opacity: 0;"/></g><g class="traces" transform="translate(0, 109.5)" style="opacity: 1;"><text class="legendtext user-select-none" text-anchor="start" x="40" y="4.680000000000001" style="font-family: 'Open Sans', verdana, arial, sans-serif; font-size: 12px; fill: rgb(42, 63, 95); fill-opacity: 1; white-space: pre;">TFIDF LR</text><g class="layers" style="opacity: 1;"><g class="legendfill"/><g class="legendlines"/><g class="legendsymbols"><g class="legendpoints"><path class="legendbox" d="M6,6H-6V-6H6Z" transform="translate(20,0)" style="stroke-width: 2px; fill: rgb(0, 0, 139); fill-opacity: 0.5; stroke: rgb(0, 0, 139); stroke-opacity: 1;"/></g></g></g><rect class="legendtoggle" pointer-events="all" x="0" y="-9.5" width="107.03125" height="19" style="cursor: pointer; fill: rgb(0, 0, 0); fill-opacity: 0;"/></g><g class="traces" transform="translate(0, 128.5)" style="opacity: 1;"><text class="legendtext user-select-none" text-anchor="start" x="40" y="4.680000000000001" style="font-family: 'Open Sans', verdana, arial, sans-serif; font-size: 12px; fill: rgb(42, 63, 95); fill-opacity: 1; white-space: pre;">BOW MNB</text><g class="layers" style="opacity: 1;"><g class="legendfill"/><g class="legendlines"/><g class="legendsymbols"><g class="legendpoints"><path class="legendbox" d="M6,6H-6V-6H6Z" transform="translate(20,0)" style="stroke-width: 2px; fill: rgb(0, 0, 0); fill-opacity: 0.5; stroke: rgb(0, 0, 0); stroke-opacity: 1;"/></g></g></g><rect class="legendtoggle" pointer-events="all" x="0" y="-9.5" width="107.03125" height="19" style="cursor: pointer; fill: rgb(0, 0, 0); fill-opacity: 0;"/></g><g class="traces" transform="translate(0, 147.5)" style="opacity: 1;"><text class="legendtext user-select-none" text-anchor="start" x="40" y="4.680000000000001" style="font-family: 'Open Sans', verdana, arial, sans-serif; font-size: 12px; fill: rgb(42, 63, 95); fill-opacity: 1; white-space: pre;">TFIDF MNB</text><g class="layers" style="opacity: 1;"><g class="legendfill"/><g class="legendlines"/><g class="legendsymbols"><g class="legendpoints"><path class="legendbox" d="M6,6H-6V-6H6Z" transform="translate(20,0)" style="stroke-width: 2px; fill: rgb(128, 128, 128); fill-opacity: 0.5; stroke: rgb(128, 128, 128); stroke-opacity: 1;"/></g></g></g><rect class="legendtoggle" pointer-events="all" x="0" y="-9.5" width="107.03125" height="19" style="cursor: pointer; fill: rgb(0, 0, 0); fill-opacity: 0;"/></g></g></g><rect class="scrollbar" rx="20" ry="3" width="0" height="0" x="0" y="0" style="fill: rgb(128, 139, 164); fill-opacity: 1;"/></g><g class="g-gtitle"><text class="gtitle" x="35" y="50" text-anchor="start" dy="0em" style="font-family: 'Open Sans', verdana, arial, sans-serif; font-size: 17px; fill: rgb(42, 63, 95); opacity: 1; font-weight: normal; white-space: pre;">Recall</text></g><g class="g-xtitle"/><g class="g-ytitle"/></g></svg>