<svg class="main-svg" xmlns="http://www.w3.org/2000/svg" xmlns:xlink="http://www.w3.org/1999/xlink" width="700" height="500" style="" viewBox="0 0 700 500"><rect x="0" y="0" width="700" height="500" style="fill: rgb(255, 255, 255); fill-opacity: 1;"/><defs id="defs-26b943"><g class="clips"><clipPath id="clip26b943xyplot" class="plotclip"><rect width="485" height="320"/></clipPath><clipPath class="axesclip" id="clip26b943x"><rect x="80" y="0" width="485" height="500"/></clipPath><clipPath class="axesclip" id="clip26b943y"><rect x="0" y="100" width="700" height="320"/></clipPath><clipPath class="axesclip" id="clip26b943xy"><rect x="80" y="100" width="485" height="320"/></clipPath></g><g class="gradients"/></defs><g class="bglayer"><rect class="bg" x="80" y="100" width="485" height="320" style="fill: rgb(229, 236, 246); fill-opacity: 1; stroke-width: 0;"/></g><g class="layer-below"><g class="imagelayer"/><g class="shapelayer"/></g><g class="cartesianlayer"><g class="subplot xy"><g class="layer-subplot"><g class="shapelayer"/><g class="imagelayer"/></g><g class="gridlayer"><g class="x"><path class="xgrid crisp" transform="translate(142.12,0)" d="M0,100v320" style="stroke: rgb(255, 255, 255); stroke-opacity: 1; stroke-width: 1px;"/><path class="xgrid crisp" transform="translate(262.37,0)" d="M0,100v320" style="stroke: rgb(255, 255, 255); stroke-opacity: 1; stroke-width: 1px;"/><path class="xgrid crisp" transform="translate(382.63,0)" d="M0,100v320" style="stroke: rgb(255, 255, 255); stroke-opacity: 1; stroke-width: 1px;"/><path class="xgrid crisp" transform="translate(502.88,0)" d="M0,100v320" style="stroke: rgb(255, 255, 255); stroke-opacity: 1; stroke-width: 1px;"/></g><g class="y"><path class="ygrid crisp" transform="translate(0,387.95)" d="M80,0h485" style="stroke: rgb(255, 255, 255); stroke-opacity: 1; stroke-width: 1px;"/><path class="ygrid crisp" transform="translate(0,333.34000000000003)" d="M80,0h485" style="stroke: rgb(255, 255, 255); stroke-opacity: 1; stroke-width: 1px;"/><path class="ygrid crisp" transform="translate(0,278.74)" d="M80,0h485" style="stroke: rgb(255, 255, 255); stroke-opacity: 1; stroke-width: 1px;"/><path class="ygrid crisp" transform="translate(0,224.14)" d="M80,0h485" style="stroke: rgb(255, 255, 255); stroke-opacity: 1; stroke-width: 1px;"/><path class="ygrid crisp" transform="translate(0,169.54000000000002)" d="M80,0h485" style="stroke: rgb(255, 255, 255); stroke-opacity: 1; stroke-width: 1px;"/><path class="ygrid crisp" transform="translate(0,114.93)" d="M80,0h485" style="stroke: rgb(255, 255, 255); stroke-opacity: 1; stroke-width: 1px;"/></g></g><g class="zerolinelayer"/><path class="xlines-below"/><path class="ylines-below"/><g class="overlines-below"/><g class="xaxislayer-below"/><g class="yaxislayer-below"/><g class="overaxes-below"/><g class="plot" transform="translate(80, 100)" clip-path="url('#clip26b943xyplot')"><g class="violinlayer mlayer"><g class="trace violins" style="opacity: 1;"><path class="violin" d="M62.12,52.98L61.54,52.98Q61.23,56.4 60.99,58.11C60.75,59.82 60.47,61.54 60.12,63.24C59.76,64.96 59.35,66.67 58.85,68.37C58.35,70.09 57.77,71.8 57.12,73.5C56.46,75.22 55.71,76.93 54.9,78.62C54.07,80.35 53.14,82.05 52.18,83.75C51.2,85.47 50.13,87.18 49.06,88.88C47.99,90.6 46.83,92.29 45.76,94.01C44.7,95.71 43.59,97.41 42.65,99.14C41.73,100.83 40.84,102.53 40.16,104.27C39.5,105.95 38.95,107.67 38.6,109.4C38.26,111.09 38.11,112.82 38.07,114.53C38.03,116.24 38.2,117.95 38.37,119.66C38.54,121.37 38.85,123.08 39.11,124.79C39.37,126.5 39.68,128.21 39.94,129.92C40.2,131.63 40.44,133.34 40.66,135.05C40.88,136.76 41.05,138.46 41.28,140.17C41.51,141.88 41.72,143.6 42.06,145.3C42.4,147.02 42.79,148.74 43.31,150.43C43.84,152.16 44.5,153.87 45.24,155.56C46,157.29 46.91,158.99 47.84,160.69C48.79,162.42 49.86,164.11 50.87,165.82C51.89,167.53 52.96,169.23 53.93,170.95C54.89,172.65 55.83,174.35 56.65,176.08C57.45,177.77 58.17,179.48 58.78,181.21C59.38,182.9 59.87,184.62 60.27,186.34Q60.67,188.04 61.19,191.47L62.12,191.47" style="vector-effect: non-scaling-stroke; stroke-width: 2px; stroke: rgb(0, 128, 0); stroke-opacity: 1; fill: rgb(0, 128, 0); fill-opacity: 0.5;"/><path class="meanline" d="M39.11167526245117,124.8H62.12" style="fill: none; vector-effect: non-scaling-stroke; stroke-width: 2px; stroke-dasharray: 4px, 2px; stroke: rgb(0, 128, 0); stroke-opacity: 1;"/><g class="points"><path class="point" transform="translate(29.02,160.54)" d="M3,0A3,3 0 1,1 0,-3A3,3 0 0,1 3,0Z" style="opacity: 1; stroke-width: 0px; fill: rgb(0, 128, 0); fill-opacity: 1;"/><path class="point" transform="translate(27.77,155.75)" d="M3,0A3,3 0 1,1 0,-3A3,3 0 0,1 3,0Z" style="opacity: 1; stroke-width: 0px; fill: rgb(0, 128, 0); fill-opacity: 1;"/><path class="point" transform="translate(29.3,146.54)" d="M3,0A3,3 0 1,1 0,-3A3,3 0 0,1 3,0Z" style="opacity: 1; stroke-width: 0px; fill: rgb(0, 128, 0); fill-opacity: 1;"/><path class="point" transform="translate(27.54,146.54)" d="M3,0A3,3 0 1,1 0,-3A3,3 0 0,1 3,0Z" style="opacity: 1; stroke-width: 0px; fill: rgb(0, 128, 0); fill-opacity: 1;"/><path class="point" transform="translate(28.17,132.54)" d="M3,0A3,3 0 1,1 0,-3A3,3 0 0,1 3,0Z" style="opacity: 1; stroke-width: 0px; fill: rgb(0, 128, 0); fill-opacity: 1;"/><path class="point" transform="translate(29.08,127.01)" d="M3,0A3,3 0 1,1 0,-3A3,3 0 0,1 3,0Z" style="opacity: 1; stroke-width: 0px; fill: rgb(0, 128, 0); fill-opacity: 1;"/><path class="point" transform="translate(28.41,118.54)" d="M3,0A3,3 0 1,1 0,-3A3,3 0 0,1 3,0Z" style="opacity: 1; stroke-width: 0px; fill: rgb(0, 128, 0); fill-opacity: 1;"/><path class="point" transform="translate(28.77,112.64)" d="M3,0A3,3 0 1,1 0,-3A3,3 0 0,1 3,0Z" style="opacity: 1; stroke-width: 0px; fill: rgb(0, 128, 0); fill-opacity: 1;"/><path class="point" transform="translate(28.13,104.54)" d="M3,0A3,3 0 1,1 0,-3A3,3 0 0,1 3,0Z" style="opacity: 1; stroke-width: 0px; fill: rgb(0, 128, 0); fill-opacity: 1;"/><path class="point" transform="translate(27.66,104.54)" d="M3,0A3,3 0 1,1 0,-3A3,3 0 0,1 3,0Z" style="opacity: 1; stroke-width: 0px; fill: rgb(0, 128, 0); fill-opacity: 1;"/><path class="point" transform="translate(28.74,104.54)" d="M3,0A3,3 0 1,1 0,-3A3,3 0 0,1 3,0Z" style="opacity: 1; stroke-width: 0px; fill: rgb(0, 128, 0); fill-opacity: 1;"/><path class="point" transform="translate(28.1,83.9)" d="M3,0A3,3 0 1,1 0,-3A3,3 0 0,1 3,0Z" style="opacity: 1; stroke-width: 0px; fill: rgb(0, 128, 0); fill-opacity: 1;"/></g></g><g class="trace violins" style="opacity: 1;"><path class="violin" d="M62.12,219.43L62.8,219.43Q63.16,214.62 63.44,212.22C63.72,209.81 64.04,207.4 64.46,205C64.88,202.59 65.39,200.18 65.96,197.78C66.54,195.37 67.2,192.97 67.91,190.57C68.62,188.16 69.43,185.75 70.22,183.35C71.01,180.94 71.87,178.54 72.65,176.13C73.43,173.73 74.23,171.33 74.92,168.92C75.6,166.52 76.25,164.12 76.77,161.7C77.29,159.3 77.71,156.89 78.03,154.48C78.35,152.08 78.54,149.67 78.68,147.26C78.82,144.86 78.83,142.45 78.87,140.05C78.91,137.64 78.86,135.24 78.89,132.83C78.92,130.42 78.93,128.01 79.05,125.61C79.17,123.2 79.35,120.8 79.61,118.4C79.87,115.99 80.25,113.58 80.6,111.18C80.95,108.77 81.42,106.37 81.73,103.96C82.04,101.56 82.38,99.16 82.47,96.75C82.56,94.35 82.54,91.92 82.25,89.53C81.96,87.11 81.43,84.69 80.73,82.31C80.01,79.88 79.01,77.48 77.98,75.1C76.93,72.67 75.67,70.28 74.49,67.88C73.31,65.47 72.02,63.08 70.9,60.66C69.79,58.27 68.7,55.88 67.78,53.45C66.88,51.07 66.08,48.65 65.43,46.23Q64.78,43.84 63.87,39.01L62.12,39.01" style="vector-effect: non-scaling-stroke; stroke-width: 2px; stroke: rgb(32, 178, 170); stroke-opacity: 1; fill: rgb(32, 178, 170); fill-opacity: 0.5;"/><path class="meanline" d="M79.42525482177734,120.25H62.12" style="fill: none; vector-effect: non-scaling-stroke; stroke-width: 2px; stroke-dasharray: 4px, 2px; stroke: rgb(32, 178, 170); stroke-opacity: 1;"/><g class="points"><path class="point" transform="translate(96.28,174.54)" d="M3,0A3,3 0 1,1 0,-3A3,3 0 0,1 3,0Z" style="opacity: 1; stroke-width: 0px; fill: rgb(32, 178, 170); fill-opacity: 1;"/><path class="point" transform="translate(95.25,160.54)" d="M3,0A3,3 0 1,1 0,-3A3,3 0 0,1 3,0Z" style="opacity: 1; stroke-width: 0px; fill: rgb(32, 178, 170); fill-opacity: 1;"/><path class="point" transform="translate(96.5,155.75)" d="M3,0A3,3 0 1,1 0,-3A3,3 0 0,1 3,0Z" style="opacity: 1; stroke-width: 0px; fill: rgb(32, 178, 170); fill-opacity: 1;"/><path class="point" transform="translate(94.97,141.38)" d="M3,0A3,3 0 1,1 0,-3A3,3 0 0,1 3,0Z" style="opacity: 1; stroke-width: 0px; fill: rgb(32, 178, 170); fill-opacity: 1;"/><path class="point" transform="translate(95.55,132.54)" d="M3,0A3,3 0 1,1 0,-3A3,3 0 0,1 3,0Z" style="opacity: 1; stroke-width: 0px; fill: rgb(32, 178, 170); fill-opacity: 1;"/><path class="point" transform="translate(96.35,118.54)" d="M3,0A3,3 0 1,1 0,-3A3,3 0 0,1 3,0Z" style="opacity: 1; stroke-width: 0px; fill: rgb(32, 178, 170); fill-opacity: 1;"/><path class="point" transform="translate(95.75,90.54)" d="M3,0A3,3 0 1,1 0,-3A3,3 0 0,1 3,0Z" style="opacity: 1; stroke-width: 0px; fill: rgb(32, 178, 170); fill-opacity: 1;"/><path class="point" transform="translate(96.1,90.54)" d="M3,0A3,3 0 1,1 0,-3A3,3 0 0,1 3,0Z" style="opacity: 1; stroke-width: 0px; fill: rgb(32, 178, 170); fill-opacity: 1;"/><path class="point" transform="translate(95.44,90.54)" d="M3,0A3,3 0 1,1 0,-3A3,3 0 0,1 3,0Z" style="opacity: 1; stroke-width: 0px; fill: rgb(32, 178, 170); fill-opacity: 1;"/><path class="point" transform="translate(94.98,83.9)" d="M3,0A3,3 0 1,1 0,-3A3,3 0 0,1 3,0Z" style="opacity: 1; stroke-width: 0px; fill: rgb(32, 178, 170); fill-opacity: 1;"/><path class="point" transform="translate(96.11,83.9)" d="M3,0A3,3 0 1,1 0,-3A3,3 0 0,1 3,0Z" style="opacity: 1; stroke-width: 0px; fill: rgb(32, 178, 170); fill-opacity: 1;"/></g></g><g class="trace violins" style="opacity: 1;"><path class="violin" d="M182.37,16L181.52,16Q181.05,23.46 180.7,27.18C180.35,30.91 179.93,34.64 179.43,38.36C178.93,42.09 178.33,45.82 177.69,49.54C177.05,53.27 176.31,56.99 175.61,60.72C174.91,64.45 174.15,68.17 173.51,71.9C172.87,75.62 172.24,79.35 171.78,83.08C171.32,86.8 170.95,90.53 170.75,94.26C170.55,97.98 170.5,101.71 170.56,105.44C170.62,109.17 170.86,112.9 171.12,116.62C171.38,120.35 171.77,124.07 172.13,127.8C172.49,131.53 172.91,135.25 173.26,138.98C173.61,142.71 173.96,146.43 174.24,150.16C174.52,153.88 174.76,157.61 174.95,161.34C175.14,165.07 175.26,168.79 175.39,172.52C175.51,176.25 175.59,179.97 175.7,183.7C175.81,187.43 175.9,191.15 176.03,194.88C176.16,198.61 176.3,202.33 176.49,206.06C176.68,209.79 176.91,213.51 177.16,217.24C177.41,220.97 177.7,224.69 178,228.42C178.3,232.15 178.64,235.87 178.95,239.6C179.26,243.33 179.59,247.05 179.88,250.78C180.17,254.51 180.46,258.23 180.7,261.96C180.94,265.69 181.16,269.41 181.34,273.14C181.52,276.87 181.67,280.59 181.79,284.32Q181.91,288.05 182.07,295.5L182.37,295.5" style="vector-effect: non-scaling-stroke; stroke-width: 2px; stroke: rgb(255, 0, 0); stroke-opacity: 1; fill: rgb(255, 0, 0); fill-opacity: 0.5;"/><path class="meanline" d="M172.8572235107422,134.92H182.37" style="fill: none; vector-effect: non-scaling-stroke; stroke-width: 2px; stroke-dasharray: 4px, 2px; stroke: rgb(255, 0, 0); stroke-opacity: 1;"/><g class="points"><path class="point" transform="translate(149.06,227.6)" d="M3,0A3,3 0 1,1 0,-3A3,3 0 0,1 3,0Z" style="opacity: 1; stroke-width: 0px; fill: rgb(255, 0, 0); fill-opacity: 1;"/><path class="point" transform="translate(148.27,202.54)" d="M3,0A3,3 0 1,1 0,-3A3,3 0 0,1 3,0Z" style="opacity: 1; stroke-width: 0px; fill: rgb(255, 0, 0); fill-opacity: 1;"/><path class="point" transform="translate(149.26,188.54)" d="M3,0A3,3 0 1,1 0,-3A3,3 0 0,1 3,0Z" style="opacity: 1; stroke-width: 0px; fill: rgb(255, 0, 0); fill-opacity: 1;"/><path class="point" transform="translate(148.06,160.54)" d="M3,0A3,3 0 1,1 0,-3A3,3 0 0,1 3,0Z" style="opacity: 1; stroke-width: 0px; fill: rgb(255, 0, 0); fill-opacity: 1;"/><path class="point" transform="translate(148.5,132.54)" d="M3,0A3,3 0 1,1 0,-3A3,3 0 0,1 3,0Z" style="opacity: 1; stroke-width: 0px; fill: rgb(255, 0, 0); fill-opacity: 1;"/><path class="point" transform="translate(149.14,118.54)" d="M3,0A3,3 0 1,1 0,-3A3,3 0 0,1 3,0Z" style="opacity: 1; stroke-width: 0px; fill: rgb(255, 0, 0); fill-opacity: 1;"/><path class="point" transform="translate(148.67,98.27)" d="M3,0A3,3 0 1,1 0,-3A3,3 0 0,1 3,0Z" style="opacity: 1; stroke-width: 0px; fill: rgb(255, 0, 0); fill-opacity: 1;"/><path class="point" transform="translate(148.96,90.54)" d="M3,0A3,3 0 1,1 0,-3A3,3 0 0,1 3,0Z" style="opacity: 1; stroke-width: 0px; fill: rgb(255, 0, 0); fill-opacity: 1;"/><path class="point" transform="translate(148.4,90.54)" d="M3,0A3,3 0 1,1 0,-3A3,3 0 0,1 3,0Z" style="opacity: 1; stroke-width: 0px; fill: rgb(255, 0, 0); fill-opacity: 1;"/><path class="point" transform="translate(147.89,90.54)" d="M3,0A3,3 0 1,1 0,-3A3,3 0 0,1 3,0Z" style="opacity: 1; stroke-width: 0px; fill: rgb(255, 0, 0); fill-opacity: 1;"/><path class="point" transform="translate(149.03,83.9)" d="M3,0A3,3 0 1,1 0,-3A3,3 0 0,1 3,0Z" style="opacity: 1; stroke-width: 0px; fill: rgb(255, 0, 0); fill-opacity: 1;"/></g></g><g class="trace violins" style="opacity: 1;"><path class="violin" d="M182.37,295.5L182.77,295.5Q182.98,288.05 183.14,284.32C183.3,280.59 183.49,276.87 183.73,273.14C183.97,269.41 184.24,265.68 184.56,261.96C184.88,258.23 185.25,254.51 185.63,250.78C186.01,247.05 186.44,243.33 186.85,239.6C187.26,235.87 187.69,232.15 188.08,228.42C188.47,224.69 188.86,220.97 189.19,217.24C189.52,213.52 189.81,209.79 190.06,206.06C190.3,202.33 190.49,198.61 190.66,194.88C190.83,191.15 190.95,187.43 191.09,183.7C191.23,179.97 191.33,176.25 191.49,172.52C191.66,168.79 191.83,165.06 192.08,161.34C192.33,157.61 192.64,153.88 193,150.16C193.37,146.43 193.81,142.7 194.27,138.98C194.73,135.25 195.28,131.53 195.75,127.8C196.22,124.07 196.73,120.35 197.07,116.62C197.41,112.9 197.72,109.17 197.8,105.44C197.88,101.72 197.82,97.98 197.56,94.26C197.3,90.53 196.81,86.79 196.21,83.08C195.61,79.34 194.78,75.62 193.95,71.9C193.12,68.16 192.12,64.45 191.21,60.72C190.3,56.99 189.33,53.27 188.5,49.54C187.67,45.82 186.88,42.1 186.22,38.36C185.56,34.64 185.01,30.91 184.55,27.18Q184.1,23.46 183.49,16L182.37,16" style="vector-effect: non-scaling-stroke; stroke-width: 2px; stroke: rgb(139, 0, 139); stroke-opacity: 1; fill: rgb(139, 0, 139); fill-opacity: 0.5;"/><path class="meanline" d="M194.79859924316406,134.92H182.37" style="fill: none; vector-effect: non-scaling-stroke; stroke-width: 2px; stroke-dasharray: 4px, 2px; stroke: rgb(139, 0, 139); stroke-opacity: 1;"/><g class="points"><path class="point" transform="translate(216.4,227.6)" d="M3,0A3,3 0 1,1 0,-3A3,3 0 0,1 3,0Z" style="opacity: 1; stroke-width: 0px; fill: rgb(139, 0, 139); fill-opacity: 1;"/><path class="point" transform="translate(215.61,202.54)" d="M3,0A3,3 0 1,1 0,-3A3,3 0 0,1 3,0Z" style="opacity: 1; stroke-width: 0px; fill: rgb(139, 0, 139); fill-opacity: 1;"/><path class="point" transform="translate(216.6,188.54)" d="M3,0A3,3 0 1,1 0,-3A3,3 0 0,1 3,0Z" style="opacity: 1; stroke-width: 0px; fill: rgb(139, 0, 139); fill-opacity: 1;"/><path class="point" transform="translate(215.4,160.54)" d="M3,0A3,3 0 1,1 0,-3A3,3 0 0,1 3,0Z" style="opacity: 1; stroke-width: 0px; fill: rgb(139, 0, 139); fill-opacity: 1;"/><path class="point" transform="translate(215.84,132.54)" d="M3,0A3,3 0 1,1 0,-3A3,3 0 0,1 3,0Z" style="opacity: 1; stroke-width: 0px; fill: rgb(139, 0, 139); fill-opacity: 1;"/><path class="point" transform="translate(216.48,118.54)" d="M3,0A3,3 0 1,1 0,-3A3,3 0 0,1 3,0Z" style="opacity: 1; stroke-width: 0px; fill: rgb(139, 0, 139); fill-opacity: 1;"/><path class="point" transform="translate(216.01,98.27)" d="M3,0A3,3 0 1,1 0,-3A3,3 0 0,1 3,0Z" style="opacity: 1; stroke-width: 0px; fill: rgb(139, 0, 139); fill-opacity: 1;"/><path class="point" transform="translate(216.3,90.54)" d="M3,0A3,3 0 1,1 0,-3A3,3 0 0,1 3,0Z" style="opacity: 1; stroke-width: 0px; fill: rgb(139, 0, 139); fill-opacity: 1;"/><path class="point" transform="translate(215.74,90.54)" d="M3,0A3,3 0 1,1 0,-3A3,3 0 0,1 3,0Z" style="opacity: 1; stroke-width: 0px; fill: rgb(139, 0, 139); fill-opacity: 1;"/><path class="point" transform="translate(215.23,90.54)" d="M3,0A3,3 0 1,1 0,-3A3,3 0 0,1 3,0Z" style="opacity: 1; stroke-width: 0px; fill: rgb(139, 0, 139); fill-opacity: 1;"/><path class="point" transform="translate(216.37,83.9)" d="M3,0A3,3 0 1,1 0,-3A3,3 0 0,1 3,0Z" style="opacity: 1; stroke-width: 0px; fill: rgb(139, 0, 139); fill-opacity: 1;"/></g></g><g class="trace violins" style="opacity: 1;"><path class="violin" d="M302.63,50.42L301.52,50.42Q300.9,54.85 300.44,57.05C299.97,59.27 299.41,61.49 298.71,63.68C298,65.91 297.14,68.11 296.2,70.3C295.24,72.53 294.13,74.74 292.99,76.93C291.84,79.16 290.54,81.35 289.32,83.56C288.1,85.77 286.8,87.96 285.68,90.19C284.58,92.38 283.47,94.58 282.63,96.82C281.81,99 281.11,101.22 280.69,103.45C280.28,105.64 280.08,107.87 280.13,110.08C280.18,112.29 280.51,114.52 280.97,116.71C281.43,118.94 282.16,121.14 282.9,123.34C283.65,125.57 284.57,127.76 285.43,129.97C286.29,132.18 287.22,134.38 288.04,136.6C288.85,138.8 289.65,141.01 290.32,143.23C290.98,145.43 291.56,147.63 292.05,149.85C292.54,152.05 292.92,154.27 293.27,156.48C293.62,158.69 293.88,160.9 294.15,163.11C294.42,165.32 294.65,167.53 294.9,169.74C295.15,171.95 295.39,174.16 295.63,176.37C295.87,178.58 296.12,180.79 296.36,183C296.6,185.21 296.83,187.42 297.06,189.63C297.29,191.84 297.51,194.05 297.73,196.26C297.96,198.47 298.18,200.68 298.41,202.89C298.64,205.1 298.88,207.31 299.13,209.52C299.38,211.73 299.64,213.94 299.9,216.15C300.15,218.36 300.42,220.56 300.66,222.77C300.9,224.98 301.13,227.19 301.33,229.4C301.53,231.61 301.7,233.82 301.85,236.03Q302,238.24 302.21,242.66L302.63,242.66" style="vector-effect: non-scaling-stroke; stroke-width: 2px; stroke: rgb(0, 0, 255); stroke-opacity: 1; fill: rgb(0, 0, 255); fill-opacity: 0.5;"/><path class="meanline" d="M284.08001708984375,126.55H302.63" style="fill: none; vector-effect: non-scaling-stroke; stroke-width: 2px; stroke-dasharray: 4px, 2px; stroke: rgb(0, 0, 255); stroke-opacity: 1;"/><g class="points"><path class="point" transform="translate(269.28,202.54)" d="M3,0A3,3 0 1,1 0,-3A3,3 0 0,1 3,0Z" style="opacity: 1; stroke-width: 0px; fill: rgb(0, 0, 255); fill-opacity: 1;"/><path class="point" transform="translate(268.54,170.12)" d="M3,0A3,3 0 1,1 0,-3A3,3 0 0,1 3,0Z" style="opacity: 1; stroke-width: 0px; fill: rgb(0, 0, 255); fill-opacity: 1;"/><path class="point" transform="translate(269.48,160.54)" d="M3,0A3,3 0 1,1 0,-3A3,3 0 0,1 3,0Z" style="opacity: 1; stroke-width: 0px; fill: rgb(0, 0, 255); fill-opacity: 1;"/><path class="point" transform="translate(268.34,132.54)" d="M3,0A3,3 0 1,1 0,-3A3,3 0 0,1 3,0Z" style="opacity: 1; stroke-width: 0px; fill: rgb(0, 0, 255); fill-opacity: 1;"/><path class="point" transform="translate(268.77,127.01)" d="M3,0A3,3 0 1,1 0,-3A3,3 0 0,1 3,0Z" style="opacity: 1; stroke-width: 0px; fill: rgb(0, 0, 255); fill-opacity: 1;"/><path class="point" transform="translate(269.35,118.54)" d="M3,0A3,3 0 1,1 0,-3A3,3 0 0,1 3,0Z" style="opacity: 1; stroke-width: 0px; fill: rgb(0, 0, 255); fill-opacity: 1;"/><path class="point" transform="translate(268.92,112.64)" d="M3,0A3,3 0 1,1 0,-3A3,3 0 0,1 3,0Z" style="opacity: 1; stroke-width: 0px; fill: rgb(0, 0, 255); fill-opacity: 1;"/><path class="point" transform="translate(269.22,104.54)" d="M3,0A3,3 0 1,1 0,-3A3,3 0 0,1 3,0Z" style="opacity: 1; stroke-width: 0px; fill: rgb(0, 0, 255); fill-opacity: 1;"/><path class="point" transform="translate(268.6,104.54)" d="M3,0A3,3 0 1,1 0,-3A3,3 0 0,1 3,0Z" style="opacity: 1; stroke-width: 0px; fill: rgb(0, 0, 255); fill-opacity: 1;"/><path class="point" transform="translate(268.14,104.54)" d="M3,0A3,3 0 1,1 0,-3A3,3 0 0,1 3,0Z" style="opacity: 1; stroke-width: 0px; fill: rgb(0, 0, 255); fill-opacity: 1;"/><path class="point" transform="translate(269.27,90.54)" d="M3,0A3,3 0 1,1 0,-3A3,3 0 0,1 3,0Z" style="opacity: 1; stroke-width: 0px; fill: rgb(0, 0, 255); fill-opacity: 1;"/><path class="point" transform="translate(268.56,90.54)" d="M3,0A3,3 0 1,1 0,-3A3,3 0 0,1 3,0Z" style="opacity: 1; stroke-width: 0px; fill: rgb(0, 0, 255); fill-opacity: 1;"/></g></g><g class="trace violins" style="opacity: 1;"><path class="violin" d="M302.63,281.8L303.03,281.8Q303.23,275.83 303.36,272.85C303.5,269.87 303.66,266.88 303.84,263.9C304.02,260.92 304.23,257.94 304.42,254.96C304.62,251.98 304.83,248.99 305.01,246.01C305.19,243.03 305.37,240.04 305.5,237.06C305.63,234.08 305.73,231.1 305.8,228.12C305.87,225.14 305.88,222.15 305.92,219.17C305.96,216.19 305.96,213.2 306.03,210.22C306.1,207.24 306.17,204.26 306.36,201.28C306.55,198.3 306.79,195.31 307.16,192.33C307.53,189.34 308.01,186.36 308.57,183.38C309.13,180.39 309.83,177.41 310.53,174.43C311.24,171.44 312.04,168.47 312.8,165.49C313.56,162.51 314.36,159.53 315.08,156.54C315.8,153.56 316.49,150.58 317.13,147.59C317.76,144.61 318.33,141.63 318.89,138.65C319.45,135.67 319.96,132.68 320.51,129.7C321.06,126.72 321.62,123.73 322.19,120.75C322.76,117.77 323.39,114.79 323.93,111.8C324.47,108.82 325.06,105.85 325.42,102.86C325.78,99.89 326.09,96.89 326.09,93.91C326.09,90.93 325.88,87.92 325.39,84.96C324.89,81.96 324.07,78.97 323.11,76.02C322.13,73.01 320.83,70.04 319.55,67.07C318.25,64.07 316.75,61.11 315.38,58.12C314.02,55.14 312.58,52.18 311.35,49.18C310.13,46.22 308.98,43.24 308.03,40.23C307.09,37.27 306.31,34.28 305.66,31.28Q305.02,28.31 304.16,22.33L302.63,22.33" style="vector-effect: non-scaling-stroke; stroke-width: 2px; stroke: rgb(0, 0, 139); stroke-opacity: 1; fill: rgb(0, 0, 139); fill-opacity: 0.5;"/><path class="meanline" d="M322.7686767578125,117.8H302.63" style="fill: none; vector-effect: non-scaling-stroke; stroke-width: 2px; stroke-dasharray: 4px, 2px; stroke: rgb(0, 0, 139); stroke-opacity: 1;"/><g class="points"><path class="point" transform="translate(336.5,227.6)" d="M3,0A3,3 0 1,1 0,-3A3,3 0 0,1 3,0Z" style="opacity: 1; stroke-width: 0px; fill: rgb(0, 0, 139); fill-opacity: 1;"/><path class="point" transform="translate(336.05,160.54)" d="M3,0A3,3 0 1,1 0,-3A3,3 0 0,1 3,0Z" style="opacity: 1; stroke-width: 0px; fill: rgb(0, 0, 139); fill-opacity: 1;"/><path class="point" transform="translate(336.62,146.54)" d="M3,0A3,3 0 1,1 0,-3A3,3 0 0,1 3,0Z" style="opacity: 1; stroke-width: 0px; fill: rgb(0, 0, 139); fill-opacity: 1;"/><path class="point" transform="translate(335.92,146.54)" d="M3,0A3,3 0 1,1 0,-3A3,3 0 0,1 3,0Z" style="opacity: 1; stroke-width: 0px; fill: rgb(0, 0, 139); fill-opacity: 1;"/><path class="point" transform="translate(336.18,132.54)" d="M3,0A3,3 0 1,1 0,-3A3,3 0 0,1 3,0Z" style="opacity: 1; stroke-width: 0px; fill: rgb(0, 0, 139); fill-opacity: 1;"/><path class="point" transform="translate(336.55,118.54)" d="M3,0A3,3 0 1,1 0,-3A3,3 0 0,1 3,0Z" style="opacity: 1; stroke-width: 0px; fill: rgb(0, 0, 139); fill-opacity: 1;"/><path class="point" transform="translate(336.27,90.54)" d="M3,0A3,3 0 1,1 0,-3A3,3 0 0,1 3,0Z" style="opacity: 1; stroke-width: 0px; fill: rgb(0, 0, 139); fill-opacity: 1;"/><path class="point" transform="translate(336.5,90.54)" d="M3,0A3,3 0 1,1 0,-3A3,3 0 0,1 3,0Z" style="opacity: 1; stroke-width: 0px; fill: rgb(0, 0, 139); fill-opacity: 1;"/><path class="point" transform="translate(336.09,90.54)" d="M3,0A3,3 0 1,1 0,-3A3,3 0 0,1 3,0Z" style="opacity: 1; stroke-width: 0px; fill: rgb(0, 0, 139); fill-opacity: 1;"/><path class="point" transform="translate(335.79,90.54)" d="M3,0A3,3 0 1,1 0,-3A3,3 0 0,1 3,0Z" style="opacity: 1; stroke-width: 0px; fill: rgb(0, 0, 139); fill-opacity: 1;"/><path class="point" transform="translate(336.5,83.9)" d="M3,0A3,3 0 1,1 0,-3A3,3 0 0,1 3,0Z" style="opacity: 1; stroke-width: 0px; fill: rgb(0, 0, 139); fill-opacity: 1;"/><path class="point" transform="translate(335.9,76.54)" d="M3,0A3,3 0 1,1 0,-3A3,3 0 0,1 3,0Z" style="opacity: 1; stroke-width: 0px; fill: rgb(0, 0, 139); fill-opacity: 1;"/><path class="point" transform="translate(336.99,76.54)" d="M3,0A3,3 0 1,1 0,-3A3,3 0 0,1 3,0Z" style="opacity: 1; stroke-width: 0px; fill: rgb(0, 0, 139); fill-opacity: 1;"/></g></g><g class="trace violins" style="opacity: 1;"><path class="violin" d="M422.88,26.25L421.97,26.25Q421.45,31.05 421.05,33.44C420.64,35.85 420.15,38.25 419.53,40.64C418.9,43.05 418.14,45.46 417.29,47.84C416.43,50.26 415.42,52.65 414.38,55.03C413.33,57.44 412.14,59.83 411.02,62.23C409.9,64.63 408.7,67.01 407.65,69.42C406.61,71.8 405.57,74.2 404.75,76.62C403.95,79 403.23,81.4 402.76,83.82C402.3,86.2 402.01,88.61 401.94,91.01C401.87,93.41 402.02,95.82 402.31,98.21C402.6,100.62 403.11,103.02 403.68,105.4C404.26,107.81 405.01,110.21 405.75,112.6C406.5,115.01 407.35,117.39 408.16,119.79C408.97,122.19 409.82,124.58 410.59,126.99C411.36,129.38 412.11,131.78 412.79,134.19C413.46,136.58 414.08,138.98 414.63,141.38C415.18,143.77 415.67,146.18 416.11,148.58C416.55,150.97 416.93,153.37 417.29,155.77C417.65,158.17 417.97,160.57 418.26,162.97C418.55,165.37 418.81,167.76 419.04,170.16C419.27,172.56 419.47,174.96 419.62,177.36C419.77,179.76 419.89,182.16 419.96,184.56C420.03,186.96 420.05,189.35 420.05,191.75C420.05,194.15 420,196.55 419.97,198.95C419.94,201.35 419.88,203.74 419.86,206.14C419.84,208.54 419.84,210.94 419.88,213.34C419.92,215.74 420.01,218.14 420.13,220.54C420.25,222.94 420.41,225.33 420.58,227.73C420.75,230.13 420.96,232.53 421.15,234.93C421.34,237.33 421.54,239.72 421.71,242.12C421.88,244.52 422.04,246.92 422.17,249.32Q422.3,251.72 422.49,256.51L422.88,256.51" style="vector-effect: non-scaling-stroke; stroke-width: 2px; stroke: rgb(0, 0, 0); stroke-opacity: 1; fill: rgb(0, 0, 0); fill-opacity: 0.5;"/><path class="meanline" d="M405.1851501464844,110.77H422.88" style="fill: none; vector-effect: non-scaling-stroke; stroke-width: 2px; stroke-dasharray: 4px, 2px; stroke: rgb(0, 0, 0); stroke-opacity: 1;"/><g class="points"><path class="point" transform="translate(389.51,213.23)" d="M3,0A3,3 0 1,1 0,-3A3,3 0 0,1 3,0Z" style="opacity: 1; stroke-width: 0px; fill: rgb(0, 0, 0); fill-opacity: 1;"/><path class="point" transform="translate(388.82,160.54)" d="M3,0A3,3 0 1,1 0,-3A3,3 0 0,1 3,0Z" style="opacity: 1; stroke-width: 0px; fill: rgb(0, 0, 0); fill-opacity: 1;"/><path class="point" transform="translate(389.7,132.54)" d="M3,0A3,3 0 1,1 0,-3A3,3 0 0,1 3,0Z" style="opacity: 1; stroke-width: 0px; fill: rgb(0, 0, 0); fill-opacity: 1;"/><path class="point" transform="translate(388.64,118.54)" d="M3,0A3,3 0 1,1 0,-3A3,3 0 0,1 3,0Z" style="opacity: 1; stroke-width: 0px; fill: rgb(0, 0, 0); fill-opacity: 1;"/><path class="point" transform="translate(389.04,104.54)" d="M3,0A3,3 0 1,1 0,-3A3,3 0 0,1 3,0Z" style="opacity: 1; stroke-width: 0px; fill: rgb(0, 0, 0); fill-opacity: 1;"/><path class="point" transform="translate(389.59,104.54)" d="M3,0A3,3 0 1,1 0,-3A3,3 0 0,1 3,0Z" style="opacity: 1; stroke-width: 0px; fill: rgb(0, 0, 0); fill-opacity: 1;"/><path class="point" transform="translate(389.17,98.27)" d="M3,0A3,3 0 1,1 0,-3A3,3 0 0,1 3,0Z" style="opacity: 1; stroke-width: 0px; fill: rgb(0, 0, 0); fill-opacity: 1;"/><path class="point" transform="translate(389.5,90.54)" d="M3,0A3,3 0 1,1 0,-3A3,3 0 0,1 3,0Z" style="opacity: 1; stroke-width: 0px; fill: rgb(0, 0, 0); fill-opacity: 1;"/><path class="point" transform="translate(388.86,83.9)" d="M3,0A3,3 0 1,1 0,-3A3,3 0 0,1 3,0Z" style="opacity: 1; stroke-width: 0px; fill: rgb(0, 0, 0); fill-opacity: 1;"/><path class="point" transform="translate(388.33,76.54)" d="M3,0A3,3 0 1,1 0,-3A3,3 0 0,1 3,0Z" style="opacity: 1; stroke-width: 0px; fill: rgb(0, 0, 0); fill-opacity: 1;"/><path class="point" transform="translate(389.5,76.54)" d="M3,0A3,3 0 1,1 0,-3A3,3 0 0,1 3,0Z" style="opacity: 1; stroke-width: 0px; fill: rgb(0, 0, 0); fill-opacity: 1;"/><path class="point" transform="translate(388.84,69.54)" d="M3,0A3,3 0 1,1 0,-3A3,3 0 0,1 3,0Z" style="opacity: 1; stroke-width: 0px; fill: rgb(0, 0, 0); fill-opacity: 1;"/></g></g><g class="trace violins" style="opacity: 1;"><path class="violin" d="M422.88,304L423.32,304Q423.53,297.2 423.68,293.8C423.83,290.4 424.01,286.99 424.21,283.59C424.41,280.19 424.64,276.79 424.87,273.39C425.1,269.99 425.36,266.59 425.6,263.19C425.84,259.79 426.08,256.38 426.31,252.98C426.54,249.58 426.75,246.18 426.98,242.78C427.21,239.38 427.42,235.97 427.68,232.57C427.94,229.17 428.21,225.77 428.55,222.37C428.89,218.97 429.29,215.57 429.74,212.17C430.19,208.76 430.73,205.36 431.27,201.96C431.81,198.56 432.42,195.16 432.99,191.76C433.56,188.36 434.14,184.96 434.67,181.56C435.2,178.16 435.69,174.75 436.17,171.35C436.65,167.95 437.07,164.55 437.56,161.15C438.05,157.75 438.52,154.35 439.1,150.95C439.68,147.54 440.33,144.14 441.03,140.74C441.73,137.33 442.57,133.94 443.32,130.54C444.07,127.14 444.92,123.75 445.52,120.34C446.12,116.95 446.71,113.54 446.93,110.13C447.15,106.74 447.18,103.32 446.87,99.93C446.56,96.51 445.9,93.09 445.04,89.72C444.17,86.29 442.92,82.9 441.66,79.52C440.38,76.1 438.83,72.72 437.4,69.32C435.97,65.92 434.42,62.53 433.08,59.11C431.75,55.73 430.45,52.33 429.37,48.91C428.3,45.53 427.38,42.13 426.62,38.71Q425.87,35.32 424.83,28.5L422.88,28.5" style="vector-effect: non-scaling-stroke; stroke-width: 2px; stroke: rgb(128, 128, 128); stroke-opacity: 1; fill: rgb(128, 128, 128); fill-opacity: 0.5;"/><path class="meanline" d="M442.771240234375,132.97H422.88" style="fill: none; vector-effect: non-scaling-stroke; stroke-width: 2px; stroke-dasharray: 4px, 2px; stroke: rgb(128, 128, 128); stroke-opacity: 1;"/><g class="points"><path class="point" transform="translate(456.76,241.97)" d="M3,0A3,3 0 1,1 0,-3A3,3 0 0,1 3,0Z" style="opacity: 1; stroke-width: 0px; fill: rgb(128, 128, 128); fill-opacity: 1;"/><path class="point" transform="translate(456.28,174.54)" d="M3,0A3,3 0 1,1 0,-3A3,3 0 0,1 3,0Z" style="opacity: 1; stroke-width: 0px; fill: rgb(128, 128, 128); fill-opacity: 1;"/><path class="point" transform="translate(456.9,174.54)" d="M3,0A3,3 0 1,1 0,-3A3,3 0 0,1 3,0Z" style="opacity: 1; stroke-width: 0px; fill: rgb(128, 128, 128); fill-opacity: 1;"/><path class="point" transform="translate(456.15,174.54)" d="M3,0A3,3 0 1,1 0,-3A3,3 0 0,1 3,0Z" style="opacity: 1; stroke-width: 0px; fill: rgb(128, 128, 128); fill-opacity: 1;"/><path class="point" transform="translate(456.43,132.54)" d="M3,0A3,3 0 1,1 0,-3A3,3 0 0,1 3,0Z" style="opacity: 1; stroke-width: 0px; fill: rgb(128, 128, 128); fill-opacity: 1;"/><path class="point" transform="translate(456.82,118.54)" d="M3,0A3,3 0 1,1 0,-3A3,3 0 0,1 3,0Z" style="opacity: 1; stroke-width: 0px; fill: rgb(128, 128, 128); fill-opacity: 1;"/><path class="point" transform="translate(456.52,104.54)" d="M3,0A3,3 0 1,1 0,-3A3,3 0 0,1 3,0Z" style="opacity: 1; stroke-width: 0px; fill: rgb(128, 128, 128); fill-opacity: 1;"/><path class="point" transform="translate(456.74,104.54)" d="M3,0A3,3 0 1,1 0,-3A3,3 0 0,1 3,0Z" style="opacity: 1; stroke-width: 0px; fill: rgb(128, 128, 128); fill-opacity: 1;"/><path class="point" transform="translate(456.35,98.27)" d="M3,0A3,3 0 1,1 0,-3A3,3 0 0,1 3,0Z" style="opacity: 1; stroke-width: 0px; fill: rgb(128, 128, 128); fill-opacity: 1;"/><path class="point" transform="translate(455.95,90.54)" d="M3,0A3,3 0 1,1 0,-3A3,3 0 0,1 3,0Z" style="opacity: 1; stroke-width: 0px; fill: rgb(128, 128, 128); fill-opacity: 1;"/><path class="point" transform="translate(456.8,90.54)" d="M3,0A3,3 0 1,1 0,-3A3,3 0 0,1 3,0Z" style="opacity: 1; stroke-width: 0px; fill: rgb(128, 128, 128); fill-opacity: 1;"/><path class="point" transform="translate(456.15,90.54)" d="M3,0A3,3 0 1,1 0,-3A3,3 0 0,1 3,0Z" style="opacity: 1; stroke-width: 0px; fill: rgb(128, 128, 128); fill-opacity: 1;"/></g></g></g></g><g class="overplot"/><path class="xlines-above crisp" d="M79,420.5H565" style="fill: none; stroke-width: 1px; stroke: rgb(255, 255, 255); stroke-opacity: 1;"/><path class="ylines-above crisp" d="M79.5,100V420" style="fill: none; stroke-width: 1px; stroke: rgb(255, 255, 255); stroke-opacity: 1;"/><g class="overlines-above"/><g class="xaxislayer-above"><g class="xtick"><text text-anchor="middle" x="0" y="435.4" transform="translate(142.12,0)" style="font-family: 'Open Sans', verdana, arial, sans-serif; font-size: 12px; fill: rgb(42, 63, 95); fill-opacity: 1; white-space: pre;">SGD Classifier</text></g><g class="xtick"><text text-anchor="middle" x="0" y="435.4" transform="translate(262.37,0)" style="font-family: 'Open Sans', verdana, arial, sans-serif; font-size: 12px; fill: rgb(42, 63, 95); fill-opacity: 1; white-space: pre;">Bernoulli NB</text></g><g class="xtick"><text text-anchor="middle" x="0" y="435.4" transform="translate(382.63,0)" style="font-family: 'Open Sans', verdana, arial, sans-serif; font-size: 12px; fill: rgb(42, 63, 95); fill-opacity: 1; white-space: pre;">Logistic Regresion</text></g><g class="xtick"><text text-anchor="middle" x="0" y="435.4" transform="translate(502.88,0)" style="font-family: 'Open Sans', verdana, arial, sans-serif; font-size: 12px; fill: rgb(42, 63, 95); fill-opacity: 1; white-space: pre;">Multinomial NB</text></g></g><g class="yaxislayer-above"><g class="ytick"><text text-anchor="end" x="76.6" y="4.199999999999999" transform="translate(0,387.95)" style="font-family: 'Open Sans', verdana, arial, sans-serif; font-size: 12px; fill: rgb(42, 63, 95); fill-opacity: 1; white-space: pre;">0.1</text></g><g class="ytick"><text text-anchor="end" x="76.6" y="4.199999999999999" transform="translate(0,333.34000000000003)" style="font-family: 'Open Sans', verdana, arial, sans-serif; font-size: 12px; fill: rgb(42, 63, 95); fill-opacity: 1; white-space: pre;">0.2</text></g><g class="ytick"><text text-anchor="end" x="76.6" y="4.199999999999999" transform="translate(0,278.74)" style="font-family: 'Open Sans', verdana, arial, sans-serif; font-size: 12px; fill: rgb(42, 63, 95); fill-opacity: 1; white-space: pre;">0.3</text></g><g class="ytick"><text text-anchor="end" x="76.6" y="4.199999999999999" transform="translate(0,224.14)" style="font-family: 'Open Sans', verdana, arial, sans-serif; font-size: 12px; fill: rgb(42, 63, 95); fill-opacity: 1; white-space: pre;">0.4</text></g><g class="ytick"><text text-anchor="end" x="76.6" y="4.199999999999999" transform="translate(0,169.54000000000002)" style="font-family: 'Open Sans', verdana, arial, sans-serif; font-size: 12px; fill: rgb(42, 63, 95); fill-opacity: 1; white-space: pre;">0.5</text></g><g class="ytick"><text text-anchor="end" x="76.6" y="4.199999999999999" transform="translate(0,114.93)" style="font-family: 'Open Sans', verdana, arial, sans-serif; font-size: 12px; fill: rgb(42, 63, 95); fill-opacity: 1; white-space: pre;">0.6</text></g></g><g class="overaxes-above"/></g></g><g class="polarlayer"/><g class="ternarylayer"/><g class="geolayer"/><g class="funnelarealayer"/><g class="pielayer"/><g class="treemaplayer"/><g class="sunburstlayer"/><g class="glimages"/><defs id="topdefs-26b943"><g class="clips"/><clipPath id="legend26b943"><rect width="113" height="162" x="0" y="0"/></clipPath></defs><g class="layer-above"><g class="imagelayer"/><g class="shapelayer"/></g><g class="infolayer"><g class="legend" pointer-events="all" transform="translate(574.7, 100)"><rect class="bg" shape-rendering="crispEdges" width="113" height="162" x="0" y="0" style="stroke: rgb(68, 68, 68); stroke-opacity: 1; fill: rgb(255, 255, 255); fill-opacity: 1; stroke-width: 0px;"/><g class="scrollbox" transform="translate(0, 0)" clip-path="url('#legend26b943')"><g class="groups"><g class="traces" transform="translate(0, 14.5)" style="opacity: 1;"><text class="legendtext user-select-none" text-anchor="start" x="40" y="4.680000000000001" style="font-family: 'Open Sans', verdana, arial, sans-serif; font-size: 12px; fill: rgb(42, 63, 95); fill-opacity: 1; white-space: pre;">BOW SGD</text><g class="layers" style="opacity: 1;"><g class="legendfill"/><g class="legendlines"/><g class="legendsymbols"><g class="legendpoints"><path class="legendbox" d="M6,6H-6V-6H6Z" transform="translate(20,0)" style="stroke-width: 2px; fill: rgb(0, 128, 0); fill-opacity: 0.5; stroke: rgb(0, 128, 0); stroke-opacity: 1;"/></g></g></g><rect class="legendtoggle" pointer-events="all" x="0" y="-9.5" width="107.03125" height="19" style="cursor: pointer; fill: rgb(0, 0, 0); fill-opacity: 0;"/></g><g class="traces" transform="translate(0, 33.5)" style="opacity: 1;"><text class="legendtext user-select-none" text-anchor="start" x="40" y="4.680000000000001" style="font-family: 'Open Sans', verdana, arial, sans-serif; font-size: 12px; fill: rgb(42, 63, 95); fill-opacity: 1; white-space: pre;">TFIDF SGD</text><g class="layers" style="opacity: 1;"><g class="legendfill"/><g class="legendlines"/><g class="legendsymbols"><g class="legendpoints"><path class="legendbox" d="M6,6H-6V-6H6Z" transform="translate(20,0)" style="stroke-width: 2px; fill: rgb(32, 178, 170); fill-opacity: 0.5; stroke: rgb(32, 178, 170); stroke-opacity: 1;"/></g></g></g><rect class="legendtoggle" pointer-events="all" x="0" y="-9.5" width="107.03125" height="19" style="cursor: pointer; fill: rgb(0, 0, 0); fill-opacity: 0;"/></g><g class="traces" transform="translate(0, 52.5)" style="opacity: 1;"><text class="legendtext user-select-none" text-anchor="start" x="40" y="4.680000000000001" style="font-family: 'Open Sans', verdana, arial, sans-serif; font-size: 12px; fill: rgb(42, 63, 95); fill-opacity: 1; white-space: pre;">BOW BNB</text><g class="layers" style="opacity: 1;"><g class="legendfill"/><g class="legendlines"/><g class="legendsymbols"><g class="legendpoints"><path class="legendbox" d="M6,6H-6V-6H6Z" transform="translate(20,0)" style="stroke-width: 2px; fill: rgb(255, 0, 0); fill-opacity: 0.5; stroke: rgb(255, 0, 0); stroke-opacity: 1;"/></g></g></g><rect class="legendtoggle" pointer-events="all" x="0" y="-9.5" width="107.03125" height="19" style="cursor: pointer; fill: rgb(0, 0, 0); fill-opacity: 0;"/></g><g class="traces" transform="translate(0, 71.5)" style="opacity: 1;"><text class="legendtext user-select-none" text-anchor="start" x="40" y="4.680000000000001" style="font-family: 'Open Sans', verdana, arial, sans-serif; font-size: 12px; fill: rgb(42, 63, 95); fill-opacity: 1; white-space: pre;">TFIDF BNB</text><g class="layers" style="opacity: 1;"><g class="legendfill"/><g class="legendlines"/><g class="legendsymbols"><g class="legendpoints"><path class="legendbox" d="M6,6H-6V-6H6Z" transform="translate(20,0)" style="stroke-width: 2px; fill: rgb(139, 0, 139); fill-opacity: 0.5; stroke: rgb(139, 0, 139); stroke-opacity: 1;"/></g></g></g><rect class="legendtoggle" pointer-events="all" x="0" y="-9.5" width="107.03125" height="19" style="cursor: pointer; fill: rgb(0, 0, 0); fill-opacity: 0;"/></g><g class="traces" transform="translate(0, 90.5)" style="opacity: 1;"><text class="legendtext user-select-none" text-anchor="start" x="40" y="4.680000000000001" style="font-family: 'Open Sans', verdana, arial, sans-serif; font-size: 12px; fill: rgb(42, 63, 95); fill-opacity: 1; white-space: pre;">BOW LR</text><g class="layers" style="opacity: 1;"><g class="legendfill"/><g class="legendlines"/><g class="legendsymbols"><g class="legendpoints"><path class="legendbox" d="M6,6H-6V-6H6Z" transform="translate(20,0)" style="stroke-width: 2px; fill: rgb(0, 0, 255); fill-opacity: 0.5; stroke: rgb(0, 0, 255); stroke-opacity: 1;"/></g></g></g><rect class="legendtoggle" pointer-events="all" x="0" y="-9.5" width="107.03125" height="19" style="cursor: pointer; fill: rgb(0, 0, 0); fill-opacity: 0;"/></g><g class="traces" transform="translate(0, 109.5)" style="opacity: 1;"><text class="legendtext user-select-none" text-anchor="start" x="40" y="4.680000000000001" style="font-family: 'Open Sans', verdana, arial, sans-serif; font-size: 12px; fill: rgb(42, 63, 95); fill-opacity: 1; white-space: pre;">TFIDF LR</text><g class="layers" style="opacity: 1;"><g class="legendfill"/><g class="legendlines"/><g class="legendsymbols"><g class="legendpoints"><path class="legendbox" d="M6,6H-6V-6H6Z" transform="translate(20,0)" style="stroke-width: 2px; fill: rgb(0, 0, 139); fill-opacity: 0.5; stroke: rgb(0, 0, 139); stroke-opacity: 1;"/></g></g></g><rect class="legendtoggle" pointer-events="all" x="0" y="-9.5" width="107.03125" height="19" style="cursor: pointer; fill: rgb(0, 0, 0); fill-opacity: 0;"/></g><g class="traces" transform="translate(0, 128.5)" style="opacity: 1;"><text class="legendtext user-select-none" text-anchor="start" x="40" y="4.680000000000001" style="font-family: 'Open Sans', verdana, arial, sans-serif; font-size: 12px; fill: rgb(42, 63, 95); fill-opacity: 1; white-space: pre;">BOW MNB</text><g class="layers" style="opacity: 1;"><g class="legendfill"/><g class="legendlines"/><g class="legendsymbols"><g class="legendpoints"><path class="legendbox" d="M6,6H-6V-6H6Z" transform="translate(20,0)" style="stroke-width: 2px; fill: rgb(0, 0, 0); fill-opacity: 0.5; stroke: rgb(0, 0, 0); stroke-opacity: 1;"/></g></g></g><rect class="legendtoggle" pointer-events="all" x="0" y="-9.5" width="107.03125" height="19" style="cursor: pointer; fill: rgb(0, 0, 0); fill-opacity: 0;"/></g><g class="traces" transform="translate(0, 147.5)" style="opacity: 1;"><text class="legendtext user-select-none" text-anchor="start" x="40" y="4.680000000000001" style="font-family: 'Open Sans', verdana, arial, sans-serif; font-size: 12px; fill: rgb(42, 63, 95); fill-opacity: 1; white-space: pre;">TFIDF MNB</text><g class="layers" style="opacity: 1;"><g class="legendfill"/><g class="legendlines"/><g class="legendsymbols"><g class="legendpoints"><path class="legendbox" d="M6,6H-6V-6H6Z" transform="translate(20,0)" style="stroke-width: 2px; fill: rgb(128, 128, 128); fill-opacity: 0.5; stroke: rgb(128, 128, 128); stroke-opacity: 1;"/></g></g></g><rect class="legendtoggle" pointer-events="all" x="0" y="-9.5" width="107.03125" height="19" style="cursor: pointer; fill: rgb(0, 0, 0); fill-opacity: 0;"/></g></g></g><rect class="scrollbar" rx="20" ry="3" width="0" height="0" x="0" y="0" style="fill: rgb(128, 139, 164); fill-opacity: 1;"/></g><g class="g-gtitle"><text class="gtitle" x="35" y="50" text-anchor="start" dy="0em" style="font-family: 'Open Sans', verdana, arial, sans-serif; font-size: 17px; fill: rgb(42, 63, 95); opacity: 1; font-weight: normal; white-space: pre;">Recall</text></g><g class="g-xtitle"/><g class="g-ytitle"/></g></svg>